<svg width="10" height="10" viewBox="0 0 10 10" fill="none" xmlns="http://www.w3.org/2000/svg">
<path d="M5 0C7.76142 0 10 2.23858 10 5C10 7.76142 7.76142 10 5 10C2.23858 10 0 7.76142 0 5C0 2.23858 2.23858 0 5 0ZM5 0.869141C2.71882 0.869141 0.869141 2.71882 0.869141 5C0.869141 7.28118 2.71882 9.13086 5 9.13086C7.28118 9.13086 9.13086 7.28118 9.13086 5C9.13086 2.71882 7.28118 0.869141 5 0.869141Z" fill="#FFBB00"/>
<path d="M5.00031 2.6087C6.32085 2.60886 7.39093 3.67972 7.39093 5.00031C7.39077 6.32075 6.32075 7.39077 5.00031 7.39093C3.67972 7.39093 2.60886 6.32085 2.6087 5.00031C2.6087 3.67962 3.67962 2.6087 5.00031 2.6087ZM5.00031 3.04327C3.91975 3.04327 3.04327 3.91975 3.04327 5.00031C3.04344 6.08072 3.91985 6.95636 5.00031 6.95636C6.08062 6.95619 6.95619 6.08062 6.95636 5.00031C6.95636 3.91985 6.08072 3.04344 5.00031 3.04327Z" fill="#FFBB00"/>
<circle cx="4.99995" cy="5.00001" r="0.652174" fill="#FFBB00"/>
<rect x="4.34778" y="4.78262" width="4.78261" height="0.434783" fill="#FFBB00"/>
</svg>
