<?xml version="1.0" encoding="UTF-8"?>
<!DOCTYPE svg PUBLIC "-//W3C//DTD SVG 1.1//EN" "http://www.w3.org/Graphics/SVG/1.1/DTD/svg11.dtd">
<svg xmlns="http://www.w3.org/2000/svg" version="1.1" width="300px" height="200px" style="shape-rendering:geometricPrecision; text-rendering:geometricPrecision; image-rendering:optimizeQuality; fill-rule:evenodd; clip-rule:evenodd" xmlns:xlink="http://www.w3.org/1999/xlink">
<g><path style="opacity:1" fill="#f9cd3d" d="M 12.5,-0.5 C 103.833,-0.5 195.167,-0.5 286.5,-0.5C 288.463,0.820176 290.463,2.15351 292.5,3.5C 197.167,67.5 101.833,131.5 6.5,195.5C 3.78457,192.786 1.45124,189.786 -0.5,186.5C -0.5,128.5 -0.5,70.5 -0.5,12.5C 2.16667,6.5 6.5,2.16667 12.5,-0.5 Z"/></g>
<g><path style="opacity:1" fill="#01963e" d="M 292.5,3.5 C 295.215,6.2139 297.549,9.2139 299.5,12.5C 299.5,70.5 299.5,128.5 299.5,186.5C 296.833,192.5 292.5,196.833 286.5,199.5C 195.167,199.5 103.833,199.5 12.5,199.5C 10.5368,198.18 8.53684,196.846 6.5,195.5C 101.833,131.5 197.167,67.5 292.5,3.5 Z"/></g>
<g><path style="opacity:1" fill="#d5291a" d="M 48.5,19.5 C 50.4109,19.5743 51.5776,20.5743 52,22.5C 53.6414,27.759 55.4748,32.9257 57.5,38C 64.1667,38.3333 70.8333,38.6667 77.5,39C 77.9574,39.414 78.2907,39.914 78.5,40.5C 72.9177,45.1134 67.5844,49.9467 62.5,55C 64.4013,60.8707 66.4013,66.704 68.5,72.5C 67.6518,74.2828 66.3185,74.7828 64.5,74C 59.8101,69.9942 54.8101,66.4942 49.5,63.5C 44.1899,66.4942 39.1899,69.9942 34.5,74C 32.6815,74.7828 31.3482,74.2828 30.5,72.5C 32.5987,66.704 34.5987,60.8707 36.5,55C 31.4156,49.9467 26.0823,45.1134 20.5,40.5C 20.7093,39.914 21.0426,39.414 21.5,39C 28.1667,38.6667 34.8333,38.3333 41.5,38C 43.7386,31.7826 46.0719,25.6159 48.5,19.5 Z"/></g>
</svg>
