<?xml version="1.0" encoding="UTF-8"?>
<!DOCTYPE svg PUBLIC "-//W3C//DTD SVG 1.1//EN" "http://www.w3.org/Graphics/SVG/1.1/DTD/svg11.dtd">
<svg xmlns="http://www.w3.org/2000/svg" version="1.1" width="300px" height="200px" style="shape-rendering:geometricPrecision; text-rendering:geometricPrecision; image-rendering:optimizeQuality; fill-rule:evenodd; clip-rule:evenodd" xmlns:xlink="http://www.w3.org/1999/xlink">
<g><path style="opacity:1" fill="#d41f19" d="M 12.5,-0.5 C 41.5,-0.5 70.5,-0.5 99.5,-0.5C 99.5,66.1667 99.5,132.833 99.5,199.5C 70.5,199.5 41.5,199.5 12.5,199.5C 6.5,196.833 2.16667,192.5 -0.5,186.5C -0.5,128.5 -0.5,70.5 -0.5,12.5C 2.16667,6.5 6.5,2.16667 12.5,-0.5 Z"/></g>
<g><path style="opacity:1" fill="#ececec" d="M 99.5,-0.5 C 132.833,-0.5 166.167,-0.5 199.5,-0.5C 199.5,66.1667 199.5,132.833 199.5,199.5C 166.167,199.5 132.833,199.5 99.5,199.5C 99.5,132.833 99.5,66.1667 99.5,-0.5 Z"/></g>
<g><path style="opacity:1" fill="#009cc8" d="M 199.5,-0.5 C 228.5,-0.5 257.5,-0.5 286.5,-0.5C 292.5,2.16667 296.833,6.5 299.5,12.5C 299.5,70.5 299.5,128.5 299.5,186.5C 296.833,192.5 292.5,196.833 286.5,199.5C 257.5,199.5 228.5,199.5 199.5,199.5C 199.5,132.833 199.5,66.1667 199.5,-0.5 Z"/></g>
<g><path style="opacity:1" fill="#c5c5c5" d="M 147.5,40.5 C 151.697,40.1937 153.697,42.1937 153.5,46.5C 155.857,46.3367 158.19,46.5034 160.5,47C 161.704,50.1907 160.537,52.3574 157,53.5C 157.253,56.133 157.253,58.7996 157,61.5C 156.439,62.0219 155.772,62.3552 155,62.5C 153.263,61.3802 151.429,60.3802 149.5,59.5C 142.865,64.4617 140.531,62.9617 142.5,55C 135.095,49.0451 136.095,46.2117 145.5,46.5C 145.604,44.2972 146.27,42.2972 147.5,40.5 Z"/></g>
<g><path style="opacity:1" fill="#e9e9e9" d="M 148.5,42.5 C 150.614,43.784 151.614,45.784 151.5,48.5C 153.924,48.1924 156.257,48.5258 158.5,49.5C 156.663,50.8379 154.997,52.3379 153.5,54C 156.336,60.3152 155.003,61.1485 149.5,56.5C 143.975,61.1257 142.642,60.2924 145.5,54C 143.983,52.3149 142.316,50.8149 140.5,49.5C 142.833,48.8333 145.167,48.1667 147.5,47.5C 148.309,45.9291 148.643,44.2624 148.5,42.5 Z"/></g>
<g><path style="opacity:1" fill="#c0c1c2" d="M 122.5,66.5 C 140.5,66.5 158.5,66.5 176.5,66.5C 176.955,82.9037 176.455,99.237 175,115.5C 168.335,129.916 157.168,135.416 141.5,132C 133.42,128.921 127.586,123.421 124,115.5C 122.545,99.237 122.045,82.9037 122.5,66.5 Z"/></g>
<g><path style="opacity:1" fill="#22a1ca" d="M 174.5,80.5 C 171.033,80.4457 168.366,81.9457 166.5,85C 161.098,87.4793 156.765,86.146 153.5,81C 148.472,79.4517 144.472,80.7851 141.5,85C 136.098,87.4793 131.765,86.146 128.5,81C 127.207,80.51 125.873,80.3433 124.5,80.5C 124.5,76.5 124.5,72.5 124.5,68.5C 141.167,68.5 157.833,68.5 174.5,68.5C 174.5,72.5 174.5,76.5 174.5,80.5 Z"/></g>
<g><path style="opacity:1" fill="#e7ebec" d="M 144.5,70.5 C 147.952,70.8197 151.285,70.8197 154.5,70.5C 155.833,71.8333 155.833,73.1667 154.5,74.5C 151.273,74.3451 147.94,74.1784 144.5,74C 143.316,72.8545 143.316,71.6879 144.5,70.5 Z"/></g>
<g><path style="opacity:1" fill="#0e9844" d="M 110.5,72.5 C 112.144,72.2865 113.644,72.6198 115,73.5C 115.769,76.0991 115.602,78.5991 114.5,81C 112.888,81.7203 111.388,81.5536 110,80.5C 109.278,77.7395 109.445,75.0728 110.5,72.5 Z"/></g>
<g><path style="opacity:1" fill="#0e9844" d="M 184.5,72.5 C 186.144,72.2865 187.644,72.6198 189,73.5C 189.769,76.0991 189.602,78.5991 188.5,81C 186.888,81.7203 185.388,81.5536 184,80.5C 183.278,77.7395 183.445,75.0728 184.5,72.5 Z"/></g>
<g><path style="opacity:1" fill="#eaecec" d="M 132.5,75.5 C 135.817,75.781 138.983,75.781 142,75.5C 142.667,76.8333 142.667,78.1667 142,79.5C 138.97,79.3819 135.803,79.2152 132.5,79C 131.316,77.8545 131.316,76.6879 132.5,75.5 Z"/></g>
<g><path style="opacity:1" fill="#eaecec" d="M 157.5,75.5 C 160.817,75.781 163.983,75.781 167,75.5C 167.667,76.8333 167.667,78.1667 167,79.5C 163.97,79.3819 160.803,79.2152 157.5,79C 156.316,77.8545 156.316,76.6879 157.5,75.5 Z"/></g>
<g><path style="opacity:1" fill="#eceaea" d="M 124.5,80.5 C 125.873,80.3433 127.207,80.51 128.5,81C 131.765,86.146 136.098,87.4793 141.5,85C 144.472,80.7851 148.472,79.4517 153.5,81C 156.765,86.146 161.098,87.4793 166.5,85C 168.366,81.9457 171.033,80.4457 174.5,80.5C 174.5,87.1667 174.5,93.8333 174.5,100.5C 171.901,100.549 169.734,101.549 168,103.5C 163.925,99.5899 159.925,99.5899 156,103.5C 151.681,99.6475 147.514,99.6475 143.5,103.5C 142.521,100.375 142.187,97.0419 142.5,93.5C 143.968,92.2209 144.635,90.5542 144.5,88.5C 139.5,88.5 134.5,88.5 129.5,88.5C 129.365,90.5542 130.032,92.2209 131.5,93.5C 131.813,97.0419 131.479,100.375 130.5,103.5C 128.967,101.755 126.967,100.755 124.5,100.5C 124.5,93.8333 124.5,87.1667 124.5,80.5 Z"/></g>
<g><path style="opacity:1" fill="#0f9944" d="M 110.5,85.5 C 112.144,85.2865 113.644,85.6198 115,86.5C 115.769,89.0991 115.602,91.5991 114.5,94C 112.888,94.7203 111.388,94.5536 110,93.5C 109.278,90.7395 109.445,88.0728 110.5,85.5 Z"/></g>
<g><path style="opacity:1" fill="#0f9944" d="M 184.5,85.5 C 186.144,85.2865 187.644,85.6198 189,86.5C 189.769,89.0991 189.602,91.5991 188.5,94C 186.888,94.7203 185.388,94.5536 184,93.5C 183.278,90.7395 183.445,88.0728 184.5,85.5 Z"/></g>
<g><path style="opacity:1" fill="#d1241e" d="M 142.5,93.5 C 141.192,97.0187 141.192,100.685 142.5,104.5C 143.107,104.376 143.44,104.043 143.5,103.5C 147.514,99.6475 151.681,99.6475 156,103.5C 159.925,99.5899 163.925,99.5899 168,103.5C 169.734,101.549 171.901,100.549 174.5,100.5C 174.868,103.533 174.202,106.2 172.5,108.5C 169.545,108.981 167.211,110.481 165.5,113C 163.167,113.667 160.833,113.667 158.5,113C 152.5,105.667 146.5,105.667 140.5,113C 138.167,113.667 135.833,113.667 133.5,113C 131.789,110.481 129.455,108.981 126.5,108.5C 124.798,106.2 124.132,103.533 124.5,100.5C 126.967,100.755 128.967,101.755 130.5,103.5C 130.56,104.043 130.893,104.376 131.5,104.5C 132.808,100.685 132.808,97.0187 131.5,93.5C 130.032,92.2209 129.365,90.5542 129.5,88.5C 134.5,88.5 139.5,88.5 144.5,88.5C 144.635,90.5542 143.968,92.2209 142.5,93.5 Z"/></g>
<g><path style="opacity:1" fill="#e0827b" d="M 131.5,93.5 C 132.808,97.0187 132.808,100.685 131.5,104.5C 130.893,104.376 130.56,104.043 130.5,103.5C 131.479,100.375 131.813,97.0419 131.5,93.5 Z"/></g>
<g><path style="opacity:1" fill="#1f3270" d="M 135.5,93.5 C 136.5,93.5 137.5,93.5 138.5,93.5C 138.5,95.5 138.5,97.5 138.5,99.5C 137.5,99.5 136.5,99.5 135.5,99.5C 135.5,97.5 135.5,95.5 135.5,93.5 Z"/></g>
<g><path style="opacity:1" fill="#e0837c" d="M 142.5,93.5 C 142.187,97.0419 142.521,100.375 143.5,103.5C 143.44,104.043 143.107,104.376 142.5,104.5C 141.192,100.685 141.192,97.0187 142.5,93.5 Z"/></g>
<g><path style="opacity:1" fill="#149a46" d="M 110.5,98.5 C 112.144,98.2865 113.644,98.6198 115,99.5C 115.769,102.099 115.602,104.599 114.5,107C 112.888,107.72 111.388,107.554 110,106.5C 109.278,103.739 109.445,101.073 110.5,98.5 Z"/></g>
<g><path style="opacity:1" fill="#149a46" d="M 184.5,98.5 C 186.144,98.2865 187.644,98.6198 189,99.5C 189.769,102.099 189.602,104.599 188.5,107C 186.888,107.72 185.388,107.554 184,106.5C 183.278,103.739 183.445,101.073 184.5,98.5 Z"/></g>
<g><path style="opacity:1" fill="#2b9bc3" d="M 172.5,108.5 C 173.239,108.369 173.906,108.536 174.5,109C 173.825,112.217 172.491,115.05 170.5,117.5C 168.09,119.792 165.257,121.459 162,122.5C 158.587,121.545 155.754,119.711 153.5,117C 150.833,116.333 148.167,116.333 145.5,117C 143.246,119.711 140.413,121.545 137,122.5C 133.743,121.459 130.91,119.792 128.5,117.5C 126.509,115.05 125.175,112.217 124.5,109C 125.094,108.536 125.761,108.369 126.5,108.5C 129.455,108.981 131.789,110.481 133.5,113C 135.833,113.667 138.167,113.667 140.5,113C 146.5,105.667 152.5,105.667 158.5,113C 160.833,113.667 163.167,113.667 165.5,113C 167.211,110.481 169.545,108.981 172.5,108.5 Z"/></g>
<g><path style="opacity:1" fill="#1c9c49" d="M 111.5,111.5 C 116.846,112.013 118.513,114.847 116.5,120C 114.888,120.72 113.388,120.554 112,119.5C 110.487,116.836 110.32,114.17 111.5,111.5 Z"/></g>
<g><path style="opacity:1" fill="#1b9b49" d="M 183.5,111.5 C 186.261,110.915 187.927,111.915 188.5,114.5C 188.619,119.573 186.452,121.24 182,119.5C 181.282,116.593 181.782,113.926 183.5,111.5 Z"/></g>
<g><path style="opacity:1" fill="#e8eaeb" d="M 170.5,117.5 C 167.989,123.264 163.656,126.931 157.5,128.5C 152.092,123.244 146.759,123.244 141.5,128.5C 135.344,126.931 131.011,123.264 128.5,117.5C 130.91,119.792 133.743,121.459 137,122.5C 140.413,121.545 143.246,119.711 145.5,117C 148.167,116.333 150.833,116.333 153.5,117C 155.754,119.711 158.587,121.545 162,122.5C 165.257,121.459 168.09,119.792 170.5,117.5 Z"/></g>
<g><path style="opacity:1" fill="#189b48" d="M 116.5,123.5 C 121.796,123.611 123.796,126.111 122.5,131C 116.946,131.283 114.946,128.783 116.5,123.5 Z"/></g>
<g><path style="opacity:1" fill="#189b48" d="M 178.5,123.5 C 182.677,122.842 184.177,124.508 183,128.5C 180.153,132.38 177.653,132.38 175.5,128.5C 176.092,126.577 177.092,124.911 178.5,123.5 Z"/></g>
<g><path style="opacity:1" fill="#189fc9" d="M 157.5,128.5 C 152.167,131.167 146.833,131.167 141.5,128.5C 146.759,123.244 152.092,123.244 157.5,128.5 Z"/></g>
<g><path style="opacity:1" fill="#279f50" d="M 126.5,132.5 C 131.584,132.563 133.584,134.896 132.5,139.5C 128.578,140.873 125.912,139.539 124.5,135.5C 125.193,134.482 125.859,133.482 126.5,132.5 Z"/></g>
<g><path style="opacity:1" fill="#279f50" d="M 169.5,132.5 C 174.472,132.952 175.472,135.119 172.5,139C 169.5,141.273 167.167,140.773 165.5,137.5C 166.127,135.213 167.46,133.546 169.5,132.5 Z"/></g>
<g><path style="opacity:1" fill="#169946" d="M 157.5,137.5 C 161.987,137.141 163.654,138.974 162.5,143C 160.608,143.973 158.608,144.64 156.5,145C 158.333,146.833 160.167,148.667 162,150.5C 162.769,155.478 160.936,156.645 156.5,154C 154.551,151.379 152.051,149.546 149,148.5C 146.551,149.944 144.385,151.778 142.5,154C 138.064,156.645 136.231,155.478 137,150.5C 138.833,148.667 140.667,146.833 142.5,145C 139.154,145.225 136.82,143.892 135.5,141C 135.645,140.228 135.978,139.561 136.5,139C 141.002,138.148 145.335,138.648 149.5,140.5C 152.276,139.485 154.943,138.485 157.5,137.5 Z"/></g>
</svg>
