<?xml version="1.0" encoding="UTF-8"?>
<!DOCTYPE svg PUBLIC "-//W3C//DTD SVG 1.1//EN" "http://www.w3.org/Graphics/SVG/1.1/DTD/svg11.dtd">
<svg xmlns="http://www.w3.org/2000/svg" version="1.1" width="300px" height="200px" style="shape-rendering:geometricPrecision; text-rendering:geometricPrecision; image-rendering:optimizeQuality; fill-rule:evenodd; clip-rule:evenodd" xmlns:xlink="http://www.w3.org/1999/xlink">
<g><path style="opacity:1" fill="#203270" d="M 12.5,-0.5 C 58.1667,-0.5 103.833,-0.5 149.5,-0.5C 149.5,21.5 149.5,43.5 149.5,65.5C 99.6694,66.4989 49.6694,66.8322 -0.5,66.5C -0.5,48.5 -0.5,30.5 -0.5,12.5C 2.16667,6.5 6.5,2.16667 12.5,-0.5 Z"/></g>
<g><path style="opacity:1" fill="#ecedec" d="M 149.5,-0.5 C 195.167,-0.5 240.833,-0.5 286.5,-0.5C 292.5,2.16667 296.833,6.5 299.5,12.5C 299.5,30.1667 299.5,47.8333 299.5,65.5C 249.5,65.5 199.5,65.5 149.5,65.5C 149.5,43.5 149.5,21.5 149.5,-0.5 Z"/></g>
<g><path style="opacity:1" fill="#e6e6e8" d="M 33.5,18.5 C 34.4959,18.4142 35.3292,18.7476 36,19.5C 36.7611,22.0529 37.5944,24.5529 38.5,27C 41.8818,27.1764 45.2152,27.6764 48.5,28.5C 46.4698,30.607 44.3031,32.607 42,34.5C 41.9525,37.8776 42.4525,41.2109 43.5,44.5C 40.1148,43.6382 37.1148,41.9716 34.5,39.5C 31.8852,41.9716 28.8852,43.6382 25.5,44.5C 26.5475,41.2109 27.0475,37.8776 27,34.5C 24.6969,32.607 22.5302,30.607 20.5,28.5C 23.7848,27.6764 27.1182,27.1764 30.5,27C 31.4241,24.1354 32.4241,21.302 33.5,18.5 Z"/></g>
<g><path style="opacity:1" fill="#e6e6e8" d="M 73.5,18.5 C 74.4959,18.4142 75.3292,18.7476 76,19.5C 76.7611,22.0529 77.5944,24.5529 78.5,27C 81.8818,27.1764 85.2152,27.6764 88.5,28.5C 86.4698,30.607 84.3031,32.607 82,34.5C 81.9525,37.8776 82.4525,41.2109 83.5,44.5C 80.1148,43.6382 77.1148,41.9716 74.5,39.5C 71.8852,41.9716 68.8852,43.6382 65.5,44.5C 66.5475,41.2109 67.0475,37.8776 67,34.5C 64.6969,32.607 62.5302,30.607 60.5,28.5C 63.7848,27.6764 67.1182,27.1764 70.5,27C 71.4241,24.1354 72.4241,21.302 73.5,18.5 Z"/></g>
<g><path style="opacity:1" fill="#e6e6e8" d="M 113.5,18.5 C 114.496,18.4142 115.329,18.7476 116,19.5C 116.761,22.0529 117.594,24.5529 118.5,27C 121.882,27.1764 125.215,27.6764 128.5,28.5C 126.47,30.607 124.303,32.607 122,34.5C 121.952,37.8776 122.452,41.2109 123.5,44.5C 120.115,43.6382 117.115,41.9716 114.5,39.5C 111.885,41.9716 108.885,43.6382 105.5,44.5C 106.548,41.2109 107.048,37.8776 107,34.5C 104.697,32.607 102.53,30.607 100.5,28.5C 103.785,27.6764 107.118,27.1764 110.5,27C 111.424,24.1354 112.424,21.302 113.5,18.5 Z"/></g>
<g><path style="opacity:1" fill="#d42019" d="M 149.5,65.5 C 199.5,65.5 249.5,65.5 299.5,65.5C 299.5,87.8333 299.5,110.167 299.5,132.5C 199.5,132.5 99.5,132.5 -0.5,132.5C -0.5,110.5 -0.5,88.5 -0.5,66.5C 49.6694,66.8322 99.6694,66.4989 149.5,65.5 Z"/></g>
<g><path style="opacity:1" fill="#ececec" d="M -0.5,132.5 C 99.5,132.5 199.5,132.5 299.5,132.5C 299.5,150.5 299.5,168.5 299.5,186.5C 296.833,192.5 292.5,196.833 286.5,199.5C 195.167,199.5 103.833,199.5 12.5,199.5C 6.5,196.833 2.16667,192.5 -0.5,186.5C -0.5,168.5 -0.5,150.5 -0.5,132.5 Z"/></g>
</svg>
