<?xml version="1.0" encoding="UTF-8"?>
<!DOCTYPE svg PUBLIC "-//W3C//DTD SVG 1.1//EN" "http://www.w3.org/Graphics/SVG/1.1/DTD/svg11.dtd">
<svg xmlns="http://www.w3.org/2000/svg" version="1.1" width="300px" height="200px" style="shape-rendering:geometricPrecision; text-rendering:geometricPrecision; image-rendering:optimizeQuality; fill-rule:evenodd; clip-rule:evenodd" xmlns:xlink="http://www.w3.org/1999/xlink">
<g><path style="opacity:1" fill="#1f3270" d="M 12.5,-0.5 C 103.833,-0.5 195.167,-0.5 286.5,-0.5C 292.5,2.16667 296.833,6.5 299.5,12.5C 299.5,28.5 299.5,44.5 299.5,60.5C 222.166,60.6667 144.833,60.5 67.5,60C 47.965,40.6319 28.6316,21.1319 9.5,1.5C 10.7095,1.06795 11.7095,0.40128 12.5,-0.5 Z"/></g>
<g><path style="opacity:1" fill="#e4e6e7" d="M 9.5,1.5 C 28.6316,21.1319 47.965,40.6319 67.5,60C 144.833,60.5 222.166,60.6667 299.5,60.5C 299.5,64.1667 299.5,67.8333 299.5,71.5C 221.166,71.6667 142.833,71.5 64.5,71C 43.327,50.6601 22.327,30.1601 1.5,9.5C 3.16667,5.83333 5.83333,3.16667 9.5,1.5 Z"/></g>
<g><path style="opacity:1" fill="#00963e" d="M 1.5,9.5 C 22.327,30.1601 43.327,50.6601 64.5,71C 142.833,71.5 221.166,71.6667 299.5,71.5C 299.5,90.1667 299.5,108.833 299.5,127.5C 221.166,127.333 142.833,127.5 64.5,128C 42.9426,148.057 22.2759,168.89 2.5,190.5C 1.5,189.167 0.5,187.833 -0.5,186.5C -0.5,128.5 -0.5,70.5 -0.5,12.5C 0.40128,11.7095 1.06795,10.7095 1.5,9.5 Z"/></g>
<g><path style="opacity:1" fill="#e7eae9" d="M 38.5,76.5 C 40.5273,76.3379 42.5273,76.5045 44.5,77C 51,83.5 57.5,90 64,96.5C 64.6667,98.5 64.6667,100.5 64,102.5C 57.5,109 51,115.5 44.5,122C 42.5,122.667 40.5,122.667 38.5,122C 32,115.5 25.5,109 19,102.5C 18.3333,100.5 18.3333,98.5 19,96.5C 25.7027,89.9648 32.2027,83.2982 38.5,76.5 Z"/></g>
<g><path style="opacity:1" fill="#219c4a" d="M 39.5,89.5 C 44.9547,90.9438 48.9547,94.2771 51.5,99.5C 49.1667,103.833 45.8333,107.167 41.5,109.5C 37.1667,107.167 33.8333,103.833 31.5,99.5C 33.7781,95.8851 36.4447,92.5517 39.5,89.5 Z"/></g>
<g><path style="opacity:1" fill="#eaebe6" d="M 299.5,127.5 C 299.5,131.167 299.5,134.833 299.5,138.5C 222.166,138.333 144.833,138.5 67.5,139C 48.2486,158.753 28.5819,177.92 8.5,196.5C 5.5,195.5 3.5,193.5 2.5,190.5C 22.2759,168.89 42.9426,148.057 64.5,128C 142.833,127.5 221.166,127.333 299.5,127.5 Z"/></g>
<g><path style="opacity:1" fill="#f9ce3e" d="M 299.5,138.5 C 299.5,154.5 299.5,170.5 299.5,186.5C 296.833,192.5 292.5,196.833 286.5,199.5C 195.167,199.5 103.833,199.5 12.5,199.5C 11.1667,198.5 9.83333,197.5 8.5,196.5C 28.5819,177.92 48.2486,158.753 67.5,139C 144.833,138.5 222.166,138.333 299.5,138.5 Z"/></g>
</svg>
