<?xml version="1.0" encoding="UTF-8"?>
<!DOCTYPE svg PUBLIC "-//W3C//DTD SVG 1.1//EN" "http://www.w3.org/Graphics/SVG/1.1/DTD/svg11.dtd">
<svg xmlns="http://www.w3.org/2000/svg" version="1.1" width="300px" height="200px" style="shape-rendering:geometricPrecision; text-rendering:geometricPrecision; image-rendering:optimizeQuality; fill-rule:evenodd; clip-rule:evenodd" xmlns:xlink="http://www.w3.org/1999/xlink">
<g><path style="opacity:1" fill="#1f3270" d="M 12.5,-0.5 C 41.5,-0.5 70.5,-0.5 99.5,-0.5C 99.5,16.1667 99.5,32.8333 99.5,49.5C 99.5,66.1667 99.5,82.8333 99.5,99.5C 66.1667,99.5 32.8333,99.5 -0.5,99.5C -0.5,70.5 -0.5,41.5 -0.5,12.5C 2.16667,6.5 6.5,2.16667 12.5,-0.5 Z"/></g>
<g><path style="opacity:1" fill="#d41f19" d="M 99.5,-0.5 C 161.833,-0.5 224.167,-0.5 286.5,-0.5C 292.5,2.16667 296.833,6.5 299.5,12.5C 299.5,24.8333 299.5,37.1667 299.5,49.5C 232.833,49.5 166.167,49.5 99.5,49.5C 99.5,32.8333 99.5,16.1667 99.5,-0.5 Z"/></g>
<g><path style="opacity:1" fill="#ebebec" d="M 46.5,13.5 C 48.7925,13.2436 50.9592,13.5769 53,14.5C 64.6667,34.5 76.3333,54.5 88,74.5C 88.9201,77.3083 88.0867,79.4749 85.5,81C 61.5,81.6667 37.5,81.6667 13.5,81C 10.9133,79.4749 10.0799,77.3083 11,74.5C 22.845,54.1392 34.6783,33.8058 46.5,13.5 Z"/></g>
<g><path style="opacity:1" fill="#ecedec" d="M 99.5,49.5 C 166.167,49.5 232.833,49.5 299.5,49.5C 299.5,66.1667 299.5,82.8333 299.5,99.5C 232.833,99.5 166.167,99.5 99.5,99.5C 99.5,82.8333 99.5,66.1667 99.5,49.5 Z"/></g>
<g><path style="opacity:1" fill="#d31f18" d="M -0.5,99.5 C 32.8333,99.5 66.1667,99.5 99.5,99.5C 166.167,99.5 232.833,99.5 299.5,99.5C 299.5,116.167 299.5,132.833 299.5,149.5C 199.5,149.5 99.5,149.5 -0.5,149.5C -0.5,132.833 -0.5,116.167 -0.5,99.5 Z"/></g>
<g><path style="opacity:1" fill="#ecedec" d="M -0.5,149.5 C 99.5,149.5 199.5,149.5 299.5,149.5C 299.5,161.833 299.5,174.167 299.5,186.5C 296.833,192.5 292.5,196.833 286.5,199.5C 195.167,199.5 103.833,199.5 12.5,199.5C 6.5,196.833 2.16667,192.5 -0.5,186.5C -0.5,174.167 -0.5,161.833 -0.5,149.5 Z"/></g>
</svg>
