<?xml version="1.0" encoding="UTF-8"?>
<!DOCTYPE svg PUBLIC "-//W3C//DTD SVG 1.1//EN" "http://www.w3.org/Graphics/SVG/1.1/DTD/svg11.dtd">
<svg xmlns="http://www.w3.org/2000/svg" version="1.1" width="300px" height="200px" style="shape-rendering:geometricPrecision; text-rendering:geometricPrecision; image-rendering:optimizeQuality; fill-rule:evenodd; clip-rule:evenodd" xmlns:xlink="http://www.w3.org/1999/xlink">
<g><path style="opacity:1" fill="#01963e" d="M 12.5,-0.5 C 103.833,-0.5 195.167,-0.5 286.5,-0.5C 292.5,2.16667 296.833,6.5 299.5,12.5C 299.5,70.5 299.5,128.5 299.5,186.5C 296.833,192.5 292.5,196.833 286.5,199.5C 195.167,199.5 103.833,199.5 12.5,199.5C 6.5,196.833 2.16667,192.5 -0.5,186.5C -0.5,128.5 -0.5,70.5 -0.5,12.5C 2.16667,6.5 6.5,2.16667 12.5,-0.5 Z"/></g>
<g><path style="opacity:1" fill="#f8cd3e" d="M 146.5,20.5 C 148.527,20.3379 150.527,20.5045 152.5,21C 193.333,46.584 234.333,71.9173 275.5,97C 276.833,98.6667 276.833,100.333 275.5,102C 233.84,128.181 191.84,153.681 149.5,178.5C 107.16,153.681 65.1597,128.181 23.5,102C 22.1667,100.333 22.1667,98.6667 23.5,97C 64.8999,71.9759 105.9,46.4759 146.5,20.5 Z"/></g>
<g><path style="opacity:1" fill="#223370" d="M 198.5,104.5 C 178.866,87.3644 155.866,77.8644 129.5,76C 121.314,75.8003 113.314,75.6336 105.5,75.5C 118.572,54.0719 137.572,45.9052 162.5,51C 188.04,59.9922 200.04,77.8256 198.5,104.5 Z"/></g>
<g><path style="opacity:1" fill="#e8e8e7" d="M 105.5,75.5 C 113.314,75.6336 121.314,75.8003 129.5,76C 155.866,77.8644 178.866,87.3644 198.5,104.5C 198.749,108.458 198.082,112.124 196.5,115.5C 168.925,91.5999 136.925,82.2666 100.5,87.5C 101.401,83.115 103.068,79.115 105.5,75.5 Z"/></g>
<g><path style="opacity:1" fill="#203270" d="M 196.5,115.5 C 185.051,142.562 164.718,153.396 135.5,148C 107.983,137.145 96.3159,116.978 100.5,87.5C 136.925,82.2666 168.925,91.5999 196.5,115.5 Z"/></g>
</svg>
