<?xml version="1.0" encoding="UTF-8"?>
<!DOCTYPE svg PUBLIC "-//W3C//DTD SVG 1.1//EN" "http://www.w3.org/Graphics/SVG/1.1/DTD/svg11.dtd">
<svg xmlns="http://www.w3.org/2000/svg" version="1.1" width="300px" height="200px" style="shape-rendering:geometricPrecision; text-rendering:geometricPrecision; image-rendering:optimizeQuality; fill-rule:evenodd; clip-rule:evenodd" xmlns:xlink="http://www.w3.org/1999/xlink">
<g><path style="opacity:1" fill="#01963e" d="M 12.5,-0.5 C 103.833,-0.5 195.167,-0.5 286.5,-0.5C 292.525,2.19213 296.859,6.52546 299.5,12.5C 299.5,70.5 299.5,128.5 299.5,186.5C 296.859,192.475 292.525,196.808 286.5,199.5C 195.167,199.5 103.833,199.5 12.5,199.5C 6.41602,196.418 2.08269,191.751 -0.5,185.5C -0.5,128.167 -0.5,70.8333 -0.5,13.5C 2.08269,7.24914 6.41602,2.58247 12.5,-0.5 Z"/></g>
<g><path style="opacity:1" fill="#f9cd3e" d="M 147.5,20.5 C 152.9,21.5279 157.9,23.6946 162.5,27C 199.569,50.3965 236.902,73.3965 274.5,96C 275.687,97.0195 276.687,98.1861 277.5,99.5C 274.233,102.806 270.567,105.639 266.5,108C 227.854,131.902 189.021,155.402 150,178.5C 147.679,178.091 145.513,177.257 143.5,176C 104.667,151.749 65.6672,127.749 26.5,104C 21.1667,101 21.1667,98 26.5,95C 67.2318,70.6429 107.565,45.8096 147.5,20.5 Z"/></g>
<g><path style="opacity:1" fill="#ececea" d="M 140.5,49.5 C 162.775,47.3918 180.275,55.3918 193,73.5C 204.344,96.9377 201.178,118.104 183.5,137C 162.28,152.864 140.613,153.531 118.5,139C 96.5693,117.803 93.7359,94.3033 110,68.5C 118.107,58.7045 128.274,52.3712 140.5,49.5 Z"/></g>
<g><path style="opacity:1" fill="#b79a57" d="M 139.5,57.5 C 148.552,57.1929 157.552,57.6929 166.5,59C 167.748,62.1176 167.414,65.1176 165.5,68C 155.167,68.6667 144.833,68.6667 134.5,68C 130.543,61.4059 132.21,57.9059 139.5,57.5 Z"/></g>
<g><path style="opacity:1" fill="#109843" d="M 137.5,71.5 C 148.961,70.911 160.294,71.7443 171.5,74C 174.358,77.3579 177.025,80.8579 179.5,84.5C 176.542,86.7893 174.875,89.7893 174.5,93.5C 175.498,98.326 176.998,102.993 179,107.5C 179.667,111.167 179.667,114.833 179,118.5C 177.167,121.667 174.667,124.167 171.5,126C 164.071,129.795 156.905,133.962 150,138.5C 143.095,133.962 135.929,129.795 128.5,126C 125.333,124.167 122.833,121.667 121,118.5C 120.333,114.833 120.333,111.167 121,107.5C 123.002,102.993 124.502,98.326 125.5,93.5C 125.125,89.7893 123.458,86.7893 120.5,84.5C 122.975,80.8579 125.642,77.3579 128.5,74C 131.579,73.0272 134.579,72.1939 137.5,71.5 Z"/></g>
<g><path style="opacity:1" fill="#e3e8e5" d="M 144.5,81.5 C 154.615,79.9719 161.448,83.9719 165,93.5C 167.572,103.886 165.072,112.719 157.5,120C 145.408,124.299 137.574,120.132 134,107.5C 131.753,96.3901 135.253,87.7234 144.5,81.5 Z"/></g>
<g><path style="opacity:1" fill="#e0e8e3" d="M 128.5,82.5 C 129.833,82.5 131.167,82.5 132.5,82.5C 132.778,84.3464 132.111,85.6798 130.5,86.5C 128.889,85.6798 128.222,84.3464 128.5,82.5 Z"/></g>
<g><path style="opacity:1" fill="#87c9c7" d="M 159.5,91.5 C 158.5,91.5 157.5,91.5 156.5,91.5C 154.246,91.7228 151.912,92.0561 149.5,92.5C 151.015,94.1678 152.682,95.5011 154.5,96.5C 150.849,96.1617 149.183,97.8284 149.5,101.5C 149.167,101.5 148.833,101.5 148.5,101.5C 148.912,99.0274 147.912,97.6941 145.5,97.5C 145.5,96.1667 145.5,94.8333 145.5,93.5C 142.5,93.1667 141.167,94.5 141.5,97.5C 139.738,98.2623 138.738,99.5956 138.5,101.5C 138.167,101.5 137.833,101.5 137.5,101.5C 137.29,92.5791 141.456,86.9125 150,84.5C 154.161,85.4958 157.328,87.8291 159.5,91.5 Z"/></g>
<g><path style="opacity:1" fill="#dee7e5" d="M 156.5,91.5 C 156.808,93.924 156.474,96.2573 155.5,98.5C 154.702,98.0431 154.369,97.3764 154.5,96.5C 152.682,95.5011 151.015,94.1678 149.5,92.5C 151.912,92.0561 154.246,91.7228 156.5,91.5 Z"/></g>
<g><path style="opacity:1" fill="#169a49" d="M 156.5,91.5 C 157.5,91.5 158.5,91.5 159.5,91.5C 161.68,94.6606 162.347,97.9939 161.5,101.5C 157.5,101.5 153.5,101.5 149.5,101.5C 149.183,97.8284 150.849,96.1617 154.5,96.5C 154.369,97.3764 154.702,98.0431 155.5,98.5C 156.474,96.2573 156.808,93.924 156.5,91.5 Z"/></g>
<g><path style="opacity:1" fill="#d8e5de" d="M 127.5,93.5 C 128.833,93.5 130.167,93.5 131.5,93.5C 131.5,94.8333 131.5,96.1667 131.5,97.5C 128.5,97.8333 127.167,96.5 127.5,93.5 Z"/></g>
<g><path style="opacity:1" fill="#ebecec" d="M 145.5,97.5 C 145.5,98.8333 145.5,100.167 145.5,101.5C 144.167,101.5 142.833,101.5 141.5,101.5C 141.5,100.167 141.5,98.8333 141.5,97.5C 141.167,94.5 142.5,93.1667 145.5,93.5C 145.5,94.8333 145.5,96.1667 145.5,97.5 Z"/></g>
<g><path style="opacity:1" fill="#f6d443" d="M 141.5,97.5 C 141.5,98.8333 141.5,100.167 141.5,101.5C 140.5,101.5 139.5,101.5 138.5,101.5C 138.738,99.5956 139.738,98.2623 141.5,97.5 Z"/></g>
<g><path style="opacity:1" fill="#f4d453" d="M 145.5,97.5 C 147.912,97.6941 148.912,99.0274 148.5,101.5C 147.5,101.5 146.5,101.5 145.5,101.5C 145.5,100.167 145.5,98.8333 145.5,97.5 Z"/></g>
<g><path style="opacity:1" fill="#d79a70" d="M 149.5,101.5 C 153.5,101.5 157.5,101.5 161.5,101.5C 161.971,108.558 159.305,113.891 153.5,117.5C 151.145,112.433 149.812,107.099 149.5,101.5 Z"/></g>
<g><path style="opacity:1" fill="#5ca6a9" d="M 137.5,101.5 C 137.833,101.5 138.167,101.5 138.5,101.5C 139.5,101.5 140.5,101.5 141.5,101.5C 142.833,101.5 144.167,101.5 145.5,101.5C 146.5,101.5 147.5,101.5 148.5,101.5C 148.833,101.5 149.167,101.5 149.5,101.5C 149.812,107.099 151.145,112.433 153.5,117.5C 146.788,119.396 141.955,117.063 139,110.5C 137.851,107.607 137.351,104.607 137.5,101.5 Z"/></g>
<g><path style="opacity:1" fill="#7b5f4c" d="M 153.5,103.5 C 155.467,103.261 157.301,103.594 159,104.5C 159.431,107.93 158.431,110.93 156,113.5C 155.74,111.382 154.74,109.716 153,108.5C 152.36,106.735 152.527,105.068 153.5,103.5 Z"/></g>
<g><path style="opacity:1" fill="#e5e8e8" d="M 142.5,103.5 C 148.314,105.392 148.647,107.725 143.5,110.5C 142.526,108.257 142.192,105.924 142.5,103.5 Z"/></g>
<g><path style="opacity:1" fill="#d3e4d9" d="M 126.5,104.5 C 128.912,104.694 129.912,106.027 129.5,108.5C 128.167,108.5 126.833,108.5 125.5,108.5C 125.433,107.041 125.766,105.708 126.5,104.5 Z"/></g>
<g><path style="opacity:1" fill="#d8e6dd" d="M 129.5,115.5 C 131.912,115.694 132.912,117.027 132.5,119.5C 131.167,119.5 129.833,119.5 128.5,119.5C 128.433,118.041 128.766,116.708 129.5,115.5 Z"/></g>
<g><path style="opacity:1" fill="#d5e4db" d="M 138.5,123.5 C 139.5,123.5 140.5,123.5 141.5,123.5C 141.5,124.833 141.5,126.167 141.5,127.5C 138.046,127.733 137.046,126.4 138.5,123.5 Z"/></g>
<g><path style="opacity:1" fill="#dae6df" d="M 157.5,123.5 C 158.833,123.5 160.167,123.5 161.5,123.5C 161.778,125.346 161.111,126.68 159.5,127.5C 157.889,126.68 157.222,125.346 157.5,123.5 Z"/></g>
<g><path style="opacity:1" fill="#d9e6de" d="M 148.5,128.5 C 149.5,128.5 150.5,128.5 151.5,128.5C 151.5,129.833 151.5,131.167 151.5,132.5C 148.046,132.733 147.046,131.4 148.5,128.5 Z"/></g>
</svg>
