<?xml version="1.0" encoding="UTF-8"?>
<!DOCTYPE svg PUBLIC "-//W3C//DTD SVG 1.1//EN" "http://www.w3.org/Graphics/SVG/1.1/DTD/svg11.dtd">
<svg xmlns="http://www.w3.org/2000/svg" version="1.1" width="300px" height="200px" style="shape-rendering:geometricPrecision; text-rendering:geometricPrecision; image-rendering:optimizeQuality; fill-rule:evenodd; clip-rule:evenodd" xmlns:xlink="http://www.w3.org/1999/xlink">
<g><path style="opacity:1" fill="#ececec" d="M 12.5,-0.5 C 103.833,-0.5 195.167,-0.5 286.5,-0.5C 292.5,2.16667 296.833,6.5 299.5,12.5C 299.5,70.5 299.5,128.5 299.5,186.5C 296.833,192.5 292.5,196.833 286.5,199.5C 195.167,199.5 103.833,199.5 12.5,199.5C 6.5,196.833 2.16667,192.5 -0.5,186.5C -0.5,128.5 -0.5,70.5 -0.5,12.5C 2.16667,6.5 6.5,2.16667 12.5,-0.5 Z"/></g>
<g><path style="opacity:1" fill="#03963e" d="M 105.5,49.5 C 134.835,49.3334 164.169,49.5 193.5,50C 195.286,50.7845 196.786,51.9512 198,53.5C 199.651,83.414 199.984,113.414 199,143.5C 198.215,145.286 197.049,146.786 195.5,148C 165.586,149.651 135.586,149.984 105.5,149C 103.714,148.215 102.214,147.049 101,145.5C 99.3495,115.586 99.0161,85.586 100,55.5C 101.36,52.9774 103.193,50.9774 105.5,49.5 Z"/></g>
<g><path style="opacity:1" fill="#f8cd3e" d="M 147.5,51.5 C 152.567,52.7124 156.4,55.7124 159,60.5C 159.667,69.8333 159.667,79.1667 159,88.5C 156.477,85.1231 153.31,82.7898 149.5,81.5C 145.69,82.7898 142.523,85.1231 140,88.5C 139.333,79.1667 139.333,69.8333 140,60.5C 142.335,57.3347 144.835,54.3347 147.5,51.5 Z"/></g>
<g><path style="opacity:1" fill="#f8cd3e" d="M 110.5,89.5 C 119.839,89.3335 129.173,89.5002 138.5,90C 135.123,92.5229 132.79,95.6896 131.5,99.5C 132.79,103.31 135.123,106.477 138.5,109C 128.4,109.949 118.4,109.615 108.5,108C 105.568,105.577 103.235,102.743 101.5,99.5C 103.809,95.5256 106.809,92.1923 110.5,89.5 Z"/></g>
<g><path style="opacity:1" fill="#f8cd3e" d="M 160.5,90.5 C 169.657,89.3424 178.991,89.1757 188.5,90C 193.438,92.5607 196.271,96.3941 197,101.5C 194.463,104.372 191.63,106.872 188.5,109C 179.167,109.667 169.833,109.667 160.5,109C 169.811,102.699 169.811,96.5323 160.5,90.5 Z"/></g>
<g><path style="opacity:1" fill="#f8cd3e" d="M 139.5,110.5 C 141.963,112.461 144.297,114.628 146.5,117C 148.5,117.667 150.5,117.667 152.5,117C 154.667,114.833 156.833,112.667 159,110.5C 159.667,119.833 159.667,129.167 159,138.5C 156.439,143.438 152.606,146.271 147.5,147C 144.628,144.463 142.128,141.63 140,138.5C 139.5,129.173 139.334,119.839 139.5,110.5 Z"/></g>
</svg>
