<?xml version="1.0" encoding="UTF-8"?>
<!DOCTYPE svg PUBLIC "-//W3C//DTD SVG 1.1//EN" "http://www.w3.org/Graphics/SVG/1.1/DTD/svg11.dtd">
<svg xmlns="http://www.w3.org/2000/svg" version="1.1" width="300px" height="200px" style="shape-rendering:geometricPrecision; text-rendering:geometricPrecision; image-rendering:optimizeQuality; fill-rule:evenodd; clip-rule:evenodd" xmlns:xlink="http://www.w3.org/1999/xlink">
<g><path style="opacity:1" fill="#089cc8" d="M 12.5,-0.5 C 103.833,-0.5 195.167,-0.5 286.5,-0.5C 292.5,2.16667 296.833,6.5 299.5,12.5C 299.5,30.5 299.5,48.5 299.5,66.5C 199.5,66.5 99.5,66.5 -0.5,66.5C -0.5,48.5 -0.5,30.5 -0.5,12.5C 2.16667,6.5 6.5,2.16667 12.5,-0.5 Z"/></g>
<g><path style="opacity:1" fill="#ecebec" d="M -0.5,66.5 C 99.5,66.5 199.5,66.5 299.5,66.5C 299.5,88.8333 299.5,111.167 299.5,133.5C 199.5,133.5 99.5,133.5 -0.5,133.5C -0.5,111.167 -0.5,88.8333 -0.5,66.5 Z"/></g>
<g><path style="opacity:1" fill="#28a4cc" d="M 143.5,82.5 C 144.978,82.238 146.311,82.5713 147.5,83.5C 149.167,86.8333 150.833,90.1667 152.5,93.5C 152.167,94.5 151.5,95.1667 150.5,95.5C 149.326,93.766 147.66,92.766 145.5,92.5C 143.319,93.8709 140.986,94.8709 138.5,95.5C 139.885,91.062 141.552,86.7287 143.5,82.5 Z"/></g>
<g><path style="opacity:1" fill="#29a4cc" d="M 161.5,82.5 C 164.187,82.3359 166.854,82.5026 169.5,83C 169.957,83.414 170.291,83.914 170.5,84.5C 168.5,85.1667 166.5,85.8333 164.5,86.5C 171.362,88.9398 171.029,90.6065 163.5,91.5C 165.851,92.0118 167.851,93.0118 169.5,94.5C 166.572,95.4841 163.572,95.8174 160.5,95.5C 160.231,91.0685 160.564,86.7352 161.5,82.5 Z"/></g>
<g><path style="opacity:1" fill="#26a3cb" d="M 132.5,82.5 C 133.822,82.33 134.989,82.6634 136,83.5C 136.499,87.4862 136.666,91.4862 136.5,95.5C 135.5,95.5 134.5,95.5 133.5,95.5C 134.263,91.5911 132.93,90.2578 129.5,91.5C 128.756,92.9905 128.09,94.4905 127.5,96C 126.551,96.6172 125.718,96.4506 125,95.5C 124.501,91.5138 124.334,87.5138 124.5,83.5C 126.822,85.4116 129.488,86.745 132.5,87.5C 132.5,85.8333 132.5,84.1667 132.5,82.5 Z"/></g>
<g><path style="opacity:1" fill="#27a2cb" d="M 112.5,84.5 C 114.124,84.3601 115.29,85.0267 116,86.5C 116.497,89.146 116.664,91.8127 116.5,94.5C 118.604,94.2011 120.604,94.5344 122.5,95.5C 122.333,95.8333 122.167,96.1667 122,96.5C 119.281,97.4438 116.448,97.7771 113.5,97.5C 113.073,93.1756 112.739,88.8422 112.5,84.5 Z"/></g>
<g><path style="opacity:1" fill="#34a7cd" d="M 182.5,84.5 C 185.798,84.0162 188.464,85.0162 190.5,87.5C 190.167,88.5 189.5,89.1667 188.5,89.5C 183.554,87.4391 181.554,89.1057 182.5,94.5C 184.5,94.5 186.5,94.5 188.5,94.5C 188.923,97.2431 187.756,98.5765 185,98.5C 179.124,97.0884 177.124,93.4217 179,87.5C 180.145,86.3636 181.312,85.3636 182.5,84.5 Z"/></g>
<g><path style="opacity:1" fill="#29a4cc" d="M 101.5,86.5 C 103.39,86.2965 104.89,86.9632 106,88.5C 108.639,91.4495 110.473,94.7829 111.5,98.5C 109.4,98.5228 107.567,97.8561 106,96.5C 103.657,98.2742 101.157,99.6075 98.5,100.5C 98.8692,95.6909 99.8692,91.0243 101.5,86.5 Z"/></g>
<g><path style="opacity:1" fill="#2da4cc" d="M 195.5,86.5 C 202.193,86.6853 205.026,90.0186 204,96.5C 200.399,101.321 196.399,101.654 192,97.5C 190.663,92.8721 191.83,89.2054 195.5,86.5 Z"/></g>
<g><path style="opacity:1" fill="#d8e6e9" d="M 144.5,87.5 C 146.337,87.6395 146.67,88.3061 145.5,89.5C 144.702,89.0431 144.369,88.3764 144.5,87.5 Z"/></g>
<g><path style="opacity:1" fill="#2ca4cc" d="M 87.5,89.5 C 89.604,89.2011 91.604,89.5344 93.5,90.5C 94.2007,93.3213 95.2007,95.988 96.5,98.5C 96.4712,100.029 95.8045,101.196 94.5,102C 91.8056,103.19 89.1389,103.356 86.5,102.5C 85.2689,99.4095 84.2689,96.2428 83.5,93C 84.3471,91.2294 85.6805,90.0627 87.5,89.5 Z"/></g>
<g><path style="opacity:1" fill="#e9ebec" d="M 196.5,90.5 C 200.35,90.7007 201.35,92.5341 199.5,96C 198.207,96.49 196.873,96.6567 195.5,96.5C 195.325,94.3792 195.659,92.3792 196.5,90.5 Z"/></g>
<g><path style="opacity:1" fill="#2aa4cc" d="M 208.5,89.5 C 209.675,89.281 210.675,89.6143 211.5,90.5C 212.577,92.9123 213.744,95.2457 215,97.5C 214.734,94.0992 216.234,92.4326 219.5,92.5C 218.888,96.45 217.888,100.283 216.5,104C 215.365,104.749 214.365,104.583 213.5,103.5C 212.752,101.668 211.752,100.001 210.5,98.5C 209.996,101.342 208.329,102.675 205.5,102.5C 206.029,98.0513 207.029,93.718 208.5,89.5 Z"/></g>
<g><path style="opacity:1" fill="#c8dfe7" d="M 89.5,92.5 C 90.3764,92.3691 91.0431,92.7025 91.5,93.5C 90.2954,95.1376 88.9621,95.4709 87.5,94.5C 88.2427,93.8182 88.9094,93.1515 89.5,92.5 Z"/></g>
<g><path style="opacity:1" fill="#a7d5e2" d="M 103.5,91.5 C 105.625,92.3676 105.791,93.3676 104,94.5C 102.317,93.8235 102.15,92.8235 103.5,91.5 Z"/></g>
<g><path style="opacity:1" fill="#2da4cc" d="M 73.5,94.5 C 77.9925,96.3102 81.6592,99.3102 84.5,103.5C 83.1117,106.079 81.6117,106.079 80,103.5C 78.6439,104.38 77.1439,104.714 75.5,104.5C 75.8244,107.694 74.6578,108.694 72,107.5C 71.4257,103.023 71.9257,98.69 73.5,94.5 Z"/></g>
<g><path style="opacity:1" fill="#34a6cd" d="M 222.5,94.5 C 225.85,94.5056 228.85,95.5056 231.5,97.5C 231.167,98.5 230.5,99.1667 229.5,99.5C 228.232,98.5721 226.899,98.4054 225.5,99C 230.923,102.145 230.256,103.978 223.5,104.5C 222.048,108.43 220.715,108.43 219.5,104.5C 220.506,101.149 221.506,97.8156 222.5,94.5 Z"/></g>
<g><path style="opacity:1" fill="#e6ebec" d="M 90.5,97.5 C 92.9337,98.354 92.767,99.354 90,100.5C 89.5304,99.4232 89.6971,98.4232 90.5,97.5 Z"/></g>
<g><path style="opacity:1" fill="#27a3cb" d="M 60.5,98.5 C 66.6624,97.1555 68.6624,99.3222 66.5,105C 70.3017,106.176 70.9684,108.009 68.5,110.5C 66.7597,108.789 64.7597,107.956 62.5,108C 63.3802,109.356 63.7135,110.856 63.5,112.5C 62.1779,112.67 61.0113,112.337 60,111.5C 58.7337,108.534 57.5671,105.534 56.5,102.5C 57.437,100.712 58.7703,99.3786 60.5,98.5 Z"/></g>
<g><path style="opacity:1" fill="#34a6cd" d="M 233.5,98.5 C 234.833,98.5 236.167,98.5 237.5,98.5C 236.458,102.915 234.624,106.915 232,110.5C 230.72,110.387 229.887,109.72 229.5,108.5C 231.036,105.222 232.369,101.889 233.5,98.5 Z"/></g>
<g><path style="opacity:1" fill="#d3e4e8" d="M 75.5,98.5 C 77.332,99.1405 77.6653,100.14 76.5,101.5C 75.6143,100.675 75.281,99.675 75.5,98.5 Z"/></g>
<g><path style="opacity:1" fill="#dee7eb" d="M 61.5,101.5 C 63.3547,101.272 64.1881,101.939 64,103.5C 61.3655,104.692 60.5322,104.026 61.5,101.5 Z"/></g>
<g><path style="opacity:1" fill="#1aa0ca" d="M 243.5,102.5 C 244.833,102.5 246.167,102.5 247.5,102.5C 247.5,107.167 247.5,111.833 247.5,116.5C 246.5,116.5 245.5,116.5 244.5,116.5C 244.863,114.089 243.863,112.589 241.5,112C 239.512,111.82 237.512,111.986 235.5,112.5C 235.351,111.448 235.517,110.448 236,109.5C 238.998,107.667 241.498,105.334 243.5,102.5 Z"/></g>
<g><path style="opacity:1" fill="#26a3cb" d="M 51.5,102.5 C 55.1722,103.466 55.1722,104.966 51.5,107C 53.4035,109.877 54.4035,113.044 54.5,116.5C 53.325,116.719 52.325,116.386 51.5,115.5C 50.4196,113.004 49.0862,110.67 47.5,108.5C 46.2638,109.246 44.9305,109.579 43.5,109.5C 43.281,108.325 43.6143,107.325 44.5,106.5C 47.0591,105.392 49.3924,104.059 51.5,102.5 Z"/></g>
<g><path style="opacity:1" fill="#dae6eb" d="M 243.5,106.5 C 244.776,107.386 244.776,108.386 243.5,109.5C 242.438,108.575 242.438,107.575 243.5,106.5 Z"/></g>
<g><path style="opacity:1" fill="#e65788" d="M -0.5,133.5 C 99.5,133.5 199.5,133.5 299.5,133.5C 299.5,151.167 299.5,168.833 299.5,186.5C 296.833,192.5 292.5,196.833 286.5,199.5C 195.167,199.5 103.833,199.5 12.5,199.5C 6.5,196.833 2.16667,192.5 -0.5,186.5C -0.5,168.833 -0.5,151.167 -0.5,133.5 Z"/></g>
</svg>
