<?xml version="1.0" encoding="UTF-8"?>
<!DOCTYPE svg PUBLIC "-//W3C//DTD SVG 1.1//EN" "http://www.w3.org/Graphics/SVG/1.1/DTD/svg11.dtd">
<svg xmlns="http://www.w3.org/2000/svg" version="1.1" width="300px" height="200px" style="shape-rendering:geometricPrecision; text-rendering:geometricPrecision; image-rendering:optimizeQuality; fill-rule:evenodd; clip-rule:evenodd" xmlns:xlink="http://www.w3.org/1999/xlink">
<g><path style="opacity:1" fill="#1f3270" d="M 12.5,-0.5 C 41.5,-0.5 70.5,-0.5 99.5,-0.5C 99.5,6.16667 99.5,12.8333 99.5,19.5C 99.5,26.1667 99.5,32.8333 99.5,39.5C 99.5,46.1667 99.5,52.8333 99.5,59.5C 99.5,66.1667 99.5,72.8333 99.5,79.5C 99.5,86.1667 99.5,92.8333 99.5,99.5C 66.1667,99.5 32.8333,99.5 -0.5,99.5C -0.5,70.5 -0.5,41.5 -0.5,12.5C 2.16667,6.5 6.5,2.16667 12.5,-0.5 Z"/></g>
<g><path style="opacity:1" fill="#00963d" d="M 99.5,-0.5 C 161.833,-0.5 224.167,-0.5 286.5,-0.5C 292.5,2.16667 296.833,6.5 299.5,12.5C 299.5,14.8333 299.5,17.1667 299.5,19.5C 232.833,19.5 166.167,19.5 99.5,19.5C 99.5,12.8333 99.5,6.16667 99.5,-0.5 Z"/></g>
<g><path style="opacity:1" fill="#dcdde2" d="M 28.5,17.5 C 29.3764,17.3691 30.0431,17.7025 30.5,18.5C 31.1667,20.1667 31.8333,21.8333 32.5,23.5C 35.4281,24.4841 38.4281,24.8174 41.5,24.5C 41.719,25.675 41.3857,26.675 40.5,27.5C 35.0059,29.8009 34.0059,33.4675 37.5,38.5C 37,38.8333 36.5,39.1667 36,39.5C 33.9758,37.9841 31.8091,36.6508 29.5,35.5C 27.4835,36.1743 25.8168,37.3409 24.5,39C 23.365,39.7494 22.365,39.5827 21.5,38.5C 24.9941,33.4675 23.9941,29.8009 18.5,27.5C 17.6143,26.675 17.281,25.675 17.5,24.5C 23.9236,25.9867 27.5902,23.6534 28.5,17.5 Z"/></g>
<g><path style="opacity:1" fill="#dcdde2" d="M 68.5,17.5 C 69.3764,17.3691 70.0431,17.7025 70.5,18.5C 71.1667,20.1667 71.8333,21.8333 72.5,23.5C 75.4281,24.4841 78.4281,24.8174 81.5,24.5C 81.719,25.675 81.3857,26.675 80.5,27.5C 75.0059,29.8009 74.0059,33.4675 77.5,38.5C 77,38.8333 76.5,39.1667 76,39.5C 73.9758,37.9841 71.8091,36.6508 69.5,35.5C 67.4835,36.1743 65.8168,37.3409 64.5,39C 63.365,39.7494 62.365,39.5827 61.5,38.5C 64.9941,33.4675 63.9941,29.8009 58.5,27.5C 57.6143,26.675 57.281,25.675 57.5,24.5C 63.9236,25.9867 67.5902,23.6534 68.5,17.5 Z"/></g>
<g><path style="opacity:1" fill="#f9ce3d" d="M 99.5,19.5 C 166.167,19.5 232.833,19.5 299.5,19.5C 299.5,26.1667 299.5,32.8333 299.5,39.5C 232.833,39.5 166.167,39.5 99.5,39.5C 99.5,32.8333 99.5,26.1667 99.5,19.5 Z"/></g>
<g><path style="opacity:1" fill="#dcdde2" d="M 48.5,37.5 C 49.3764,37.3691 50.0431,37.7025 50.5,38.5C 51.1667,40.1667 51.8333,41.8333 52.5,43.5C 55.4281,44.4841 58.4281,44.8174 61.5,44.5C 61.719,45.675 61.3857,46.675 60.5,47.5C 55.0059,49.8009 54.0059,53.4675 57.5,58.5C 57,58.8333 56.5,59.1667 56,59.5C 53.9758,57.9841 51.8091,56.6508 49.5,55.5C 47.4835,56.1743 45.8168,57.3409 44.5,59C 43.365,59.7494 42.365,59.5827 41.5,58.5C 44.9941,53.4675 43.9941,49.8009 38.5,47.5C 37.6143,46.675 37.281,45.675 37.5,44.5C 43.9236,45.9867 47.5902,43.6534 48.5,37.5 Z"/></g>
<g><path style="opacity:1" fill="#00963d" d="M 99.5,39.5 C 166.167,39.5 232.833,39.5 299.5,39.5C 299.5,46.1667 299.5,52.8333 299.5,59.5C 232.833,59.5 166.167,59.5 99.5,59.5C 99.5,52.8333 99.5,46.1667 99.5,39.5 Z"/></g>
<g><path style="opacity:1" fill="#dcdde2" d="M 28.5,57.5 C 29.3764,57.3691 30.0431,57.7025 30.5,58.5C 31.1667,60.1667 31.8333,61.8333 32.5,63.5C 35.4281,64.4841 38.4281,64.8174 41.5,64.5C 41.719,65.675 41.3857,66.675 40.5,67.5C 35.0059,69.8009 34.0059,73.4675 37.5,78.5C 37,78.8333 36.5,79.1667 36,79.5C 33.9758,77.9841 31.8091,76.6508 29.5,75.5C 27.4835,76.1743 25.8168,77.3409 24.5,79C 23.365,79.7494 22.365,79.5827 21.5,78.5C 24.9941,73.4675 23.9941,69.8009 18.5,67.5C 17.6143,66.675 17.281,65.675 17.5,64.5C 23.9236,65.9867 27.5902,63.6534 28.5,57.5 Z"/></g>
<g><path style="opacity:1" fill="#dcdde2" d="M 68.5,57.5 C 69.3764,57.3691 70.0431,57.7025 70.5,58.5C 71.1667,60.1667 71.8333,61.8333 72.5,63.5C 75.4281,64.4841 78.4281,64.8174 81.5,64.5C 81.719,65.675 81.3857,66.675 80.5,67.5C 75.0059,69.8009 74.0059,73.4675 77.5,78.5C 77,78.8333 76.5,79.1667 76,79.5C 73.9758,77.9841 71.8091,76.6508 69.5,75.5C 67.4835,76.1743 65.8168,77.3409 64.5,79C 63.365,79.7494 62.365,79.5827 61.5,78.5C 64.9941,73.4675 63.9941,69.8009 58.5,67.5C 57.6143,66.675 57.281,65.675 57.5,64.5C 63.9236,65.9867 67.5902,63.6534 68.5,57.5 Z"/></g>
<g><path style="opacity:1" fill="#f9ce3d" d="M 99.5,59.5 C 166.167,59.5 232.833,59.5 299.5,59.5C 299.5,66.1667 299.5,72.8333 299.5,79.5C 232.833,79.5 166.167,79.5 99.5,79.5C 99.5,72.8333 99.5,66.1667 99.5,59.5 Z"/></g>
<g><path style="opacity:1" fill="#00963d" d="M 99.5,79.5 C 166.167,79.5 232.833,79.5 299.5,79.5C 299.5,86.1667 299.5,92.8333 299.5,99.5C 232.833,99.5 166.167,99.5 99.5,99.5C 99.5,92.8333 99.5,86.1667 99.5,79.5 Z"/></g>
<g><path style="opacity:1" fill="#f9ce3d" d="M -0.5,99.5 C 32.8333,99.5 66.1667,99.5 99.5,99.5C 166.167,99.5 232.833,99.5 299.5,99.5C 299.5,106.167 299.5,112.833 299.5,119.5C 199.5,119.5 99.5,119.5 -0.5,119.5C -0.5,112.833 -0.5,106.167 -0.5,99.5 Z"/></g>
<g><path style="opacity:1" fill="#00963d" d="M -0.5,119.5 C 99.5,119.5 199.5,119.5 299.5,119.5C 299.5,126.167 299.5,132.833 299.5,139.5C 199.5,139.5 99.5,139.5 -0.5,139.5C -0.5,132.833 -0.5,126.167 -0.5,119.5 Z"/></g>
<g><path style="opacity:1" fill="#f9ce3d" d="M -0.5,139.5 C 99.5,139.5 199.5,139.5 299.5,139.5C 299.5,146.167 299.5,152.833 299.5,159.5C 199.5,159.5 99.5,159.5 -0.5,159.5C -0.5,152.833 -0.5,146.167 -0.5,139.5 Z"/></g>
<g><path style="opacity:1" fill="#00963d" d="M -0.5,159.5 C 99.5,159.5 199.5,159.5 299.5,159.5C 299.5,166.167 299.5,172.833 299.5,179.5C 199.5,179.5 99.5,179.5 -0.5,179.5C -0.5,172.833 -0.5,166.167 -0.5,159.5 Z"/></g>
<g><path style="opacity:1" fill="#f9ce3d" d="M -0.5,179.5 C 99.5,179.5 199.5,179.5 299.5,179.5C 299.5,181.833 299.5,184.167 299.5,186.5C 296.833,192.5 292.5,196.833 286.5,199.5C 195.167,199.5 103.833,199.5 12.5,199.5C 6.5,196.833 2.16667,192.5 -0.5,186.5C -0.5,184.167 -0.5,181.833 -0.5,179.5 Z"/></g>
</svg>
