<?xml version="1.0" encoding="UTF-8"?>
<!DOCTYPE svg PUBLIC "-//W3C//DTD SVG 1.1//EN" "http://www.w3.org/Graphics/SVG/1.1/DTD/svg11.dtd">
<svg xmlns="http://www.w3.org/2000/svg" version="1.1" width="300px" height="200px" style="shape-rendering:geometricPrecision; text-rendering:geometricPrecision; image-rendering:optimizeQuality; fill-rule:evenodd; clip-rule:evenodd" xmlns:xlink="http://www.w3.org/1999/xlink">
<g><path style="opacity:1" fill="#1f3270" d="M 12.5,-0.5 C 41.5,-0.5 70.5,-0.5 99.5,-0.5C 99.5,6.83333 99.5,14.1667 99.5,21.5C 99.5,29.1667 99.5,36.8333 99.5,44.5C 99.5,51.5 99.5,58.5 99.5,65.5C 99.5,73.1667 99.5,80.8333 99.5,88.5C 99.6646,91.5184 99.498,94.5184 99,97.5C 98.5,98 98,98.5 97.5,99C 64.835,99.5 32.1684,99.6666 -0.5,99.5C -0.5,70.5 -0.5,41.5 -0.5,12.5C 2.16667,6.5 6.5,2.16667 12.5,-0.5 Z"/></g>
<g><path style="opacity:1" fill="#d31f18" d="M 99.5,-0.5 C 161.833,-0.5 224.167,-0.5 286.5,-0.5C 292.5,2.16667 296.833,6.5 299.5,12.5C 299.5,15.5 299.5,18.5 299.5,21.5C 232.833,21.5 166.167,21.5 99.5,21.5C 99.5,14.1667 99.5,6.83333 99.5,-0.5 Z"/></g>
<g><path style="opacity:1" fill="#e5e6e8" d="M 48.5,19.5 C 50.4109,19.5743 51.5776,20.5743 52,22.5C 53.6414,27.759 55.4748,32.9257 57.5,38C 64.1667,38.3333 70.8333,38.6667 77.5,39C 77.9574,39.414 78.2907,39.914 78.5,40.5C 73.1261,45.1765 67.7928,49.8432 62.5,54.5C 64.9986,60.9889 66.6653,67.6555 67.5,74.5C 66.448,74.6495 65.448,74.4828 64.5,74C 59.8101,69.9942 54.8101,66.4942 49.5,63.5C 44.1899,66.4942 39.1899,69.9942 34.5,74C 33.552,74.4828 32.552,74.6495 31.5,74.5C 32.3347,67.6555 34.0014,60.9889 36.5,54.5C 31.2072,49.8432 25.8739,45.1765 20.5,40.5C 20.7093,39.914 21.0426,39.414 21.5,39C 28.1667,38.6667 34.8333,38.3333 41.5,38C 43.7386,31.7826 46.0719,25.6159 48.5,19.5 Z"/></g>
<g><path style="opacity:1" fill="#e9e7e7" d="M 99.5,21.5 C 166.167,21.5 232.833,21.5 299.5,21.5C 299.5,29.1667 299.5,36.8333 299.5,44.5C 232.833,44.5 166.167,44.5 99.5,44.5C 99.5,36.8333 99.5,29.1667 99.5,21.5 Z"/></g>
<g><path style="opacity:1" fill="#181918" d="M 99.5,44.5 C 166.167,44.5 232.833,44.5 299.5,44.5C 299.5,51.5 299.5,58.5 299.5,65.5C 232.833,65.5 166.167,65.5 99.5,65.5C 99.5,58.5 99.5,51.5 99.5,44.5 Z"/></g>
<g><path style="opacity:1" fill="#e9e7e6" d="M 99.5,65.5 C 166.167,65.5 232.833,65.5 299.5,65.5C 299.5,73.1667 299.5,80.8333 299.5,88.5C 232.833,88.5 166.167,88.5 99.5,88.5C 99.5,80.8333 99.5,73.1667 99.5,65.5 Z"/></g>
<g><path style="opacity:1" fill="#d31f18" d="M 99.5,88.5 C 166.167,88.5 232.833,88.5 299.5,88.5C 299.5,95.8333 299.5,103.167 299.5,110.5C 199.5,110.5 99.5,110.5 -0.5,110.5C -0.5,106.833 -0.5,103.167 -0.5,99.5C 32.1684,99.6666 64.835,99.5 97.5,99C 98,98.5 98.5,98 99,97.5C 99.498,94.5184 99.6646,91.5184 99.5,88.5 Z"/></g>
<g><path style="opacity:1" fill="#eceaea" d="M -0.5,110.5 C 99.5,110.5 199.5,110.5 299.5,110.5C 299.5,117.833 299.5,125.167 299.5,132.5C 199.5,132.5 99.5,132.5 -0.5,132.5C -0.5,125.167 -0.5,117.833 -0.5,110.5 Z"/></g>
<g><path style="opacity:1" fill="#1b1b1b" d="M -0.5,132.5 C 99.5,132.5 199.5,132.5 299.5,132.5C 299.5,140.167 299.5,147.833 299.5,155.5C 199.5,155.5 99.5,155.5 -0.5,155.5C -0.5,147.833 -0.5,140.167 -0.5,132.5 Z"/></g>
<g><path style="opacity:1" fill="#eceaea" d="M -0.5,155.5 C 99.5,155.5 199.5,155.5 299.5,155.5C 299.5,162.833 299.5,170.167 299.5,177.5C 199.5,177.5 99.5,177.5 -0.5,177.5C -0.5,170.167 -0.5,162.833 -0.5,155.5 Z"/></g>
<g><path style="opacity:1" fill="#d31f18" d="M -0.5,177.5 C 99.5,177.5 199.5,177.5 299.5,177.5C 299.5,180.5 299.5,183.5 299.5,186.5C 296.833,192.5 292.5,196.833 286.5,199.5C 195.167,199.5 103.833,199.5 12.5,199.5C 6.5,196.833 2.16667,192.5 -0.5,186.5C -0.5,183.5 -0.5,180.5 -0.5,177.5 Z"/></g>
</svg>
