<?xml version="1.0" encoding="UTF-8"?>
<!DOCTYPE svg PUBLIC "-//W3C//DTD SVG 1.1//EN" "http://www.w3.org/Graphics/SVG/1.1/DTD/svg11.dtd">
<svg xmlns="http://www.w3.org/2000/svg" version="1.1" width="300px" height="200px" style="shape-rendering:geometricPrecision; text-rendering:geometricPrecision; image-rendering:optimizeQuality; fill-rule:evenodd; clip-rule:evenodd" xmlns:xlink="http://www.w3.org/1999/xlink">
<g><path style="opacity:1" fill="#01963e" d="M 12.5,-0.5 C 58.1667,-0.5 103.833,-0.5 149.5,-0.5C 99.8333,49.8333 49.8333,99.8333 -0.5,149.5C -0.5,103.833 -0.5,58.1667 -0.5,12.5C 2.16667,6.5 6.5,2.16667 12.5,-0.5 Z"/></g>
<g><path style="opacity:1" fill="#ebecec" d="M 149.5,-0.5 C 166.167,-0.5 182.833,-0.5 199.5,-0.5C 135.118,64.8824 70.1179,129.549 4.5,193.5C 2.58793,191.343 0.921263,189.009 -0.5,186.5C -0.5,174.167 -0.5,161.833 -0.5,149.5C 49.8333,99.8333 99.8333,49.8333 149.5,-0.5 Z"/></g>
<g><path style="opacity:1" fill="#019cc7" d="M 199.5,-0.5 C 228.5,-0.5 257.5,-0.5 286.5,-0.5C 292.5,2.16667 296.833,6.5 299.5,12.5C 299.5,70.5 299.5,128.5 299.5,186.5C 296.833,192.5 292.5,196.833 286.5,199.5C 195.167,199.5 103.833,199.5 12.5,199.5C 9.47557,197.987 6.8089,195.987 4.5,193.5C 70.1179,129.549 135.118,64.8824 199.5,-0.5 Z"/></g>
<g><path style="opacity:1" fill="#f6cd41" d="M 247.5,119.5 C 248.833,119.5 250.167,119.5 251.5,119.5C 252.554,126.499 254.888,132.999 258.5,139C 265.191,139.169 271.858,139.669 278.5,140.5C 272.845,144.823 267.512,149.49 262.5,154.5C 264.4,160.269 266.067,166.102 267.5,172C 267.167,172.833 266.833,173.667 266.5,174.5C 260.965,170.57 255.298,166.903 249.5,163.5C 243.702,166.903 238.035,170.57 232.5,174.5C 232.167,173.667 231.833,172.833 231.5,172C 232.933,166.102 234.6,160.269 236.5,154.5C 231.488,149.49 226.155,144.823 220.5,140.5C 227.142,139.669 233.809,139.169 240.5,139C 244.112,132.999 246.446,126.499 247.5,119.5 Z"/></g>
</svg>
