<?xml version="1.0" encoding="UTF-8"?>
<!DOCTYPE svg PUBLIC "-//W3C//DTD SVG 1.1//EN" "http://www.w3.org/Graphics/SVG/1.1/DTD/svg11.dtd">
<svg xmlns="http://www.w3.org/2000/svg" version="1.1" width="300px" height="200px" style="shape-rendering:geometricPrecision; text-rendering:geometricPrecision; image-rendering:optimizeQuality; fill-rule:evenodd; clip-rule:evenodd" xmlns:xlink="http://www.w3.org/1999/xlink">
<g><path style="opacity:1" fill="#1f3270" d="M 12.5,-0.5 C 103.833,-0.5 195.167,-0.5 286.5,-0.5C 292.525,2.19213 296.859,6.52546 299.5,12.5C 299.5,70.5 299.5,128.5 299.5,186.5C 296.859,192.475 292.525,196.808 286.5,199.5C 195.167,199.5 103.833,199.5 12.5,199.5C 6.41602,196.418 2.08269,191.751 -0.5,185.5C -0.5,128.167 -0.5,70.8333 -0.5,13.5C 2.08269,7.24914 6.41602,2.58247 12.5,-0.5 Z"/></g>
<g><path style="opacity:1" fill="#ebebeb" d="M 146.5,20.5 C 148.527,20.3379 150.527,20.5045 152.5,21C 193.167,46 233.833,71 274.5,96C 277.167,98.3333 277.167,100.667 274.5,103C 236.902,125.604 199.569,148.604 162.5,172C 158.393,174.72 154.06,176.887 149.5,178.5C 144.94,176.887 140.607,174.72 136.5,172C 99.4312,148.604 62.0979,125.604 24.5,103C 21.8333,100.667 21.8333,98.3333 24.5,96C 65.3982,71.0588 106.065,45.8921 146.5,20.5 Z"/></g>
<g><path style="opacity:1" fill="#0a973f" d="M 139.5,49.5 C 169.996,47.187 189.829,60.5204 199,89.5C 201.864,121.634 187.697,141.468 156.5,149C 131.632,151.15 113.799,140.983 103,118.5C 94.1188,84.2588 106.285,61.2588 139.5,49.5 Z"/></g>
<g><path style="opacity:1" fill="#f7cd3e" d="M 147.5,54.5 C 149.451,54.2267 150.951,54.8934 152,56.5C 155.143,65.4267 157.976,74.4267 160.5,83.5C 170.506,83.3335 180.506,83.5002 190.5,84C 191.357,84.6891 192.023,85.5224 192.5,86.5C 191.352,88.1487 190.019,89.6487 188.5,91C 180.97,95.4093 174.303,100.743 168.5,107C 172.295,116.549 174.962,126.382 176.5,136.5C 175.127,136.657 173.793,136.49 172.5,136C 164.948,130.272 157.281,124.772 149.5,119.5C 141.719,124.772 134.052,130.272 126.5,136C 125.207,136.49 123.873,136.657 122.5,136.5C 124.038,126.382 126.705,116.549 130.5,107C 130.167,106.167 129.833,105.333 129.5,104.5C 123.306,99.8058 116.972,95.3058 110.5,91C 108.773,89.6106 107.439,87.9439 106.5,86C 106.905,85.0546 107.572,84.3879 108.5,84C 118.494,83.5002 128.494,83.3335 138.5,83.5C 141.298,73.7733 144.298,64.1066 147.5,54.5 Z"/></g>
</svg>
