<?xml version="1.0" encoding="UTF-8"?>
<!DOCTYPE svg PUBLIC "-//W3C//DTD SVG 1.1//EN" "http://www.w3.org/Graphics/SVG/1.1/DTD/svg11.dtd">
<svg xmlns="http://www.w3.org/2000/svg" version="1.1" width="300px" height="200px" style="shape-rendering:geometricPrecision; text-rendering:geometricPrecision; image-rendering:optimizeQuality; fill-rule:evenodd; clip-rule:evenodd" xmlns:xlink="http://www.w3.org/1999/xlink">
<g><path style="opacity:1" fill="#ecebeb" d="M 12.5,-0.5 C 30.1667,-0.5 47.8333,-0.5 65.5,-0.5C 143.205,51.859 221.205,103.859 299.5,155.5C 299.5,165.833 299.5,176.167 299.5,186.5C 296.833,192.5 292.5,196.833 286.5,199.5C 268.833,199.5 251.167,199.5 233.5,199.5C 155.795,147.141 77.7949,95.141 -0.5,43.5C -0.5,33.1667 -0.5,22.8333 -0.5,12.5C 2.16667,6.5 6.5,2.16667 12.5,-0.5 Z"/></g>
<g><path style="opacity:1" fill="#d41f19" d="M 65.5,-0.5 C 139.167,-0.5 212.833,-0.5 286.5,-0.5C 292.5,2.16667 296.833,6.5 299.5,12.5C 299.5,60.1667 299.5,107.833 299.5,155.5C 221.205,103.859 143.205,51.859 65.5,-0.5 Z"/></g>
<g><path style="opacity:1" fill="#d41f19" d="M -0.5,43.5 C 77.7949,95.141 155.795,147.141 233.5,199.5C 159.833,199.5 86.1667,199.5 12.5,199.5C 6.5,196.833 2.16667,192.5 -0.5,186.5C -0.5,138.833 -0.5,91.1667 -0.5,43.5 Z"/></g>
<g><path style="opacity:1" fill="#223471" d="M 148.5,69.5 C 149.496,69.4142 150.329,69.7476 151,70.5C 152.842,77.0053 155.342,83.172 158.5,89C 165.191,89.1691 171.858,89.6691 178.5,90.5C 172.845,94.823 167.512,99.4897 162.5,104.5C 164.587,111.089 166.254,117.756 167.5,124.5C 166.448,124.649 165.448,124.483 164.5,124C 159.81,119.994 154.81,116.494 149.5,113.5C 144.19,116.494 139.19,119.994 134.5,124C 133.552,124.483 132.552,124.649 131.5,124.5C 132.746,117.756 134.413,111.089 136.5,104.5C 131.207,99.8432 125.874,95.1765 120.5,90.5C 127.142,89.6691 133.809,89.1691 140.5,89C 143.84,82.8144 146.507,76.3144 148.5,69.5 Z"/></g>
</svg>
