<?xml version="1.0" encoding="UTF-8"?>
<!DOCTYPE svg PUBLIC "-//W3C//DTD SVG 1.1//EN" "http://www.w3.org/Graphics/SVG/1.1/DTD/svg11.dtd">
<svg xmlns="http://www.w3.org/2000/svg" version="1.1" width="300px" height="200px" style="shape-rendering:geometricPrecision; text-rendering:geometricPrecision; image-rendering:optimizeQuality; fill-rule:evenodd; clip-rule:evenodd" xmlns:xlink="http://www.w3.org/1999/xlink">
<g><path style="opacity:1" fill="#181918" d="M 12.5,-0.5 C 41.5,-0.5 70.5,-0.5 99.5,-0.5C 99.5,66.1667 99.5,132.833 99.5,199.5C 70.5,199.5 41.5,199.5 12.5,199.5C 6.5,196.833 2.16667,192.5 -0.5,186.5C -0.5,128.5 -0.5,70.5 -0.5,12.5C 2.16667,6.5 6.5,2.16667 12.5,-0.5 Z"/></g>
<g><path style="opacity:1" fill="#d41f19" d="M 99.5,-0.5 C 161.833,-0.5 224.167,-0.5 286.5,-0.5C 292.5,2.16667 296.833,6.5 299.5,12.5C 299.5,70.5 299.5,128.5 299.5,186.5C 296.833,192.5 292.5,196.833 286.5,199.5C 224.167,199.5 161.833,199.5 99.5,199.5C 99.5,132.833 99.5,66.1667 99.5,-0.5 Z"/></g>
<g><path style="opacity:1" fill="#ece4e4" d="M 161.5,89.5 C 162.552,89.3505 163.552,89.5172 164.5,90C 167.286,93.074 169.952,96.2407 172.5,99.5C 173.487,96.2317 173.82,92.8984 173.5,89.5C 175.144,89.2865 176.644,89.6198 178,90.5C 178.667,96.5 178.667,102.5 178,108.5C 177.439,109.022 176.772,109.355 176,109.5C 172.012,106.846 168.679,103.512 166,99.5C 165.667,102.5 165.333,105.5 165,108.5C 163.667,109.833 162.333,109.833 161,108.5C 160.21,102.085 160.376,95.752 161.5,89.5 Z"/></g>
<g><path style="opacity:1" fill="#ecdfde" d="M 203.5,89.5 C 207.584,89.0431 211.417,89.7098 215,91.5C 215.483,92.448 215.649,93.448 215.5,94.5C 212.15,94.335 208.817,94.5017 205.5,95C 201.535,102.193 203.535,105.027 211.5,103.5C 208.658,102.996 207.325,101.329 207.5,98.5C 210.167,98.5 212.833,98.5 215.5,98.5C 215.5,101.833 215.5,105.167 215.5,108.5C 211.537,109.44 207.537,109.607 203.5,109C 195.555,102.503 195.555,96.0029 203.5,89.5 Z"/></g>
<g><path style="opacity:1" fill="#ece1e0" d="M 224.5,89.5 C 234.988,88.4874 239.488,93.154 238,103.5C 235.081,109.025 230.581,110.858 224.5,109C 219.365,105.945 217.532,101.445 219,95.5C 220.36,92.9774 222.193,90.9774 224.5,89.5 Z"/></g>
<g><path style="opacity:1" fill="#ece5e5" d="M 182.5,89.5 C 186.833,89.5 191.167,89.5 195.5,89.5C 195.5,90.8333 195.5,92.1667 195.5,93.5C 192.5,93.5 189.5,93.5 186.5,93.5C 186.5,94.8333 186.5,96.1667 186.5,97.5C 189.167,97.5 191.833,97.5 194.5,97.5C 194.5,98.8333 194.5,100.167 194.5,101.5C 191.833,101.5 189.167,101.5 186.5,101.5C 186.5,102.833 186.5,104.167 186.5,105.5C 189.5,105.5 192.5,105.5 195.5,105.5C 195.5,106.833 195.5,108.167 195.5,109.5C 190.901,109.8 186.401,109.467 182,108.5C 181.21,102.085 181.376,95.752 182.5,89.5 Z"/></g>
<g><path style="opacity:1" fill="#d5281f" d="M 225.5,94.5 C 227.792,94.2436 229.959,94.5769 232,95.5C 232.777,98.4294 232.61,101.263 231.5,104C 229.231,104.758 227.064,104.591 225,103.5C 224.264,100.408 224.431,97.408 225.5,94.5 Z"/></g>
</svg>
