<?xml version="1.0" encoding="UTF-8"?>
<!DOCTYPE svg PUBLIC "-//W3C//DTD SVG 1.1//EN" "http://www.w3.org/Graphics/SVG/1.1/DTD/svg11.dtd">
<svg xmlns="http://www.w3.org/2000/svg" version="1.1" width="300px" height="200px" style="shape-rendering:geometricPrecision; text-rendering:geometricPrecision; image-rendering:optimizeQuality; fill-rule:evenodd; clip-rule:evenodd" xmlns:xlink="http://www.w3.org/1999/xlink">
<g><path style="opacity:1" fill="#1f326f" d="M 12.5,-0.5 C 103.833,-0.5 195.167,-0.5 286.5,-0.5C 292.5,2.16667 296.833,6.5 299.5,12.5C 299.5,52.5 299.5,92.5 299.5,132.5C 292.833,132.5 286.167,132.5 279.5,132.5C 264.038,81.8726 230.705,49.706 179.5,36C 119.213,25.4187 71.3799,44.9187 36,94.5C 28.5733,106.351 23.0733,119.018 19.5,132.5C 12.8333,132.5 6.16667,132.5 -0.5,132.5C -0.5,92.5 -0.5,52.5 -0.5,12.5C 2.16667,6.5 6.5,2.16667 12.5,-0.5 Z"/></g>
<g><path style="opacity:1" fill="#ecc343" d="M 148.5,6.5 C 149.376,6.36912 150.043,6.70245 150.5,7.5C 151.074,9.05887 151.74,10.5589 152.5,12C 154.577,12.1922 156.577,12.6922 158.5,13.5C 157.12,15.1738 155.787,16.8404 154.5,18.5C 155.528,20.5599 155.528,22.5599 154.5,24.5C 151.042,20.5664 147.542,20.5664 144,24.5C 143.502,22.4731 143.669,20.4731 144.5,18.5C 143.213,16.8404 141.88,15.1738 140.5,13.5C 145.653,13.8904 148.32,11.5571 148.5,6.5 Z"/></g>
<g><path style="opacity:1" fill="#d2231b" d="M 279.5,132.5 C 276.375,133.479 273.042,133.813 269.5,133.5C 254.424,86.2595 222.757,56.7595 174.5,45C 121.016,36.928 78.1823,54.428 46,97.5C 38.6047,108.624 33.1047,120.624 29.5,133.5C 25.9581,133.813 22.6248,133.479 19.5,132.5C 23.0733,119.018 28.5733,106.351 36,94.5C 71.3799,44.9187 119.213,25.4187 179.5,36C 230.705,49.706 264.038,81.8726 279.5,132.5 Z"/></g>
<g><path style="opacity:1" fill="#f7cb3e" d="M 269.5,133.5 C 265.833,133.5 262.167,133.5 258.5,133.5C 244.808,91.6463 216.474,65.4796 173.5,55C 126.709,47.0376 88.2087,61.2043 58,97.5C 49.755,108.323 43.9217,120.323 40.5,133.5C 36.8333,133.5 33.1667,133.5 29.5,133.5C 33.1047,120.624 38.6047,108.624 46,97.5C 78.1823,54.428 121.016,36.928 174.5,45C 222.757,56.7595 254.424,86.2595 269.5,133.5 Z"/></g>
<g><path style="opacity:1" fill="#0e953f" d="M 258.5,133.5 C 255.167,133.5 251.833,133.5 248.5,133.5C 248.672,132.508 248.338,131.842 247.5,131.5C 232.859,94.3737 205.859,71.8737 166.5,64C 124.11,58.7899 89.9437,72.9565 64,106.5C 58.7678,114.298 54.6012,122.631 51.5,131.5C 50.6618,131.842 50.3284,132.508 50.5,133.5C 47.1667,133.5 43.8333,133.5 40.5,133.5C 43.9217,120.323 49.755,108.323 58,97.5C 88.2087,61.2043 126.709,47.0376 173.5,55C 216.474,65.4796 244.808,91.6463 258.5,133.5 Z"/></g>
<g><path style="opacity:1" fill="#1f326f" d="M 247.5,131.5 C 182.167,132.833 116.833,132.833 51.5,131.5C 54.6012,122.631 58.7678,114.298 64,106.5C 89.9437,72.9565 124.11,58.7899 166.5,64C 205.859,71.8737 232.859,94.3737 247.5,131.5 Z"/></g>
<g><path style="opacity:1" fill="#f6cb3f" d="M 144.5,77.5 C 162,76.832 170.166,85.1653 169,102.5C 163.17,117.333 153.003,121.5 138.5,115C 127.397,104.55 126.73,93.5497 136.5,82C 139.099,80.205 141.766,78.705 144.5,77.5 Z"/></g>
<g><path style="opacity:1" fill="#6f7ca1" d="M 51.5,131.5 C 116.833,132.833 182.167,132.833 247.5,131.5C 248.338,131.842 248.672,132.508 248.5,133.5C 182.5,133.5 116.5,133.5 50.5,133.5C 50.3284,132.508 50.6618,131.842 51.5,131.5 Z"/></g>
<g><path style="opacity:1" fill="#ececec" d="M -0.5,132.5 C 6.16667,132.5 12.8333,132.5 19.5,132.5C 22.6248,133.479 25.9581,133.813 29.5,133.5C 33.1667,133.5 36.8333,133.5 40.5,133.5C 43.8333,133.5 47.1667,133.5 50.5,133.5C 116.5,133.5 182.5,133.5 248.5,133.5C 251.833,133.5 255.167,133.5 258.5,133.5C 262.167,133.5 265.833,133.5 269.5,133.5C 273.042,133.813 276.375,133.479 279.5,132.5C 286.167,132.5 292.833,132.5 299.5,132.5C 299.5,150.5 299.5,168.5 299.5,186.5C 296.833,192.5 292.5,196.833 286.5,199.5C 195.167,199.5 103.833,199.5 12.5,199.5C 6.5,196.833 2.16667,192.5 -0.5,186.5C -0.5,168.5 -0.5,150.5 -0.5,132.5 Z"/></g>
<g><path style="opacity:1" fill="#d4221b" d="M 144.5,146.5 C 147.833,146.5 151.167,146.5 154.5,146.5C 154.5,149.833 154.5,153.167 154.5,156.5C 157.833,156.5 161.167,156.5 164.5,156.5C 164.665,159.518 164.498,162.518 164,165.5C 160.943,166.451 157.777,166.784 154.5,166.5C 154.666,172.842 154.5,179.175 154,185.5C 151,186.833 148,186.833 145,185.5C 144.5,179.175 144.334,172.842 144.5,166.5C 141.482,166.665 138.482,166.498 135.5,166C 134.549,162.943 134.216,159.777 134.5,156.5C 137.833,156.5 141.167,156.5 144.5,156.5C 144.5,153.167 144.5,149.833 144.5,146.5 Z"/></g>
</svg>
