<?xml version="1.0" encoding="UTF-8"?>
<svg version="1.1" xmlns="http://www.w3.org/2000/svg" width="300" height="200">
<path d="M0 0 C99 0 198 0 300 0 C300 66 300 132 300 200 C201 200 102 200 0 200 C0 134 0 68 0 0 Z " fill="#009B43" transform="translate(0,0)"/>
<path d="M0 0 C99 0 198 0 300 0 C300 33 300 66 300 100 C201 100 102 100 0 100 C0 67 0 34 0 0 Z " fill="#213572" transform="translate(0,0)"/>
<path d="M0 0 C66 0 132 0 200 0 C200 19.8 200 39.6 200 60 C134 60 68 60 0 60 C0 40.2 0 20.4 0 0 Z " fill="#009B43" transform="translate(100,20)"/>
<path d="M0 0 C99 0 198 0 300 0 C300 6.6 300 13.2 300 20 C201 20 102 20 0 20 C0 13.4 0 6.8 0 0 Z " fill="#FFCF44" transform="translate(0,180)"/>
<path d="M0 0 C99 0 198 0 300 0 C300 6.6 300 13.2 300 20 C201 20 102 20 0 20 C0 13.4 0 6.8 0 0 Z " fill="#009B43" transform="translate(0,160)"/>
<path d="M0 0 C99 0 198 0 300 0 C300 6.6 300 13.2 300 20 C201 20 102 20 0 20 C0 13.4 0 6.8 0 0 Z " fill="#FFCF44" transform="translate(0,140)"/>
<path d="M0 0 C99 0 198 0 300 0 C300 6.6 300 13.2 300 20 C201 20 102 20 0 20 C0 13.4 0 6.8 0 0 Z " fill="#FFCF44" transform="translate(0,100)"/>
<path d="M0 0 C66 0 132 0 200 0 C200 6.6 200 13.2 200 20 C134 20 68 20 0 20 C0 13.4 0 6.8 0 0 Z " fill="#009B43" transform="translate(100,80)"/>
<path d="M0 0 C66 0 132 0 200 0 C200 6.6 200 13.2 200 20 C134 20 68 20 0 20 C0 13.4 0 6.8 0 0 Z " fill="#FFCF44" transform="translate(100,60)"/>
<path d="M0 0 C66 0 132 0 200 0 C200 6.6 200 13.2 200 20 C134 20 68 20 0 20 C0 13.4 0 6.8 0 0 Z " fill="#FFCF44" transform="translate(100,20)"/>
<path d="M0 0 C66 0 132 0 200 0 C200 6.6 200 13.2 200 20 C134 20 68 20 0 20 C0 13.4 0 6.8 0 0 Z " fill="#009B43" transform="translate(100,0)"/>
<path d="M0 0 C3 1 3 1 3.89135742 2.67407227 C4.12701416 3.38104248 4.3626709 4.0880127 4.60546875 4.81640625 C4.84160889 5.50420166 5.07774902 6.19199707 5.32104492 6.90063477 C5.6069751 7.77905029 5.89290527 8.65746582 6.1875 9.5625 C7.115625 12.346875 8.04375 15.13125 9 18 C15.6 18.33 22.2 18.66 29 19 C29 20.32 29 21.64 29 23 C26.90747066 24.94516812 24.92041047 26.58413249 22.625 28.25 C22.02171875 28.70890625 21.4184375 29.1678125 20.796875 29.640625 C16.29771205 33 16.29771205 33 14 33 C14.3609375 34.08539063 14.721875 35.17078125 15.09375 36.2890625 C15.56295895 37.73422607 16.03168336 39.17954702 16.5 40.625 C16.73847656 41.33785156 16.97695312 42.05070312 17.22265625 42.78515625 C18.57381808 46.99306024 19.28250044 50.52236798 19 55 C13.66295003 54.30887123 9.97671274 50.12624941 5.97265625 46.8359375 C3.22810776 44.79500208 3.22810776 44.79500208 0.50390625 44.94140625 C-3.40494575 46.59397862 -6.43686291 49.19581408 -9.71484375 51.84960938 C-13.70972111 55 -13.70972111 55 -17 55 C-16.47458553 47.2501365 -14.44408524 40.3549914 -12 33 C-12.81210937 32.62488281 -12.81210937 32.62488281 -13.640625 32.2421875 C-16.50643783 30.73336552 -19.09798947 28.98421373 -21.75 27.125 C-22.73484375 26.44695313 -23.7196875 25.76890625 -24.734375 25.0703125 C-25.48203125 24.38710938 -26.2296875 23.70390625 -27 23 C-27 21.68 -27 20.36 -27 19 C-17.1 18.505 -17.1 18.505 -7 18 C-5.06727565 12.45141413 -5.06727565 12.45141413 -3.14086914 6.90063477 C-2.77916626 5.86894165 -2.77916626 5.86894165 -2.41015625 4.81640625 C-2.16402588 4.10943604 -1.91789551 3.40246582 -1.66430664 2.67407227 C-1 1 -1 1 0 0 Z " fill="#E8E9EB" transform="translate(49,20)"/>
<path d="M0 0 C0.33 0 0.66 0 1 0 C1 4.29 1 8.58 1 13 C-3.29 13 -7.58 13 -12 13 C-9.82987456 11.37240592 -7.65215544 9.7539636 -5.4375 8.1875 C-2.67647838 5.70966008 -1.46004309 3.38115243 0 0 Z " fill="#FFFFFF" transform="translate(299,187)"/>
<path d="M0 0 C1.62759408 2.17012544 3.2460364 4.34784456 4.8125 6.5625 C7.29033992 9.32352162 9.61884757 10.53995691 13 12 C13 12.33 13 12.66 13 13 C8.71 13 4.42 13 0 13 C0 8.71 0 4.42 0 0 Z " fill="#FFFFFF" transform="translate(0,187)"/>
<path d="M0 0 C4.29 0 8.58 0 13 0 C13 4.29 13 8.58 13 13 C11.37240592 10.82987456 9.7539636 8.65215544 8.1875 6.4375 C5.70966008 3.67647838 3.38115243 2.46004309 0 1 C0 0.67 0 0.34 0 0 Z " fill="#FFFFFF" transform="translate(287,0)"/>
<path d="M0 0 C4.29 0 8.58 0 13 0 C10.82987456 1.62759408 8.65215544 3.2460364 6.4375 4.8125 C3.67647838 7.29033992 2.46004309 9.61884757 1 13 C0.67 13 0.34 13 0 13 C0 8.71 0 4.42 0 0 Z " fill="#FFFFFF" transform="translate(0,0)"/>
</svg>
