<?xml version="1.0" encoding="UTF-8"?>
<!DOCTYPE svg PUBLIC "-//W3C//DTD SVG 1.1//EN" "http://www.w3.org/Graphics/SVG/1.1/DTD/svg11.dtd">
<svg xmlns="http://www.w3.org/2000/svg" version="1.1" width="300px" height="200px" style="shape-rendering:geometricPrecision; text-rendering:geometricPrecision; image-rendering:optimizeQuality; fill-rule:evenodd; clip-rule:evenodd" xmlns:xlink="http://www.w3.org/1999/xlink">
<g><path style="opacity:1" fill="#ececec" d="M 12.5,-0.5 C 38.5,-0.5 64.5,-0.5 90.5,-0.5C 159.89,46.2183 229.556,92.5516 299.5,138.5C 299.5,154.5 299.5,170.5 299.5,186.5C 296.833,192.5 292.5,196.833 286.5,199.5C 260.5,199.5 234.5,199.5 208.5,199.5C 139.11,152.782 69.4435,106.448 -0.5,60.5C -0.5,44.5 -0.5,28.5 -0.5,12.5C 2.16667,6.5 6.5,2.16667 12.5,-0.5 Z"/></g>
<g><path style="opacity:1" fill="#00963e" d="M 90.5,-0.5 C 155.833,-0.5 221.167,-0.5 286.5,-0.5C 292.5,2.16667 296.833,6.5 299.5,12.5C 299.5,54.5 299.5,96.5 299.5,138.5C 229.556,92.5516 159.89,46.2183 90.5,-0.5 Z"/></g>
<g><path style="opacity:1" fill="#223471" d="M 130.5,80.5 C 125.5,79.8333 120.5,79.1667 115.5,78.5C 129.866,58.5552 148.199,54.0552 170.5,65C 183.593,73.3544 189.593,85.1877 188.5,100.5C 170.712,89.2232 151.378,82.5566 130.5,80.5 Z"/></g>
<g><path style="opacity:1" fill="#00963e" d="M -0.5,60.5 C 69.4435,106.448 139.11,152.782 208.5,199.5C 143.167,199.5 77.8333,199.5 12.5,199.5C 6.5,196.833 2.16667,192.5 -0.5,186.5C -0.5,144.5 -0.5,102.5 -0.5,60.5 Z"/></g>
<g><path style="opacity:1" fill="#6d79a0" d="M 115.5,78.5 C 120.5,79.1667 125.5,79.8333 130.5,80.5C 125.125,80.8282 119.792,80.4948 114.5,79.5C 114.624,78.8933 114.957,78.56 115.5,78.5 Z"/></g>
<g><path style="opacity:1" fill="#213371" d="M 110.5,91.5 C 138.004,89.782 163.004,96.782 185.5,112.5C 186.614,113.723 186.781,115.056 186,116.5C 175.258,135.644 159.092,142.811 137.5,138C 116.214,129.591 107.214,114.091 110.5,91.5 Z"/></g>
</svg>
