<?xml version="1.0" encoding="UTF-8"?>
<svg version="1.1" xmlns="http://www.w3.org/2000/svg" width="300" height="200">
<path d="M0 0 C99 0 198 0 300 0 C300 66 300 132 300 200 C201 200 102 200 0 200 C0 134 0 68 0 0 Z " fill="#EFEFEF" transform="translate(0,0)"/>
<path d="M0 0 C49.5 0 99 0 150 0 C150 5.94 150 11.88 150 18 C150.99 18.33 151.98 18.66 153 19 C153.33 20.65 153.66 22.3 154 24 C154.94875 23.95875 155.8975 23.9175 156.875 23.875 C160 24 160 24 162 26 C161.8125 28 161.8125 28 161 30 C160.01 30.66 159.02 31.32 158 32 C157.74984127 35.58357241 157.74984127 35.58357241 158 39 C155.6875 39.625 155.6875 39.625 153 40 C152.01 39.34 151.02 38.68 150 38 C150 39.98 150 41.96 150 44 C149.31035156 44.08636719 148.62070313 44.17273437 147.91015625 44.26171875 C141.0044054 45.29426586 135.81845726 47.15650689 130 51 C129.13375 51.556875 128.2675 52.11375 127.375 52.6875 C114.48450752 65.238769 110.01301418 82.56916981 109 100 C107.68 100 106.36 100 105 100 C104.34 98.68 103.68 97.36 103 96 C101.01508358 96.26676204 101.01508358 96.26676204 99 97 C98.505 98.485 98.505 98.485 98 100 C65.66 100 33.32 100 0 100 C0 67 0 34 0 0 Z " fill="#EFEFEF" transform="translate(0,0)"/>
<path d="M0 0 C49.5 0 99 0 150 0 C150 33 150 66 150 100 C117.66 100 85.32 100 52 100 C51.505 101.98 51.505 101.98 51 104 C49.125 104.625 49.125 104.625 47 105 C46.01 104.01 46.01 104.01 45 103 C45 102.01 45 101.02 45 100 C43.68 100 42.36 100 41 100 C40.90203125 98.91203125 40.8040625 97.8240625 40.703125 96.703125 C39.17799024 81.17157821 35.42706056 65.42706056 24 54 C16.53891512 48.27372314 9.39968023 44.82453335 0 44 C0 42.02 0 40.04 0 38 C2.31 38.33 4.62 38.66 7 39 C6.87625 37.3603125 6.87625 37.3603125 6.75 35.6875 C7 32 7 32 9 30.0625 C9.66 29.711875 10.32 29.36125 11 29 C10.67 27.68 10.34 26.36 10 25 C9.05125 24.938125 8.1025 24.87625 7.125 24.8125 C6.09375 24.544375 5.0625 24.27625 4 24 C2.75 21.5 2.75 21.5 2 19 C1.34 18.67 0.68 18.34 0 18 C0 12.06 0 6.12 0 0 Z " fill="#01A2CD" transform="translate(150,0)"/>
<path d="M0 0 C2.0625 0.4375 2.0625 0.4375 4 1 C4.495 2.98 4.495 2.98 5 5 C6.32 5 7.64 5 9 5 C9.09796875 6.00417969 9.1959375 7.00835937 9.296875 8.04296875 C10.94128668 23.59413174 14.5530001 39.5530001 26 51 C33.46108488 56.72627686 40.60031977 60.17546665 50 61 C50 63.31 50 65.62 50 68 C41.82497766 68.56705357 34.64955322 67.47493582 26.78930664 65.42285156 C23.36585288 64.53050283 20.56885724 64 17 64 C15.14223235 67.13498292 14.79859524 69.37471432 15 73 C25.8636056 78.84837715 37.91736085 79.43006419 50 80 C50 88.25 50 96.5 50 105 C0.5 105 -49 105 -100 105 C-100 72 -100 39 -100 5 C-67.66 5 -35.32 5 -2 5 C-1.67 3.68 -1.34 2.36 -1 1 C-0.67 0.67 -0.34 0.34 0 0 Z " fill="#01A2CD" transform="translate(100,95)"/>
<path d="M0 0 C3.96344467 2.18782146 7.4436292 4.94794262 10.44140625 8.34765625 C10.44140625 9.00765625 10.44140625 9.66765625 10.44140625 10.34765625 C9.04384564 11.2339142 7.64533502 12.11870795 6.2421875 12.99609375 C2.79096041 15.58638567 0.16574346 19.02686652 -2.55859375 22.34765625 C-3.21859375 22.01765625 -3.87859375 21.68765625 -4.55859375 21.34765625 C-4.82671875 20.29578125 -5.09484375 19.24390625 -5.37109375 18.16015625 C-6.75818647 13.70685857 -8.43101617 11.72214785 -11.55859375 8.34765625 C-13.30897001 10.97322064 -14.55482288 13.43395062 -15.87109375 16.28515625 C-18.24980262 21.11295 -20.69639828 23.91655851 -25.55859375 26.34765625 C-24.96691406 26.38503906 -24.37523437 26.42242187 -23.765625 26.4609375 C-19.02246897 26.8555557 -15.39292425 27.25545423 -11.55859375 30.34765625 C-11.55859375 31.00765625 -11.55859375 31.66765625 -11.55859375 32.34765625 C-10.93815186 32.1053125 -10.31770996 31.86296875 -9.6784668 31.61328125 C-6.86967336 30.51952662 -4.05794931 29.43351306 -1.24609375 28.34765625 C-0.26962891 27.96609375 0.70683594 27.58453125 1.71289062 27.19140625 C2.65068359 26.83046875 3.58847656 26.46953125 4.5546875 26.09765625 C5.41876221 25.7625 6.28283691 25.42734375 7.1730957 25.08203125 C9.44140625 24.34765625 9.44140625 24.34765625 12.44140625 24.34765625 C11.70060914 29.34803671 8.7031116 32.40871273 4.75390625 35.34765625 C2.08338377 37.65729731 1.72899006 38.89665051 1.44140625 42.34765625 C-1.19859375 42.01765625 -3.83859375 41.68765625 -6.55859375 41.34765625 C-7.54859375 42.99765625 -8.53859375 44.64765625 -9.55859375 46.34765625 C1.33140625 46.34765625 12.22140625 46.34765625 23.44140625 46.34765625 C22.17434689 64.08648732 19.6902871 77.71427741 6.62890625 90.22265625 C0.74499779 95.02746953 -6.42562956 98.25586717 -14.13671875 97.859375 C-23.82491123 95.81235369 -31.8263401 90.0589984 -37.171875 81.87890625 C-43.99112808 70.10173468 -45.62914654 60.28936435 -46.55859375 46.34765625 C-36.32859375 46.34765625 -26.09859375 46.34765625 -15.55859375 46.34765625 C-17.20556331 43.17213828 -17.20556331 43.17213828 -19.90625 42.6875 C-20.80214844 42.55472656 -21.69804687 42.42195313 -22.62109375 42.28515625 C-25.34375 41.875 -25.34375 41.875 -27.55859375 41.34765625 C-27.88859375 40.68765625 -28.21859375 40.02765625 -28.55859375 39.34765625 C-27.23859375 38.68765625 -25.91859375 38.02765625 -24.55859375 37.34765625 C-27.19859375 36.68765625 -29.83859375 36.02765625 -32.55859375 35.34765625 C-32.84734375 35.98703125 -33.13609375 36.62640625 -33.43359375 37.28515625 C-34.55859375 39.34765625 -34.55859375 39.34765625 -36.55859375 40.34765625 C-37.14640625 39.20296875 -37.14640625 39.20296875 -37.74609375 38.03515625 C-39.72528353 35.10049554 -41.44527545 33.94638727 -44.55859375 32.34765625 C-42.47588203 20.60873563 -37.61310821 11.29596306 -28.55859375 3.34765625 C-18.74430246 -3.212629 -10.83175913 -4.72935962 0 0 Z " fill="#C4C6C7" transform="translate(161.55859375,52.65234375)"/>
<path d="M0 0 C2.98332724 1.44510733 5.73452817 3.00949404 8.50390625 4.828125 C9.10589844 5.21097656 9.70789063 5.59382813 10.328125 5.98828125 C20.57954125 13.49522386 26.5026002 27.88431993 28.99609375 39.921875 C31.6932423 60.66917157 29.02044862 79.44488483 17.03515625 96.9765625 C11.86383684 103.55562997 3.77949432 109.18104194 -4.49609375 110.828125 C-15.02454429 112.02070693 -22.6006521 110.5880616 -31.49609375 104.828125 C-32.099375 104.44527344 -32.70265625 104.06242187 -33.32421875 103.66796875 C-43.56991615 96.14546987 -49.49319051 81.77964063 -51.98828125 69.734375 C-54.6854298 48.98707843 -52.01263612 30.21136517 -40.02734375 12.6796875 C-30.57153482 0.64979726 -14.60930527 -4.89697383 0 0 Z M-35.49609375 17.828125 C-42.06299348 27.74647624 -42.06299348 27.74647624 -44.2109375 38.95703125 C-43.1419186 41.75517362 -41.04189872 42.37337931 -38.49609375 43.828125 C-36.68359375 46.015625 -36.68359375 46.015625 -35.49609375 47.828125 C-33.95442733 46.45326968 -33.95442733 46.45326968 -32.49609375 44.828125 C-32.49609375 44.168125 -32.49609375 43.508125 -32.49609375 42.828125 C-29.85609375 43.488125 -27.21609375 44.148125 -24.49609375 44.828125 C-25.81609375 45.818125 -27.13609375 46.808125 -28.49609375 47.828125 C-25.82085733 49.43326685 -24.03748291 49.88347458 -20.87109375 50.265625 C-19.20046875 50.5440625 -19.20046875 50.5440625 -17.49609375 50.828125 C-16.83609375 51.818125 -16.17609375 52.808125 -15.49609375 53.828125 C-25.72609375 53.828125 -35.95609375 53.828125 -46.49609375 53.828125 C-45.31659262 71.52064189 -42.77121243 85.31116426 -29.62109375 97.703125 C-23.74139478 102.4952496 -17.53476171 105.62387623 -9.81640625 105.20703125 C0.64898186 103.49803689 7.82518405 97.55420734 14.19140625 89.390625 C21.44112973 78.45797563 22.57682974 66.8071961 23.50390625 53.828125 C12.61390625 53.828125 1.72390625 53.828125 -9.49609375 53.828125 C-8.50609375 52.178125 -7.51609375 50.528125 -6.49609375 48.828125 C-3.33748582 48.35433381 -1.5387994 48.81388978 1.50390625 49.828125 C1.73078125 48.920625 1.95765625 48.013125 2.19140625 47.078125 C3.71991586 43.29324405 5.26741413 42.21696442 8.50390625 39.828125 C11.82732608 36.36112097 11.82732608 36.36112097 12.50390625 31.828125 C9.14439323 32.43351288 6.05506262 33.26136581 2.859375 34.45703125 C2.01826172 34.76962891 1.17714844 35.08222656 0.31054688 35.40429688 C-0.55376953 35.72978516 -1.41808594 36.05527344 -2.30859375 36.390625 C-3.63407227 36.8846582 -3.63407227 36.8846582 -4.98632812 37.38867188 C-7.1575287 38.19847101 -9.32737264 39.01171393 -11.49609375 39.828125 C-11.82609375 38.838125 -12.15609375 37.848125 -12.49609375 36.828125 C-15.34021692 34.97818648 -17.90100126 34.49828022 -21.24609375 34.203125 C-22.0453125 34.12835938 -22.84453125 34.05359375 -23.66796875 33.9765625 C-24.27125 33.92757812 -24.87453125 33.87859375 -25.49609375 33.828125 C-24.60921875 33.333125 -23.72234375 32.838125 -22.80859375 32.328125 C-17.10958611 28.52878657 -14.26940649 22.27653496 -12.49609375 15.828125 C-7.92980845 20.2742449 -5.39404443 23.72756925 -3.49609375 29.828125 C-2.81546875 29.126875 -2.13484375 28.425625 -1.43359375 27.703125 C6.37890625 19.890625 6.37890625 19.890625 10.50390625 17.828125 C8.64835248 12.81812982 4.76953384 10.01671401 0.203125 7.62109375 C-13.25086474 1.69966436 -26.60880567 5.88725589 -35.49609375 17.828125 Z " fill="#F8CD48" transform="translate(161.49609375,45.171875)"/>
<path d="M0 0 C9.57 0.33 19.14 0.66 29 1 C27.68 1.99 26.36 2.98 25 4 C20.48643139 7.4652559 16.76136364 10.4050802 15 16 C14.11926332 23.0063098 14.310718 28.58302564 18.5703125 34.3828125 C22.21053221 38.50043807 26.22322316 41.62315171 31.734375 42.37109375 C38.86789653 42.52817907 43.57453308 41.79642728 49 37 C54.33006471 31.24914071 55.51502547 26.79077779 55.3828125 19.046875 C54.64491097 13.17378119 51.68517318 9.60091452 47.5 5.625 C45.0561894 4.03652311 42.75234718 2.94366189 40 2 C40 1.67 40 1.34 40 1 C49.9 0.67 59.8 0.34 70 0 C68.73294064 17.73883107 66.24888085 31.36662116 53.1875 43.875 C47.30359154 48.67981328 40.13296419 51.90821092 32.421875 51.51171875 C22.73368252 49.46469744 14.73225365 43.71134215 9.38671875 35.53125 C2.64031625 23.87989482 0.49041754 13.24127371 0 0 Z " fill="#08A3CC" transform="translate(115,99)"/>
<path d="M0 0 C4.55885327 3.32673076 7.3287734 6.25407302 8.6875 11.8125 C8.790625 12.534375 8.89375 13.25625 9 14 C9.680625 13.29875 10.36125 12.5975 11.0625 11.875 C19.44206009 3.5193133 19.44206009 3.5193133 24 2 C32.00571825 14.1321811 35.91708582 24.09617566 36 39 C35 40 35 40 31.85717773 40.11352539 C30.46597303 40.11336633 29.07476239 40.10767506 27.68359375 40.09765625 C26.95253922 40.0962413 26.22148468 40.09482635 25.46827698 40.09336853 C23.12464368 40.08775408 20.78110461 40.07519922 18.4375 40.0625 C16.85221492 40.05748686 15.26692834 40.05292363 13.68164062 40.04882812 C9.7877239 40.03777997 5.89387795 40.02050572 2 40 C3.32 37.69 4.64 35.38 6 33 C9.71599191 32.79913557 10.77208445 32.8480563 14 35 C13.87625 34.278125 13.7525 33.55625 13.625 32.8125 C14 30 14 30 16.75 27.5 C17.29527344 27.09007813 17.84054688 26.68015625 18.40234375 26.2578125 C21.66364355 23.69023662 23.69789145 20.90632564 25 17 C24.37955811 17.24234375 23.75911621 17.4846875 23.11987305 17.734375 C20.31107961 18.82812963 17.49935556 19.91414319 14.6875 21 C13.71103516 21.3815625 12.73457031 21.763125 11.72851562 22.15625 C10.79072266 22.5171875 9.85292969 22.878125 8.88671875 23.25 C8.02264404 23.58515625 7.15856934 23.9203125 6.26831055 24.265625 C4 25 4 25 1 25 C-0.5625 23.5625 -0.5625 23.5625 -2 22 C-4.43387753 20.78306124 -6.41838846 20.68040104 -9.125 20.4375 C-10.03507813 20.35371094 -10.94515625 20.26992187 -11.8828125 20.18359375 C-12.58148438 20.12300781 -13.28015625 20.06242187 -14 20 C-12.22891298 18.20837864 -10.43948765 16.49697609 -8.5625 14.8125 C-5.51351753 11.46605583 -3.8578772 8.08083943 -2 4 C-1.33798311 2.66435189 -0.67258595 1.33035723 0 0 Z " fill="#A83F42" transform="translate(149,60)"/>
<path d="M0 0 C3.96344467 2.18782146 7.4436292 4.94794262 10.44140625 8.34765625 C10.44140625 9.00765625 10.44140625 9.66765625 10.44140625 10.34765625 C9.04384564 11.2339142 7.64533502 12.11870795 6.2421875 12.99609375 C2.79096041 15.58638567 0.16574346 19.02686652 -2.55859375 22.34765625 C-3.21859375 22.01765625 -3.87859375 21.68765625 -4.55859375 21.34765625 C-4.82671875 20.29578125 -5.09484375 19.24390625 -5.37109375 18.16015625 C-6.75818647 13.70685857 -8.43101617 11.72214785 -11.55859375 8.34765625 C-13.30897001 10.97322064 -14.55482288 13.43395062 -15.87109375 16.28515625 C-18.24980262 21.11295 -20.69639828 23.91655851 -25.55859375 26.34765625 C-27.4323898 26.41799394 -29.30860477 26.43195845 -31.18359375 26.41015625 C-32.18648437 26.40113281 -33.189375 26.39210938 -34.22265625 26.3828125 C-34.99351563 26.37121094 -35.764375 26.35960938 -36.55859375 26.34765625 C-34.68157048 31.24328318 -34.68157048 31.24328318 -31.55859375 35.34765625 C-34.03359375 37.82265625 -34.03359375 37.82265625 -36.55859375 40.34765625 C-36.95046875 39.58453125 -37.34234375 38.82140625 -37.74609375 38.03515625 C-39.72528353 35.10049554 -41.44527545 33.94638727 -44.55859375 32.34765625 C-42.47588203 20.60873563 -37.61310821 11.29596306 -28.55859375 3.34765625 C-18.74430246 -3.212629 -10.83175913 -4.72935962 0 0 Z " fill="#05A1CB" transform="translate(161.55859375,52.65234375)"/>
<path d="M0 0 C4.43549006 0.5703564 8.62188886 1.4127812 12.9375 2.5625 C27.73619185 5.75282631 43.39752208 5.3093862 57.85546875 0.875 C60.79124142 0.05808934 62.98218945 -0.36105948 66 0 C68.0914237 2.52413205 68.8997031 4.39821858 69.4375 7.625 C69 10 69 10 67.3359375 11.546875 C64.63669998 13.22599934 62.27950962 13.90260494 59.1875 14.625 C57.69283203 14.98464844 57.69283203 14.98464844 56.16796875 15.3515625 C38.72193326 18.92251428 17.88742918 19.31167666 1 13 C-1.4375 11.36328125 -1.4375 11.36328125 -3 10 C-2.25 3.375 -2.25 3.375 0 0 Z " fill="#C4C5C6" transform="translate(117,158)"/>
<path d="M0 0 C-0.74079711 5.00038046 -3.73829465 8.06105648 -7.6875 11 C-10.35802248 13.30964106 -10.71241619 14.54899426 -11 18 C-13.64 17.67 -16.28 17.34 -19 17 C-19.99 18.65 -20.98 20.3 -22 22 C-21.35933594 22.1959375 -20.71867187 22.391875 -20.05859375 22.59375 C-12.42433387 25.23331527 -8.04942137 29.03057258 -3.83984375 35.890625 C-1.82502888 40.95109024 -1.98145367 47.32904803 -3.91015625 52.38671875 C-7.2271095 57.98607712 -11.92707283 62.50323102 -18 65 C-24.87408261 65.93291121 -30.63324758 65.66689419 -36.31640625 61.49609375 C-39.90122822 58.31050949 -43.50198206 54.63023726 -45 50 C-45.1506404 47.30925082 -45.08999073 44.6997219 -45 42 C-44.01 41.505 -44.01 41.505 -43 41 C-42.84144531 41.79664063 -42.68289062 42.59328125 -42.51953125 43.4140625 C-40.95005095 50.54175756 -39.67156554 55.96295513 -33.26953125 60.125 C-28.17078079 62.09078331 -22.35579027 61.49821305 -17 61 C-13.33235473 59.61418436 -13.33235473 59.61418436 -11 57 C-10.21625 56.21625 -9.4325 55.4325 -8.625 54.625 C-6.04438763 48.86824933 -6.27810671 43.20238929 -7 37 C-9.22830413 32.02916771 -12.18789955 29.4951632 -17 27 C-19.60687197 26.43851988 -22.1808734 26.00837898 -24.828125 25.6875 C-27 25 -27 25 -28.234375 23.0625 C-28.48703125 22.381875 -28.7396875 21.70125 -29 21 C-29.33 20.34 -29.66 19.68 -30 19 C-32.31850007 18.38567131 -32.31850007 18.38567131 -35 18 C-37.75 17.5625 -37.75 17.5625 -40 17 C-40.33 16.34 -40.66 15.68 -41 15 C-39.68 14.34 -38.36 13.68 -37 13 C-37.61488281 12.82984375 -38.22976562 12.6596875 -38.86328125 12.484375 C-45.46134663 10.50600771 -45.46134663 10.50600771 -48.0625 8.0625 C-49 6 -49 6 -49 2 C-29.25374376 1.6218802 -29.25374376 1.6218802 -24 6 C-24 6.66 -24 7.32 -24 8 C-23.37955811 7.75765625 -22.75911621 7.5153125 -22.11987305 7.265625 C-19.31107961 6.17187037 -16.49935556 5.08585681 -13.6875 4 C-12.71103516 3.6184375 -11.73457031 3.236875 -10.72851562 2.84375 C-9.79072266 2.4828125 -8.85292969 2.121875 -7.88671875 1.75 C-7.02264404 1.41484375 -6.15856934 1.0796875 -5.26831055 0.734375 C-3 0 -3 0 0 0 Z " fill="#C4C1C1" transform="translate(174,77)"/>
<path d="M0 0 C-0.92835366 21.92835366 -0.92835366 21.92835366 -5 26 C-6.51928038 26.07179964 -8.04167482 26.08392007 -9.5625 26.0625 C-10.38878906 26.05347656 -11.21507812 26.04445313 -12.06640625 26.03515625 C-13.02353516 26.01775391 -13.02353516 26.01775391 -14 26 C-14.01417969 25.3709375 -14.02835938 24.741875 -14.04296875 24.09375 C-14.48487264 16.16336676 -16.73417512 11.10253363 -22.5 5.625 C-24.9438106 4.03652311 -27.24765282 2.94366189 -30 2 C-30 1.67 -30 1.34 -30 1 C-25.88827252 0.85736604 -21.77653739 0.71495509 -17.66479492 0.57275391 C-16.2650532 0.52431319 -14.8653136 0.47581074 -13.46557617 0.42724609 C-11.45752511 0.35758627 -9.44946581 0.2881644 -7.44140625 0.21875 C-6.23170166 0.17685547 -5.02199707 0.13496094 -3.77563477 0.09179688 C-1 0 -1 0 0 0 Z " fill="#049C44" transform="translate(185,99)"/>
<path d="M0 0 C9.57 0.33 19.14 0.66 29 1 C27.68 1.99 26.36 2.98 25 4 C19.6506624 8.1069108 15.66997008 11.58217751 14.60546875 18.6015625 C14.3449512 21.06779527 14.14188329 23.52438117 14 26 C11.03 26 8.06 26 5 26 C1.41112783 17.35408067 0 9.38009357 0 0 Z " fill="#049C44" transform="translate(115,99)"/>
<path d="M0 0 C1.65 0.33 3.3 0.66 5 1 C5.33 2.65 5.66 4.3 6 6 C7.423125 5.938125 7.423125 5.938125 8.875 5.875 C12 6 12 6 14 8 C13.8125 10 13.8125 10 13 12 C12.01 12.66 11.02 13.32 10 14 C9.74984127 17.58357241 9.74984127 17.58357241 10 21 C6.23400926 21.96839762 3.76608456 21.75321691 0 21 C-1.67225729 21.30404678 -3.34080104 21.63128912 -5 22 C-5.33 21.67 -5.66 21.34 -6 21 C-5.938125 19.88625 -5.87625 18.7725 -5.8125 17.625 C-5.5894561 13.95746053 -5.5894561 13.95746053 -8 12.0625 C-8.66 11.711875 -9.32 11.36125 -10 11 C-9.125 7.125 -9.125 7.125 -8 6 C-6.00041636 5.95919217 -3.99954746 5.95745644 -2 6 C-1.34 4.02 -0.68 2.04 0 0 Z " fill="#CBCBCB" transform="translate(148,18)"/>
<path d="M0 0 C4.92656657 1.44422636 7.06719116 2.71358708 10 7 C10.38800781 6.33484375 10.77601562 5.6696875 11.17578125 4.984375 C13 3 13 3 15.48046875 2.828125 C16.82044922 3.03695312 16.82044922 3.03695312 18.1875 3.25 C19.08855469 3.37890625 19.98960937 3.5078125 20.91796875 3.640625 C21.60503906 3.75921875 22.29210937 3.8778125 23 4 C21.35 5.32 19.7 6.64 18 8 C18.68707031 8.08636719 19.37414062 8.17273438 20.08203125 8.26171875 C20.98308594 8.40222656 21.88414062 8.54273437 22.8125 8.6875 C23.70582031 8.81511719 24.59914062 8.94273438 25.51953125 9.07421875 C28.79136494 10.29535983 29.35604639 12.01498131 31 15 C26.60343827 15.02465504 22.2069128 15.04283842 17.81030273 15.05493164 C16.31355082 15.05997121 14.81680384 15.06680287 13.32006836 15.07543945 C11.17300193 15.08752159 9.02600038 15.09323191 6.87890625 15.09765625 C4.93866577 15.10551147 4.93866577 15.10551147 2.95922852 15.11352539 C0 15 0 15 -1 14 C-0.90968426 11.64305046 -0.75311872 9.28846418 -0.5625 6.9375 C-0.46066406 5.64714844 -0.35882813 4.35679688 -0.25390625 3.02734375 C-0.17011719 2.02832031 -0.08632812 1.02929688 0 0 Z " fill="#A73F42" transform="translate(116,85)"/>
<path d="M0 0 C5.95238849 -0.49603237 10.06297509 0.56511249 15 4 C19.09121222 7.892522 22.59443605 12.01163403 23.37109375 17.734375 C23.52838704 24.87734087 22.81505007 29.58149718 18 35 C13.23176729 39.76823271 9.0344254 42.28810203 2.25 42.4375 C-4.63813413 42.31165102 -8.71321926 40.28678074 -13.52734375 35.47265625 C-18.50082179 29.80721605 -19.24426791 26.32803737 -19 19 C-18.34 18.67 -17.68 18.34 -17 18 C-16.84144531 18.79664062 -16.68289062 19.59328125 -16.51953125 20.4140625 C-14.95005095 27.54175756 -13.67156554 32.96295513 -7.26953125 37.125 C-2.17078079 39.09078331 3.64420973 38.49821305 9 38 C12.66764527 36.61418436 12.66764527 36.61418436 15 34 C15.78375 33.21625 16.5675 32.4325 17.375 31.625 C19.95561237 25.86824933 19.72189329 20.20238929 19 14 C16.77169587 9.02916771 13.81210045 6.4951632 9 4 C5.69273327 3.12862434 2.38089005 2.50780167 -1 2 C-0.67 1.34 -0.34 0.68 0 0 Z " fill="#E7ECEB" transform="translate(148,100)"/>
<path d="M0 0 C1.63775391 -0.00773437 1.63775391 -0.00773437 3.30859375 -0.015625 C6.67951578 0.25955231 9.41125625 1.05224219 12.5625 2.25 C12.08403935 6.55614589 10.90323619 8.49880549 7.5625 11.25 C3.46269736 12.61660088 -0.16038155 13.00644905 -4.4375 12.25 C-7.25736545 10.67313535 -9.55485139 8.88934017 -11.4375 6.25 C-11.4375 4.93 -11.4375 3.61 -11.4375 2.25 C-7.49446552 0.39963745 -4.34164065 -0.02045532 0 0 Z " fill="#08A3CD" transform="translate(149.4375,121.75)"/>
<path d="M0 0 C4.11778707 1.73862121 6.56931596 4.26048609 9 8 C8.67 8.99 8.34 9.98 8 11 C6.845 10.67 5.69 10.34 4.5 10 C-3.09141026 8.13216619 -9.5565682 9.07022138 -17 11 C-16.8882925 7.20194492 -15.64019694 5.25452751 -13 2.6875 C-8.83787875 -0.63534577 -5.15206314 -0.97025671 0 0 Z " fill="#0CA4CD" transform="translate(154,108)"/>
<path d="M0 0 C0.66 0 1.32 0 2 0 C2.20625 0.804375 2.4125 1.60875 2.625 2.4375 C3.07875 3.283125 3.5325 4.12875 4 5 C7.05272465 5.89830839 7.05272465 5.89830839 10 6 C9.319375 6.515625 8.63875 7.03125 7.9375 7.5625 C5.57571378 9.97254504 5.57571378 9.97254504 6.25 13.75 C6.4975 14.8225 6.745 15.895 7 17 C6.1646875 16.4740625 6.1646875 16.4740625 5.3125 15.9375 C1.55681863 14.41492647 -1.2832512 15.76108373 -5 17 C-4.7525 15.9275 -4.505 14.855 -4.25 13.75 C-3.57571378 9.97254504 -3.57571378 9.97254504 -5.9375 7.5625 C-6.618125 7.046875 -7.29875 6.53125 -8 6 C-6.576875 5.9071875 -6.576875 5.9071875 -5.125 5.8125 C-4.09375 5.544375 -3.0625 5.27625 -2 5 C-0.54708727 2.53744315 -0.54708727 2.53744315 0 0 Z " fill="#EDEDED" transform="translate(149,21)"/>
<path d="M0 0 C0.33 0 0.66 0 1 0 C1 4.29 1 8.58 1 13 C-3.29 13 -7.58 13 -12 13 C-10.68 12.01 -9.36 11.02 -8 10 C-4.65130212 6.89632879 -2.25987319 3.95477808 0 0 Z " fill="#FFFFFF" transform="translate(299,187)"/>
<path d="M0 0 C1.62759408 2.17012544 3.2460364 4.34784456 4.8125 6.5625 C7.29033992 9.32352162 9.61884757 10.53995691 13 12 C13 12.33 13 12.66 13 13 C8.71 13 4.42 13 0 13 C0 8.71 0 4.42 0 0 Z " fill="#FFFFFF" transform="translate(0,187)"/>
<path d="M0 0 C4.29 0 8.58 0 13 0 C13 4.29 13 8.58 13 13 C11.37240592 10.82987456 9.7539636 8.65215544 8.1875 6.4375 C5.70966008 3.67647838 3.38115243 2.46004309 0 1 C0 0.67 0 0.34 0 0 Z " fill="#FFFFFF" transform="translate(287,0)"/>
<path d="M0 0 C4.29 0 8.58 0 13 0 C10.82987456 1.62759408 8.65215544 3.2460364 6.4375 4.8125 C3.67647838 7.29033992 2.46004309 9.61884757 1 13 C0.67 13 0.34 13 0 13 C0 8.71 0 4.42 0 0 Z " fill="#FFFFFF" transform="translate(0,0)"/>
<path d="M0 0 C2.875 -0.125 2.875 -0.125 6 0 C6.66 0.66 7.32 1.32 8 2 C7.8125 4 7.8125 4 7 6 C6.01 6.66 5.02 7.32 4 8 C3.74984127 11.58357241 3.74984127 11.58357241 4 15 C1.75 15.75 1.75 15.75 -1 16 C-3.3125 14.0625 -3.3125 14.0625 -5 12 C-1 12 -1 12 2 14 C1.34 11.69 0.68 9.38 0 7 C0.639375 6.566875 1.27875 6.13375 1.9375 5.6875 C4.26746003 4.08760823 4.26746003 4.08760823 5 1 C3.35 1 1.7 1 0 1 C0 0.67 0 0.34 0 0 Z " fill="#BCC5C7" transform="translate(154,24)"/>
<path d="M0 0 C3.53571429 0.53571429 3.53571429 0.53571429 5 2 C5.1875 4.9375 5.1875 4.9375 5 8 C4.34 8.66 3.68 9.32 3 10 C-0.53571429 9.46428571 -0.53571429 9.46428571 -2 8 C-2.1875 5.0625 -2.1875 5.0625 -2 2 C-1.34 1.34 -0.68 0.68 0 0 Z " fill="#10A158" transform="translate(197,95)"/>
<path d="M0 0 C3.53571429 0.53571429 3.53571429 0.53571429 5 2 C5.1875 4.9375 5.1875 4.9375 5 8 C4.34 8.66 3.68 9.32 3 10 C-0.53571429 9.46428571 -0.53571429 9.46428571 -2 8 C-2.1875 5.0625 -2.1875 5.0625 -2 2 C-1.34 1.34 -0.68 0.68 0 0 Z " fill="#10A158" transform="translate(100,95)"/>
<path d="M0 0 C1.65 0.33 3.3 0.66 5 1 C4.25 6.75 4.25 6.75 2 9 C-0.625 8.625 -0.625 8.625 -3 8 C-2.45276317 4.62537285 -1.9451 2.91765 0 0 Z " fill="#17A353" transform="translate(110,57)"/>
<path d="M0 0 C2.375 0.3125 2.375 0.3125 5 1 C7 4 7 4 6.625 6.6875 C6.41875 7.450625 6.2125 8.21375 6 9 C3.625 8.6875 3.625 8.6875 1 8 C-1 5 -1 5 -0.625 2.3125 C-0.41875 1.549375 -0.2125 0.78625 0 0 Z " fill="#009B4F" transform="translate(186,57)"/>
<path d="M0 0 C0.93131785 3.04794934 1.29757762 4.42050674 -0.1875 7.3125 C-2 9 -2 9 -6 9 C-6.93131785 5.95205066 -7.29757762 4.57949326 -5.8125 1.6875 C-4 0 -4 0 0 0 Z " fill="#12A150" transform="translate(192,134)"/>
<path d="M0 0 C2.375 0.3125 2.375 0.3125 5 1 C7 4 7 4 6.625 6.6875 C6.41875 7.450625 6.2125 8.21375 6 9 C3.625 8.6875 3.625 8.6875 1 8 C-1 5 -1 5 -0.625 2.3125 C-0.41875 1.549375 -0.2125 0.78625 0 0 Z " fill="#009B4E" transform="translate(108,134)"/>
<path d="M0 0 C1.65 0.33 3.3 0.66 5 1 C5.33 3.31 5.66 5.62 6 8 C3.625 8.625 3.625 8.625 1 9 C0.34 8.34 -0.32 7.68 -1 7 C-0.625 3.375 -0.625 3.375 0 0 Z " fill="#009B4F" transform="translate(195,82)"/>
<path d="M0 0 C2.375 0.3125 2.375 0.3125 5 1 C7 4 7 4 6.8125 6.125 C6.544375 6.74375 6.27625 7.3625 6 8 C5.01 8.33 4.02 8.66 3 9 C0.9375 7.3125 0.9375 7.3125 -1 5 C-0.75 2.25 -0.75 2.25 0 0 Z " fill="#009B4D" transform="translate(116,145)"/>
<path d="M0 0 C2.625 0.375 2.625 0.375 5 1 C4.50168276 4.68754757 3.89932357 6.60490662 1 9 C-0.32 8.34 -1.64 7.68 -3 7 C-2.25 2.25 -2.25 2.25 0 0 Z " fill="#11A14F" transform="translate(180,145)"/>
<path d="M0 0 C2.625 0.375 2.625 0.375 5 1 C4.67 3.31 4.34 5.62 4 8 C2.125 8.625 2.125 8.625 0 9 C-2 7 -2 7 -2.25 4.5 C-2 2 -2 2 0 0 Z " fill="#12A150" transform="translate(196,109)"/>
<path d="M0 0 C4.70588235 0.70588235 4.70588235 0.70588235 6 2 C6.1875 4.4375 6.1875 4.4375 6 7 C5.34 7.66 4.68 8.32 4 9 C1.875 8.625 1.875 8.625 0 8 C-0.38063221 5.6739143 -0.71269945 3.33944736 -1 1 C-0.67 0.67 -0.34 0.34 0 0 Z " fill="#009B4D" transform="translate(100,109)"/>
<path d="M0 0 C3.69230769 0.69230769 3.69230769 0.69230769 5 2 C5.1875 4.4375 5.1875 4.4375 5 7 C4.34 7.66 3.68 8.32 3 9 C0.375 8.625 0.375 8.625 -2 8 C-1.125 1.125 -1.125 1.125 0 0 Z " fill="#12A150" transform="translate(101,82)"/>
<path d="M0 0 C1.9375 0.25 1.9375 0.25 4 1 C6 4 6 4 5.625 6.6875 C5.41875 7.450625 5.2125 8.21375 5 9 C2.625 8.6875 2.625 8.6875 0 8 C-2 5 -2 5 -1.6875 2.875 C-1 1 -1 1 0 0 Z " fill="#009B4D" transform="translate(179,46)"/>
<path d="M0 0 C1.32 0 2.64 0 4 0 C5.61949011 2.57213134 6.04408751 3.67669159 5.625 6.75 C5.41875 7.4925 5.2125 8.235 5 9 C3.35 8.67 1.7 8.34 0 8 C-0.38063221 5.6739143 -0.71269945 3.33944736 -1 1 C-0.67 0.67 -0.34 0.34 0 0 Z " fill="#009B4C" transform="translate(192,69)"/>
<path d="M0 0 C1.32 0.66 2.64 1.32 4 2 C3.25 6.75 3.25 6.75 1 9 C-1.625 8.625 -1.625 8.625 -4 8 C-3.50168276 4.31245243 -2.89932357 2.39509338 0 0 Z " fill="#0FA04E" transform="translate(119,46)"/>
<path d="M0 0 C2.625 0.375 2.625 0.375 5 1 C4.25 6.75 4.25 6.75 2 9 C-0.125 8.625 -0.125 8.625 -2 8 C-2.125 5.125 -2.125 5.125 -2 2 C-1.34 1.34 -0.68 0.68 0 0 Z " fill="#0D9F4C" transform="translate(193,122)"/>
<path d="M0 0 C4.875 0.875 4.875 0.875 6 2 C6.04080783 3.99958364 6.04254356 6.00045254 6 8 C4.68 8.33 3.36 8.66 2 9 C-1.07692308 4.56923077 -1.07692308 4.56923077 -0.6875 1.6875 C-0.460625 1.130625 -0.23375 0.57375 0 0 Z " fill="#009B4A" transform="translate(103,122)"/>
<path d="M0 0 C1.32 0.33 2.64 0.66 4 1 C3.67 3.31 3.34 5.62 3 8 C1.35 8.33 -0.3 8.66 -2 9 C-2.6875 6.75 -2.6875 6.75 -3 4 C-1.5625 1.6875 -1.5625 1.6875 0 0 Z " fill="#0C9F4C" transform="translate(105,69)"/>
<path d="M0 0 C-0.59167969 0.3403125 -1.18335938 0.680625 -1.79296875 1.03125 C-6.99846286 4.2241795 -10.1867361 7.02407554 -13.02734375 12.4609375 C-13.34832031 12.96882813 -13.66929687 13.47671875 -14 14 C-14.66 14 -15.32 14 -16 14 C-15.47178451 9.96443369 -14.40673398 7.82287252 -11.6875 4.8125 C-11.09324219 4.13832031 -10.49898437 3.46414062 -9.88671875 2.76953125 C-6.56676448 -0.34421468 -4.42056492 -1.57877319 0 0 Z " fill="#E8ECE9" transform="translate(146,102)"/>
<path d="M0 0 C3.63 0 7.26 0 11 0 C11 0.99 11 1.98 11 3 C7.04 3 3.08 3 -1 3 C-0.67 2.01 -0.34 1.02 0 0 Z " fill="#D8E2E5" transform="translate(145,139)"/>
<path d="M0 0 C2.875 -0.125 2.875 -0.125 6 0 C6.66 0.66 7.32 1.32 8 2 C7.9375 3.9375 7.9375 3.9375 7 6 C4.4375 7.75 4.4375 7.75 2 9 C1.67 8.01 1.34 7.02 1 6 C1.99 5.34 2.98 4.68 4 4 C4.33 3.01 4.66 2.02 5 1 C3.35 1 1.7 1 0 1 C0 0.67 0 0.34 0 0 Z " fill="#A3C0C7" transform="translate(154,24)"/>
<path d="M0 0 C0.99 0.33 1.98 0.66 3 1 C3.33 2.98 3.66 4.96 4 7 C5.65 7 7.3 7 9 7 C9 7.66 9 8.32 9 9 C7.02 9 5.04 9 3 9 C1.5393715 6.35261084 1 5.10551666 1 2 C0.34 1.67 -0.32 1.34 -1 1 C-0.67 0.67 -0.34 0.34 0 0 Z " fill="#BCC5C8" transform="translate(150,18)"/>
<path d="M0 0 C0 3.96 0 7.92 0 12 C-0.99 11.67 -1.98 11.34 -3 11 C-3 7.7 -3 4.4 -3 1 C-1 0 -1 0 0 0 Z " fill="#D5E1DE" transform="translate(171,115)"/>
</svg>
