<?xml version="1.0" encoding="UTF-8"?>
<svg version="1.1" xmlns="http://www.w3.org/2000/svg" width="300" height="200">
<path d="M0 0 C99 0 198 0 300 0 C300 66 300 132 300 200 C201 200 102 200 0 200 C0 134 0 68 0 0 Z " fill="#009B43" transform="translate(0,0)"/>
<path d="M0 0 C33 0 66 0 100 0 C100.33 11.55 100.66 23.1 101 35 C104.60156621 42.20313242 106.72179992 46.06738923 114 49 C117.25885274 49.32402643 117.25885274 49.32402643 120.93652344 49.30639648 C121.62651428 49.31472 122.31650513 49.32304352 123.02740479 49.33161926 C125.30478594 49.35568056 127.58188027 49.36448765 129.859375 49.37109375 C131.44875166 49.38006498 133.03812747 49.38918691 134.62750244 49.39845276 C137.95969695 49.41493615 141.29179108 49.42264133 144.62402344 49.42553711 C148.8788546 49.43091193 153.1327323 49.46855632 157.38729477 49.51428127 C160.67144141 49.54413654 163.95536115 49.55126253 167.23963165 49.55226326 C168.80723678 49.55645093 170.37484348 49.56882664 171.94231415 49.58978081 C182.88191933 49.87336321 182.88191933 49.87336321 192.5881958 45.37928772 C204.77903362 33.46922759 199.52854396 16.50096125 200 0 C233 0 266 0 300 0 C300 33 300 66 300 100 C201 100 102 100 0 100 C0 67 0 34 0 0 Z " fill="#F0EFEF" transform="translate(0,100)"/>
<path d="M0 0 C33 0 66 0 100 0 C100.0825 13.86 100.165 27.72 100.25 42 C100.28641602 46.36476563 100.32283203 50.72953125 100.36035156 55.2265625 C100.37841797 60.5859375 100.37841797 60.5859375 100.3817749 63.10058594 C100.38788852 64.84444265 100.40189719 66.5882832 100.42230225 68.33203125 C100.45177206 70.98467049 100.45561788 73.63628302 100.45410156 76.2890625 C100.468494 77.05658844 100.48288643 77.82411438 100.497715 78.61489868 C100.4514472 84.70047178 98.80815459 90.02801376 94.55255508 94.53189087 C89.39157412 98.99663465 85.84686673 100.24847479 79.06347656 100.30639648 C78.37348572 100.31472 77.68349487 100.32304352 76.97259521 100.33161926 C74.69521406 100.35568056 72.41811973 100.36448765 70.140625 100.37109375 C68.55124834 100.38006498 66.96187253 100.38918691 65.37249756 100.39845276 C62.04030305 100.41493615 58.70820892 100.42264133 55.37597656 100.42553711 C51.1211454 100.43091193 46.8672677 100.46855632 42.61270523 100.51428127 C39.32855859 100.54413654 36.04463885 100.55126253 32.76036835 100.55226326 C31.19276322 100.55645093 29.62515652 100.56882664 28.05768585 100.58978081 C12.1689994 100.78522823 12.1689994 100.78522823 6 95 C0.6331968 89.35073348 -0.29741327 84.23982545 -0.22705078 76.62963867 C-0.22729185 75.78650022 -0.22753292 74.94336176 -0.2277813 74.07467365 C-0.22629301 71.35566327 -0.21108252 68.63692985 -0.1953125 65.91796875 C-0.19237056 64.23523083 -0.19033105 62.55249109 -0.18920898 60.86975098 C-0.17873912 54.64230601 -0.15081661 48.41490026 -0.125 42.1875 C-0.08375 28.265625 -0.0425 14.34375 0 0 Z " fill="#FCCD44" transform="translate(100,50)"/>
<path d="M0 0 C33 0 66 0 100 0 C100 8.58 100 17.16 100 26 C99.01 25.01 98.02 24.02 97 23 C94.73606029 22.21643098 94.73606029 22.21643098 92.3125 21.8125 C91.10013672 21.57466797 91.10013672 21.57466797 89.86328125 21.33203125 C89.24839844 21.22246094 88.63351563 21.11289063 88 21 C88.9590625 19.88625 88.9590625 19.88625 89.9375 18.75 C91.84096596 16.21204538 92.39464941 14.98214819 93 12 C87.41889673 13.76734937 84.30098652 14.91097912 81 20 C80.505 19.236875 80.01 18.47375 79.5 17.6875 C76.23273154 14.17518641 73.5371256 13.43675644 69 12 C70.61268692 14.71224618 72.24901874 17.37352812 74 20 C58.16 20 42.32 20 26 20 C27.32 18.35 28.64 16.7 30 15 C30.33 14.01 30.66 13.02 31 12 C25.86395088 13.7410336 22.07999715 15.30250259 18 19 C17.29875 18.21625 16.5975 17.4325 15.875 16.625 C12.90842914 13.91639182 10.8417484 12.98277285 7 12 C8.2491742 15.45925163 9.67527795 18.14693203 12 21 C11.07767578 21.16435547 11.07767578 21.16435547 10.13671875 21.33203125 C9.32847656 21.49058594 8.52023438 21.64914063 7.6875 21.8125 C6.88699219 21.96332031 6.08648437 22.11414063 5.26171875 22.26953125 C2.60722016 22.93721836 2.60722016 22.93721836 0 26 C0 17.42 0 8.84 0 0 Z " fill="#FDCE44" transform="translate(100,50)"/>
<path d="M0 0 C16.5 0 33 0 50 0 C50.061875 4.186875 50.12375 8.37375 50.1875 12.6875 C50.22846802 14.65529419 50.22846802 14.65529419 50.27026367 16.6628418 C50.27775635 17.70609619 50.28524902 18.74935059 50.29296875 19.82421875 C50.3086792 20.88729248 50.32438965 21.95036621 50.34057617 23.0456543 C49.95045198 26.4298069 49.00056601 28.26926067 47 31 C43.88569093 33.10858724 40.44156316 34.49583732 37 36 C36.11957031 36.40863281 35.23914063 36.81726563 34.33203125 37.23828125 C27.07489444 40.43317809 22.8755285 39.91327496 15.38476562 37.0234375 C14.42086914 36.64058594 14.42086914 36.64058594 13.4375 36.25 C12.79103516 36.01023438 12.14457031 35.77046875 11.47851562 35.5234375 C6.46663367 33.54519722 2.46080287 30.92160573 0 26 C-0.08510205 24.0406396 -0.10717656 22.07837206 -0.09765625 20.1171875 C-0.09515869 19.06644043 -0.09266113 18.01569336 -0.09008789 16.93310547 C-0.08098389 15.59393066 -0.07187988 14.25475586 -0.0625 12.875 C-0.041875 8.62625 -0.02125 4.3775 0 0 Z " fill="#01A2CE" transform="translate(125,90)"/>
<path d="M0 0 C16.5 0 33 0 50 0 C50 6.6 50 13.2 50 20 C33.5 20 17 20 0 20 C0 13.4 0 6.8 0 0 Z " fill="#C6C6C5" transform="translate(125,70)"/>
<path d="M0 0 C16.5 0 33 0 50 0 C50 7.55882353 50 7.55882353 47 11 C43.79727934 12.97832839 40.44542057 14.4941514 37 16 C35.67935547 16.61294922 35.67935547 16.61294922 34.33203125 17.23828125 C27.07489444 20.43317809 22.8755285 19.91327496 15.38476562 17.0234375 C14.42086914 16.64058594 14.42086914 16.64058594 13.4375 16.25 C12.79103516 16.01023437 12.14457031 15.77046875 11.47851562 15.5234375 C6.46663367 13.54519722 2.46080287 10.92160573 0 6 C0 4.02 0 2.04 0 0 Z " fill="#029B43" transform="translate(125,110)"/>
<path d="M0 0 C2.1094829 0.27432737 4.21248576 0.59821576 6.3125 0.9375 C23.05048895 3.30282144 40.70795517 3.03451199 57.38671875 0.33984375 C58.24910156 0.22769531 59.11148438 0.11554688 60 0 C61 1 61 1 61.125 4.5 C61 8 61 8 60 9 C41.49889152 13.25991909 18.50110848 13.25991909 0 9 C-1 8 -1 8 -1.125 4.5 C-1 1 -1 1 0 0 Z " fill="#089C43" transform="translate(120,131)"/>
<path d="M0 0 C5.62917348 0.40208382 8.00386479 2.28930302 12 6 C12.680625 5.195625 13.36125 4.39125 14.0625 3.5625 C17.48477302 0.57711289 19.5428126 0.26218749 24 0 C23.59681095 2.82232335 23.20814154 3.82112836 21 5.71875 C18.34681957 8.74503393 18.40893288 10.77667796 18.25 14.75 C18.19328125 15.92046875 18.1365625 17.0909375 18.078125 18.296875 C18.05234375 19.18890625 18.0265625 20.0809375 18 21 C17.40832031 20.8453125 16.81664063 20.690625 16.20703125 20.53125 C12.84533498 19.72206293 10.46358459 19.53036141 7 20 C4.92501244 21.67337706 3.22561519 23.45604106 1.48046875 25.46875 C0.99191406 25.9740625 0.50335938 26.479375 0 27 C-0.66 27 -1.32 27 -2 27 C-2.36630156 23.06225823 -2.30233203 21.43460229 0 18.125 C0.66 17.42375 1.32 16.7225 2 16 C-0.64 15.67 -3.28 15.34 -6 15 C-5.6875 13.125 -5.6875 13.125 -5 11 C-1.81237635 8.87491756 0.26512223 8.4979837 4 8 C3.34 7.4225 2.68 6.845 2 6.25 C0 4 0 4 0 0 Z " fill="#0C9D42" transform="translate(107,62)"/>
<path d="M0 0 C4.866909 0.45273572 7.4419325 1.64525064 11 5 C11.33 5.66 11.66 6.32 12 7 C12.86625 5.824375 12.86625 5.824375 13.75 4.625 C15.86451828 2.15806201 16.98796875 1.03538574 20 0 C21.32 0 22.64 0 24 0 C23.48967606 3.77639718 22.79233071 5.44722581 20 8 C20.63808594 8.17015625 21.27617187 8.3403125 21.93359375 8.515625 C22.75988281 8.75796875 23.58617187 9.0003125 24.4375 9.25 C25.67306641 9.59804687 25.67306641 9.59804687 26.93359375 9.953125 C29 11 29 11 29.78515625 13.109375 C29.85605469 13.73328125 29.92695313 14.3571875 30 15 C27.36 15.33 24.72 15.66 22 16 C22.66 16.70125 23.32 17.4025 24 18.125 C26.30233203 21.43460229 26.36630156 23.06225823 26 27 C23.10990569 25.82255417 21.85696269 24.82835522 19.8125 22.375 C16.30285264 19.41129779 14.41980432 19.53291611 9.98828125 19.7265625 C7.92998222 19.90118187 7.92998222 19.90118187 6 21 C5.98582031 20.11957031 5.97164062 19.23914063 5.95703125 18.33203125 C5.94799651 11.95362471 5.94799651 11.95362471 3.8203125 6.12890625 C2.60094444 5.02320809 1.30468578 4.00360445 0 3 C0 2.01 0 1.02 0 0 Z " fill="#0B9D42" transform="translate(169,62)"/>
<path d="M0 0 C1.32 0 2.64 0 4 0 C4 12.21 4 24.42 4 37 C2.68 37 1.36 37 0 37 C0 24.79 0 12.58 0 0 Z " fill="#E29125" transform="translate(179,82)"/>
<path d="M0 0 C1.32 0 2.64 0 4 0 C4 12.21 4 24.42 4 37 C2.68 37 1.36 37 0 37 C0 24.79 0 12.58 0 0 Z " fill="#E29125" transform="translate(117,82)"/>
<path d="M0 0 C3.94139078 1.66751148 6.7892812 4.22710649 10 7 C8.64905419 11.05283743 6.62004582 11.87056128 3 14 C0.625 14.75 0.625 14.75 -1 15 C-2.30089831 12.39820337 -2.16840078 10.4030812 -2.1875 7.5 C-2.20167969 6.5203125 -2.21585938 5.540625 -2.23046875 4.53125 C-2 2 -2 2 0 0 Z " fill="#E3EBEE" transform="translate(146,95)"/>
<path d="M0 0 C0.66 0 1.32 0 2 0 C2.33 1.32 2.66 2.64 3 4 C4.65 4 6.3 4 8 4 C7.67 4.99 7.34 5.98 7 7 C6.34 7 5.68 7 5 7 C5.33 8.98 5.66 10.96 6 13 C5.0925 12.814375 4.185 12.62875 3.25 12.4375 C0.31685676 12.04265379 -1.2644657 12.05308428 -4 13 C-3.67 11.02 -3.34 9.04 -3 7 C-3.99 6.67 -4.98 6.34 -6 6 C-6 5.34 -6 4.68 -6 4 C-4.35 4 -2.7 4 -1 4 C-0.67 2.68 -0.34 1.36 0 0 Z " fill="#F1ECDE" transform="translate(149,53)"/>
<path d="M0 0 C6.6 0 13.2 0 20 0 C20 1.32 20 2.64 20 4 C13.4 4 6.8 4 0 4 C0 2.68 0 1.36 0 0 Z " fill="#DD9125" transform="translate(140,110)"/>
<path d="M0 0 C0.33 0 0.66 0 1 0 C1 4.29 1 8.58 1 13 C-3.29 13 -7.58 13 -12 13 C-10.35 11.68 -8.7 10.36 -7 9 C-3.98531292 6.19563993 -1.56543178 3.84242345 0 0 Z " fill="#FFFFFF" transform="translate(299,187)"/>
<path d="M0 0 C4.29 0 8.58 0 13 0 C13 4.29 13 8.58 13 13 C11.68 11.35 10.36 9.7 9 8 C6.11140659 4.96697692 3.36887567 2.52665675 0 0 Z " fill="#FFFFFF" transform="translate(287,0)"/>
<path d="M0 0 C1.62759408 2.17012544 3.2460364 4.34784456 4.8125 6.5625 C7.29033992 9.32352162 9.61884757 10.53995691 13 12 C13 12.33 13 12.66 13 13 C8.71 13 4.42 13 0 13 C0 8.71 0 4.42 0 0 Z " fill="#FFFFFF" transform="translate(0,187)"/>
<path d="M0 0 C4.29 0 8.58 0 13 0 C10.82987456 1.62759408 8.65215544 3.2460364 6.4375 4.8125 C3.67647838 7.29033992 2.46004309 9.61884757 1 13 C0.67 13 0.34 13 0 13 C0 8.71 0 4.42 0 0 Z " fill="#FFFFFF" transform="translate(0,0)"/>
<path d="M0 0 C1.65 0.33 3.3 0.66 5 1 C4.67 2.65 4.34 4.3 4 6 C2.35 5.67 0.7 5.34 -1 5 C-0.67 3.35 -0.34 1.7 0 0 Z " fill="#ECECEC" transform="translate(165,77)"/>
<path d="M0 0 C1.32 0 2.64 0 4 0 C5.125 3.75 5.125 3.75 4 6 C2.35 5.67 0.7 5.34 -1 5 C-1 1 -1 1 0 0 Z " fill="#FACE4F" transform="translate(154,77)"/>
<path d="M0 0 C1.32 0 2.64 0 4 0 C5.125 3.75 5.125 3.75 4 6 C2.35 5.67 0.7 5.34 -1 5 C-1 1 -1 1 0 0 Z " fill="#F9CE4F" transform="translate(143,77)"/>
<path d="M0 0 C2.0625 0.4375 2.0625 0.4375 4 1 C4 2.32 4 3.64 4 5 C2.68 5.33 1.36 5.66 0 6 C-0.38218767 4.34385343 -0.71395102 2.67542976 -1 1 C-0.67 0.67 -0.34 0.34 0 0 Z " fill="#EEEEEE" transform="translate(132,77)"/>
<path d="M0 0 C0.66 0.33 1.32 0.66 2 1 C-0.64 3.64 -3.28 6.28 -6 9 C-6.33 8.34 -6.66 7.68 -7 7 C-2.25 1.125 -2.25 1.125 0 0 Z " fill="#32AD67" transform="translate(9,2)"/>
</svg>
