<?xml version="1.0" encoding="UTF-8"?>
<svg version="1.1" xmlns="http://www.w3.org/2000/svg" width="300" height="200">
<path d="M0 0 C99 0 198 0 300 0 C300 66 300 132 300 200 C201 200 102 200 0 200 C0 134 0 68 0 0 Z " fill="#FECE44" transform="translate(0,0)"/>
<path d="M0 0 C99 0 198 0 300 0 C300 33 300 66 300 100 C258.09 100 216.18 100 173 100 C170 90 170 90 170 85 C171.3894043 83.39428711 171.3894043 83.39428711 173.32421875 82.02734375 C174.37319336 81.26647461 174.37319336 81.26647461 175.44335938 80.49023438 C176.18392578 79.97783203 176.92449219 79.46542969 177.6875 78.9375 C179.12926983 77.90545565 180.57068404 76.87291429 182.01171875 75.83984375 C182.69669434 75.35628418 183.38166992 74.87272461 184.08740234 74.37451172 C186.46228753 72.66777141 188.74163975 70.8574679 191 69 C190.67 67.68 190.34 66.36 190 65 C176.14 64.505 176.14 64.505 162 64 C160.05168936 60.10337873 158.4971917 56.85934067 157.17578125 52.8203125 C156.71655273 51.428125 156.71655273 51.428125 156.24804688 50.0078125 C155.93931641 49.05648437 155.63058594 48.10515625 155.3125 47.125 C154.99216797 46.15046875 154.67183594 45.1759375 154.34179688 44.171875 C153.55707308 41.78256673 152.77660523 39.39195685 152 37 C150.68 37 149.36 37 148 37 C147.59890015 38.17357056 147.59890015 38.17357056 147.18969727 39.37084961 C145.98364791 42.89410746 144.77313635 46.41581581 143.5625 49.9375 C143.14162109 51.16919922 142.72074219 52.40089844 142.28710938 53.66992188 C141.88427734 54.83974609 141.48144531 56.00957031 141.06640625 57.21484375 C140.69459229 58.29886475 140.32277832 59.38288574 139.93969727 60.49975586 C139 63 139 63 138 64 C135.9291528 64.1584265 133.85321971 64.25124422 131.77734375 64.31640625 C129.88725586 64.37924805 129.88725586 64.37924805 127.95898438 64.44335938 C126.61849264 64.48317596 125.2779978 64.52288814 123.9375 64.5625 C122.59308477 64.60568042 121.2486834 64.64929456 119.90429688 64.69335938 C116.6029766 64.79985358 113.30157764 64.9018646 110 65 C109.505 66.98 109.505 66.98 109 69 C111.37254705 70.91977089 113.74791213 72.83586557 116.125 74.75 C116.79015625 75.28882812 117.4553125 75.82765625 118.140625 76.3828125 C121.98003898 79.46940021 125.8535942 82.33906668 130 85 C129.88465396 86.56324232 129.75724874 88.12559683 129.625 89.6875 C129.55539063 90.55761719 129.48578125 91.42773438 129.4140625 92.32421875 C129 95 129 95 127 100 C85.09 100 43.18 100 0 100 C0 67 0 34 0 0 Z " fill="#213572" transform="translate(0,0)"/>
<path d="M0 0 C1.84594727 0.99633789 1.84594727 0.99633789 3.56640625 2.22265625 C4.2099707 2.67423096 4.85353516 3.12580566 5.51660156 3.59106445 C6.19174805 4.07663818 6.86689453 4.56221191 7.5625 5.0625 C9.00599615 6.07885578 10.45000981 7.09447696 11.89453125 8.109375 C12.59916504 8.60759766 13.30379883 9.10582031 14.02978516 9.61914062 C16.57102869 11.4002154 19.15558018 13.11002765 21.75 14.8125 C29.7290862 20.10673152 37.5374605 25.64727986 45.37109375 31.15332031 C49.57689505 34.10769262 53.78864969 37.05354582 58 40 C59.66669728 41.16662294 61.3333639 42.33328967 63 43.5 C63.825 44.0775 64.65 44.655 65.5 45.25 C74.66666667 51.66666667 83.83333333 58.08333333 93 64.5 C93.8259668 65.07814453 94.65193359 65.65628906 95.50292969 66.25195312 C97.15995323 67.41193441 98.81685543 68.57208904 100.47363281 69.73242188 C104.78683108 72.7528498 109.10245988 75.76971791 113.421875 78.78125 C114.31390625 79.40386719 115.2059375 80.02648437 116.125 80.66796875 C117.81691939 81.84878749 119.50957247 83.028556 121.203125 84.20703125 C123.47624194 85.79442458 125.74081553 87.39284847 128 89 C129.16499023 89.82564453 129.16499023 89.82564453 130.35351562 90.66796875 C131.45469727 91.46654297 131.45469727 91.46654297 132.578125 92.28125 C133.2371582 92.75626953 133.89619141 93.23128906 134.57519531 93.72070312 C135.04538086 94.14287109 135.51556641 94.56503906 136 95 C136 95.66 136 96.32 136 97 C133.60941235 98.19529382 132.14925217 98.1253194 129.48033142 98.12584114 C128.52313233 98.12844889 127.56593325 98.13105664 126.57972813 98.13374341 C125.52079822 98.13151268 124.46186831 98.12928196 123.37084961 98.12698364 C122.25165854 98.12854363 121.13246748 98.13010362 119.97936153 98.13171089 C116.20367581 98.13572113 112.42802982 98.13253113 108.65234375 98.12939453 C105.95581951 98.13074856 103.25929807 98.13249213 100.56277466 98.13470459 C93.98368924 98.1391604 87.40461521 98.13818665 80.82552934 98.13529195 C75.48043617 98.13303718 70.13534619 98.13272572 64.79025269 98.13381577 C64.03065213 98.133969 63.27105158 98.13412223 62.48843282 98.13428011 C60.94550935 98.13459982 59.40258588 98.13492403 57.85966241 98.1352527 C43.37825756 98.13810694 28.89685904 98.13482135 14.41545522 98.12945233 C1.97911542 98.12498434 -10.45721505 98.12576029 -22.89355469 98.13037109 C-37.32174934 98.13571784 -51.74993846 98.13783225 -66.17813396 98.13475883 C-67.71550687 98.13444027 -69.25287978 98.1341259 -70.79025269 98.13381577 C-71.5467475 98.13366149 -72.30324231 98.13350721 -73.08266121 98.13334826 C-78.42377134 98.13248341 -83.76487796 98.13394531 -89.10598755 98.13629532 C-95.61151166 98.13909463 -102.11702371 98.13835227 -108.62254643 98.13301457 C-111.94425314 98.13037934 -115.26593543 98.12990426 -118.58764267 98.13266373 C-122.18206542 98.13537548 -125.77643058 98.13199374 -129.37084961 98.12698364 C-130.95924448 98.13032973 -130.95924448 98.13032973 -132.57972813 98.13374341 C-133.53692721 98.13113566 -134.4941263 98.12852791 -135.48033142 98.12584114 C-136.3108348 98.12567879 -137.14133818 98.12551644 -137.99700832 98.12534916 C-140 98 -140 98 -142 97 C-140.48907154 92.50860993 -136.90134042 90.59180301 -133.125 88.125 C-131.66334046 87.14560798 -130.20243743 86.16508623 -128.7421875 85.18359375 C-127.96842773 84.66651855 -127.19466797 84.14944336 -126.39746094 83.61669922 C-122.31066741 80.8608187 -118.28247181 78.02200448 -114.25 75.1875 C-112.54695599 73.99337407 -110.84383022 72.79936474 -109.140625 71.60546875 C-108.29048828 71.00911621 -107.44035156 70.41276367 -106.56445312 69.79833984 C-102.37826875 66.86275016 -98.18900408 63.93156391 -94 61 C-92.33331803 59.83335519 -90.66665138 58.6666885 -89 57.5 C-85.66666667 55.16666667 -82.33333333 52.83333333 -79 50.5 C-78.17491943 49.92241943 -77.34983887 49.34483887 -76.49975586 48.74975586 C-74.83399475 47.58377189 -73.16814196 46.4179189 -71.50219727 45.25219727 C-67.32091173 42.32615547 -63.14127198 39.39781516 -58.96484375 36.46484375 C-50.07500362 30.22539074 -41.16723284 24.0164674 -32.17504883 17.92504883 C-27.91213867 15.02897512 -23.70389885 12.07485038 -19.5390625 9.0390625 C-18.63478516 8.38615234 -17.73050781 7.73324219 -16.79882812 7.06054688 C-15.05146507 5.79565514 -13.31271676 4.51875324 -11.58398438 3.22851562 C-10.79572266 2.66068359 -10.00746094 2.09285156 -9.1953125 1.5078125 C-8.50453613 0.99879395 -7.81375977 0.48977539 -7.10205078 -0.03466797 C-4.30247638 -1.32032618 -2.89635533 -0.93652367 0 0 Z " fill="#009B43" transform="translate(153,102)"/>
<path d="M0 0 C41.58 0 83.16 0 126 0 C126 33 126 66 126 100 C121.71 100 117.42 100 113 100 C113.66 99.67 114.32 99.34 115 99 C110.44371335 93.96003112 105.02809302 90.37680223 99.4375 86.5625 C97.35655855 85.12921441 95.27583316 83.69561508 93.1953125 82.26171875 C91.63151855 81.18736572 91.63151855 81.18736572 90.03613281 80.09130859 C85.61122825 77.04340473 81.21078426 73.96113751 76.8125 70.875 C75.17323019 69.72648669 73.53390737 68.57804905 71.89453125 67.4296875 C71.08838379 66.86475586 70.28223633 66.29982422 69.45166016 65.71777344 C65.30213572 62.8103791 61.15097694 59.90531999 57 57 C55.33332569 55.83334425 53.66665902 54.66667759 52 53.5 C51.175 52.9225 50.35 52.345 49.5 51.75 C42 46.5 42 46.5 39.49707031 44.74780273 C37.84035298 43.58819779 36.18345367 42.42885276 34.52636719 41.26977539 C30.20590143 38.24723608 25.88925469 35.21943758 21.578125 32.18359375 C20.68609375 31.55646484 19.7940625 30.92933594 18.875 30.28320312 C17.18110383 29.09218238 15.48831225 27.89958835 13.796875 26.70507812 C8.95867825 23.30624491 4.05056948 20.07482409 -1 17 C-0.01 16.34 0.98 15.68 2 15 C1.855625 13.824375 1.71125 12.64875 1.5625 11.4375 C1.44068359 10.44556641 1.44068359 10.44556641 1.31640625 9.43359375 C0.90705072 6.28509377 0.44901278 3.14308949 0 0 Z " fill="#FECE44" transform="translate(174,100)"/>
<path d="M0 0 C2.40893555 0.07592773 2.40893555 0.07592773 5 1 C6.39379883 3.50024414 6.39379883 3.50024414 7.45703125 6.78515625 C7.84697266 7.95498047 8.23691406 9.12480469 8.63867188 10.33007812 C9.02603516 11.56177734 9.41339844 12.79347656 9.8125 14.0625 C10.42254883 15.91584961 10.42254883 15.91584961 11.04492188 17.80664062 C12.04879608 20.86550438 13.03274917 23.92939758 14 27 C15.25659424 27.029729 15.25659424 27.029729 16.53857422 27.06005859 C19.64365834 27.13810612 22.74834539 27.22479635 25.85302734 27.31738281 C27.85886971 27.37454036 29.86498918 27.42168596 31.87109375 27.46875 C33.12792969 27.50742187 34.38476562 27.54609375 35.6796875 27.5859375 C37.42354736 27.63306885 37.42354736 27.63306885 39.20263672 27.68115234 C42 28 42 28 44 30 C43.77907669 32.48702775 43.29446835 33.68880565 41.57299805 35.50805664 C40.97527588 35.97074951 40.37755371 36.43344238 39.76171875 36.91015625 C39.10623047 37.42513672 38.45074219 37.94011719 37.77539062 38.47070312 C37.08638672 38.99599609 36.39738281 39.52128906 35.6875 40.0625 C34.67139648 40.85624023 34.67139648 40.85624023 33.63476562 41.66601562 C32.33213811 42.68086815 31.02487465 43.68980644 29.71240234 44.69189453 C28.34482463 45.7365882 26.99206233 46.8006669 25.64453125 47.87109375 C24 49 24 49 22 49 C23.77804425 56.47586785 25.8162691 63.79299312 28.23046875 71.08984375 C28.96750425 73.87710999 29.1529941 76.13531742 29 79 C25.96044385 79.94683519 24.56599169 80.28917895 21.67578125 78.8125 C20.89589844 78.214375 20.11601562 77.61625 19.3125 77 C18.44882813 76.360625 17.58515625 75.72125 16.6953125 75.0625 C14.8984375 73.6875 13.1015625 72.3125 11.3046875 70.9375 C10.44101563 70.298125 9.57734375 69.65875 8.6875 69 C7.90761719 68.401875 7.12773437 67.80375 6.32421875 67.1875 C4.05488897 65.77892408 4.05488897 65.77892408 1.44970703 66.16040039 C-1.00131179 67.0004496 -2.77469963 67.9398716 -4.8828125 69.43359375 C-5.57503906 69.91763672 -6.26726562 70.40167969 -6.98046875 70.90039062 C-8.04201172 71.66125977 -8.04201172 71.66125977 -9.125 72.4375 C-9.84042969 72.94087891 -10.55585938 73.44425781 -11.29296875 73.96289062 C-12.62138133 74.89774546 -13.9473579 75.83607884 -15.27001953 76.77905273 C-19.86126286 80.01935867 -19.86126286 80.01935867 -22.6875 79.625 C-23.8321875 79.315625 -23.8321875 79.315625 -25 79 C-24.42034851 73.17055037 -23.24618299 67.89529646 -21.5 62.3125 C-19.46625834 55.72915475 -19.46625834 55.72915475 -18 49 C-18.53882813 48.75894531 -19.07765625 48.51789063 -19.6328125 48.26953125 C-22.61126618 46.67217573 -25.18048496 44.72724103 -27.875 42.6875 C-28.40512695 42.28668213 -28.93525391 41.88586426 -29.48144531 41.47290039 C-33.07415933 38.74303395 -36.58136065 35.94382833 -40 33 C-39.125 29.125 -39.125 29.125 -38 28 C-35.9291528 27.8415735 -33.85321971 27.74875578 -31.77734375 27.68359375 C-30.51728516 27.64169922 -29.25722656 27.59980469 -27.95898438 27.55664062 C-26.61849264 27.51682404 -25.2779978 27.47711186 -23.9375 27.4375 C-22.59308477 27.39431958 -21.2486834 27.35070544 -19.90429688 27.30664062 C-16.6029766 27.20014642 -13.30157764 27.0981354 -10 27 C-9.59890015 25.82642944 -9.59890015 25.82642944 -9.18969727 24.62915039 C-7.98364791 21.10589254 -6.77313635 17.58418419 -5.5625 14.0625 C-5.14162109 12.83080078 -4.72074219 11.59910156 -4.28710938 10.33007812 C-3.68286133 8.5753418 -3.68286133 8.5753418 -3.06640625 6.78515625 C-2.69459229 5.70113525 -2.32277832 4.61711426 -1.93969727 3.50024414 C-1 1 -1 1 0 0 Z " fill="#EDEDED" transform="translate(148,36)"/>
<path d="M0 0 C0.33 0 0.66 0 1 0 C1 4.29 1 8.58 1 13 C-3.29 13 -7.58 13 -12 13 C-10.35 11.68 -8.7 10.36 -7 9 C-3.98531292 6.19563993 -1.56543178 3.84242345 0 0 Z " fill="#FFFFFF" transform="translate(299,187)"/>
<path d="M0 0 C1.32 1.65 2.64 3.3 4 5 C6.88859341 8.03302308 9.63112433 10.47334325 13 13 C8.71 13 4.42 13 0 13 C0 8.71 0 4.42 0 0 Z " fill="#FFFFFF" transform="translate(0,187)"/>
<path d="M0 0 C4.29 0 8.58 0 13 0 C13 4.29 13 8.58 13 13 C11.37240592 10.82987456 9.7539636 8.65215544 8.1875 6.4375 C5.70966008 3.67647838 3.38115243 2.46004309 0 1 C0 0.67 0 0.34 0 0 Z " fill="#FFFFFF" transform="translate(287,0)"/>
<path d="M0 0 C4.29 0 8.58 0 13 0 C10.82987456 1.62759408 8.65215544 3.2460364 6.4375 4.8125 C3.67647838 7.29033992 2.46004309 9.61884757 1 13 C0.67 13 0.34 13 0 13 C0 8.71 0 4.42 0 0 Z " fill="#FFFFFF" transform="translate(0,0)"/>
</svg>
