<?xml version="1.0" encoding="UTF-8"?>
<svg version="1.1" xmlns="http://www.w3.org/2000/svg" width="300" height="200">
<path d="M0 0 C99 0 198 0 300 0 C300 66 300 132 300 200 C201 200 102 200 0 200 C0 134 0 68 0 0 Z " fill="#F7C302" transform="translate(0,0)"/>
<path d="M0 0 C0 45.87 0 91.74 0 139 C-99 139 -198 139 -300 139 C-300 126.46 -300 113.92 -300 101 C-293.4556311 101.07238892 -293.4556311 101.07238892 -286.77905273 101.14624023 C-272.28654077 101.29542814 -257.79450144 101.36154925 -243.30126858 101.38603115 C-234.52252854 101.40285109 -225.74561681 101.44708861 -216.9675293 101.55883789 C-209.30492356 101.65631373 -201.6441452 101.69932792 -193.98091274 101.68036038 C-189.93262271 101.6721524 -185.88833394 101.68887939 -181.84078789 101.77114677 C-160.12958268 102.19040338 -146.01484148 99.70884168 -129 85 C-127.26847042 86.07955259 -125.53988316 87.16382512 -123.8125 88.25 C-122.84957031 88.85328125 -121.88664063 89.4565625 -120.89453125 90.078125 C-118 92 -118 92 -115.3125 94.25 C-113.10618157 96.32677367 -113.10618157 96.32677367 -110.1875 95.75 C-109.465625 95.5025 -108.74375 95.255 -108 95 C-108.45571042 88.96183693 -109.95414306 83.95702948 -112.16015625 78.3203125 C-113 76 -113 76 -113 74 C-111.61894226 72.85368347 -111.61894226 72.85368347 -109.64331055 71.57104492 C-108.89955673 71.08309448 -108.15580292 70.59514404 -107.38951111 70.09240723 C-106.56358963 69.56046753 -105.73766815 69.02852783 -104.88671875 68.48046875 C-104.02675797 67.91831665 -103.16679718 67.35616455 -102.28077698 66.77697754 C-100.40649038 65.55245823 -98.53021045 64.33098596 -96.65222168 63.1121521 C-91.61127836 59.83964858 -86.58550318 56.54400424 -81.55859375 53.25 C-80.00019272 52.22987068 -80.00019272 52.22987068 -78.41030884 51.18913269 C-67.62452539 44.11890601 -56.93122012 36.9143376 -46.25 29.6875 C-44.44636911 28.46863153 -42.64265914 27.24988009 -40.83886719 26.03125 C-37.4385735 23.73365122 -34.03866432 21.43548552 -30.63916016 19.13671875 C-24.24384311 14.81245606 -17.84695864 10.49078072 -11.4375 6.1875 C-9.99262207 5.20946411 -9.99262207 5.20946411 -8.51855469 4.21166992 C-7.23899902 3.35472534 -7.23899902 3.35472534 -5.93359375 2.48046875 C-5.21228271 1.99473389 -4.49097168 1.50899902 -3.74780273 1.00854492 C-2 0 -2 0 0 0 Z " fill="#D42C22" transform="translate(300,61)"/>
<path d="M0 0 C68.97 0 137.94 0 209 0 C205.86451856 2.50838515 202.87967222 4.83554702 199.58032227 7.06860352 C198.73917374 7.63922012 197.89802521 8.20983673 197.03138733 8.79774475 C195.68747169 9.70416969 195.68747169 9.70416969 194.31640625 10.62890625 C193.3832811 11.25981674 192.45015594 11.89072723 191.48875427 12.54075623 C189.52019003 13.8706487 187.55085853 15.19940608 185.58081055 16.52709961 C182.57379785 18.55488128 179.5709756 20.5887627 176.56835938 22.62304688 C174.6512943 23.91704102 172.73398469 25.21067298 170.81640625 26.50390625 C169.47552696 27.41336754 169.47552696 27.41336754 168.1075592 28.34120178 C163.84462266 31.20637169 159.67218634 33.85820287 155 36 C154.01 34.35 153.02 32.7 152 31 C150.35 31.33 148.7 31.66 147 32 C146.81566406 32.78503906 146.63132813 33.57007813 146.44140625 34.37890625 C146.15136719 35.42949219 145.86132812 36.48007812 145.5625 37.5625 C145.29566406 38.59503906 145.02882812 39.62757812 144.75390625 40.69140625 C139.79169658 50.0521893 126.36158715 56.3654458 117.68994141 62.15429688 C115.97745606 63.3031258 114.2710464 64.4610626 112.57080078 65.62792969 C110.08443648 67.33338504 107.5801274 69.0089951 105.0703125 70.6796875 C103.95101852 71.45927322 103.95101852 71.45927322 102.80911255 72.25460815 C96.99117012 76.05823121 91.90692033 76.89508194 85 77 C84.855625 77.5775 84.71125 78.155 84.5625 78.75 C84.376875 79.4925 84.19125 80.235 84 81 C83.88791199 81.68641068 83.77582397 82.37282135 83.66033936 83.08003235 C82.78584677 85.62266055 81.67862972 86.27159136 79.43457031 87.71948242 C78.29053238 88.47018509 78.29053238 88.47018509 77.12338257 89.23605347 C76.28344757 89.77046051 75.44351257 90.30486755 74.578125 90.85546875 C73.70217682 91.42645294 72.82622864 91.99743713 71.92373657 92.58572388 C69.03914019 94.46344866 66.1446132 96.32526186 63.25 98.1875 C59.23375788 100.79453797 55.22255784 103.40929519 51.2109375 106.0234375 C50.19311188 106.68505386 49.17528625 107.34667023 48.12661743 108.02833557 C41.34332519 112.44491068 34.60956025 116.92806719 27.9140625 121.4765625 C26.62574524 122.35176292 26.62574524 122.35176292 25.31140137 123.24464417 C22.02290295 125.48185949 18.7366881 127.72233081 15.4552002 129.96981812 C13.2199614 131.50040522 10.98128928 133.02585378 8.7421875 134.55078125 C7.75310898 135.2329924 7.75310898 135.2329924 6.74404907 135.9289856 C2.22618367 139 2.22618367 139 0 139 C0 93.13 0 47.26 0 0 Z " fill="#01A2CD" transform="translate(0,0)"/>
<path d="M0 0 C2.02450336 0.0130764 4.04902907 0.02303091 6.07356262 0.03001404 C11.36933929 0.05657888 16.66374475 0.1252002 21.95898438 0.20294189 C27.37546241 0.27490239 32.79216479 0.30659533 38.20898438 0.34179688 C48.81309826 0.41658341 59.41620017 0.53585532 70.01953125 0.68359375 C76.88629561 49.8660326 76.88629561 49.8660326 68.37957764 64.50592041 C60.05731754 74.75710496 47.10767196 80.4418014 35.4291687 86.00891113 C24.89718066 91.03533144 15.53189119 97.3985357 5.99963379 104.08950806 C1.58083378 107.17540712 -2.89529274 110.17541964 -7.3671875 113.18359375 C-9.02554011 114.30422557 -10.68358982 115.42530577 -12.34130859 116.546875 C-18.73662564 120.87113769 -25.13351011 125.19281303 -31.54296875 129.49609375 C-32.5062207 130.14811768 -33.46947266 130.8001416 -34.46191406 131.47192383 C-35.74146973 132.32886841 -35.74146973 132.32886841 -37.046875 133.203125 C-37.76818604 133.68885986 -38.48949707 134.17459473 -39.23266602 134.67504883 C-40.98046875 135.68359375 -40.98046875 135.68359375 -42.98046875 135.68359375 C-44.16214458 132.3136626 -45.32307453 128.93693364 -46.48046875 125.55859375 C-46.98126953 124.13160156 -46.98126953 124.13160156 -47.4921875 122.67578125 C-50.97444083 112.44222043 -50.97444083 112.44222043 -49.98046875 108.68359375 C-47.61052475 106.22932741 -44.88090912 104.43302693 -42.04296875 102.55859375 C-41.24060791 102.00236328 -40.43824707 101.44613281 -39.61157227 100.87304688 C-37.08137346 99.12245491 -34.53403234 97.39989153 -31.98046875 95.68359375 C-29.54239177 94.0420503 -27.1073351 92.39715417 -24.68334961 90.73486328 C-23.19927949 89.71861352 -21.70550457 88.71636038 -20.20141602 87.72998047 C-16.18554534 85.05726403 -16.18554534 85.05726403 -13.953125 80.90234375 C-13.72187126 78.70941144 -13.72187126 78.70941144 -14.98046875 77.68359375 C-16.40736626 77.58732422 -17.83890184 77.55843926 -19.26904297 77.55761719 C-20.18023895 77.55381042 -21.09143494 77.55000366 -22.03024292 77.54608154 C-23.02186432 77.54505432 -24.01348572 77.5440271 -25.03515625 77.54296875 C-27.11459431 77.52464334 -29.19402171 77.50507327 -31.2734375 77.484375 C-34.56772823 77.45536124 -37.86133478 77.43359288 -41.15576172 77.43310547 C-44.32451803 77.42978143 -47.49167611 77.39529219 -50.66015625 77.35546875 C-52.14151566 77.3660733 -52.14151566 77.3660733 -53.65280151 77.37689209 C-56.18944726 77.33150783 -58.50462083 77.23624714 -60.98046875 76.68359375 C-62.98852539 74.52368164 -62.98852539 74.52368164 -63.98046875 71.68359375 C-64.54229858 70.23859497 -64.54229858 70.23859497 -65.11547852 68.7644043 C-65.46408936 67.710354 -65.8127002 66.65630371 -66.171875 65.5703125 C-66.75291992 63.82137695 -66.75291992 63.82137695 -67.34570312 62.03710938 C-67.74080078 60.82732422 -68.13589844 59.61753906 -68.54296875 58.37109375 C-69.14141602 56.57381836 -69.14141602 56.57381836 -69.75195312 54.74023438 C-71.72730089 48.75483171 -73.49544646 42.80717824 -74.98046875 36.68359375 C-69.05943289 32.67963478 -63.13681167 28.67802912 -57.21313477 24.67797852 C-55.2023609 23.31978323 -53.19193715 21.96106944 -51.18188477 20.60180664 C-48.27584513 18.63678406 -45.36850918 16.67369224 -42.4609375 14.7109375 C-41.57713913 14.1127269 -40.69334076 13.5145163 -39.78276062 12.8981781 C-38.04846846 11.72847545 -36.30444564 10.57306961 -34.5509491 9.43235779 C-31.95450798 7.72716575 -31.95450798 7.72716575 -29.61860657 5.71327209 C-20.60743392 -1.28018856 -10.86294118 -0.20708869 0 0 Z " fill="#EFEFEF" transform="translate(229.98046875,-0.68359375)"/>
<path d="M0 0 C0 33.33 0 66.66 0 101 C-50.16 101 -100.32 101 -152 101 C-148.85423512 98.4833881 -145.90085967 96.1861805 -142.57421875 93.984375 C-141.38022461 93.19160156 -141.38022461 93.19160156 -140.16210938 92.3828125 C-139.34548828 91.84398437 -138.52886719 91.30515625 -137.6875 90.75 C-136.85154297 90.19570312 -136.01558594 89.64140625 -135.15429688 89.0703125 C-133.10425208 87.71142566 -131.05279662 86.3547247 -129 85 C-127.26847042 86.07955259 -125.53988316 87.16382512 -123.8125 88.25 C-122.84957031 88.85328125 -121.88664062 89.4565625 -120.89453125 90.078125 C-118 92 -118 92 -115.3125 94.25 C-113.10618157 96.32677367 -113.10618157 96.32677367 -110.1875 95.75 C-109.465625 95.5025 -108.74375 95.255 -108 95 C-108.45571042 88.96183693 -109.95414306 83.95702948 -112.16015625 78.3203125 C-113 76 -113 76 -113 74 C-111.61894226 72.85368347 -111.61894226 72.85368347 -109.64331055 71.57104492 C-108.89955673 71.08309448 -108.15580292 70.59514404 -107.38951111 70.09240723 C-106.56358963 69.56046753 -105.73766815 69.02852783 -104.88671875 68.48046875 C-103.59677757 67.6372406 -103.59677757 67.6372406 -102.28077698 66.77697754 C-100.40649038 65.55245823 -98.53021045 64.33098596 -96.65222168 63.1121521 C-91.61127836 59.83964858 -86.58550318 56.54400424 -81.55859375 53.25 C-80.00019272 52.22987068 -80.00019272 52.22987068 -78.41030884 51.18913269 C-67.62452539 44.11890601 -56.93122012 36.9143376 -46.25 29.6875 C-44.44636911 28.46863153 -42.64265914 27.24988009 -40.83886719 26.03125 C-37.4385735 23.73365122 -34.03866432 21.43548552 -30.63916016 19.13671875 C-24.24384311 14.81245606 -17.84695864 10.49078072 -11.4375 6.1875 C-9.99262207 5.20946411 -9.99262207 5.20946411 -8.51855469 4.21166992 C-7.66551758 3.64037354 -6.81248047 3.06907715 -5.93359375 2.48046875 C-5.21228271 1.99473389 -4.49097168 1.50899902 -3.74780273 1.00854492 C-2 0 -2 0 0 0 Z " fill="#009B43" transform="translate(300,61)"/>
<path d="M0 0 C3.99533719 2.233232 7.81982397 4.45961802 11.48828125 7.20703125 C12.6652356 8.08270752 12.6652356 8.08270752 13.8659668 8.97607422 C15.07700073 9.88510498 15.07700073 9.88510498 16.3125 10.8125 C17.99152439 12.0620894 19.67120603 13.3107962 21.3515625 14.55859375 C22.15110352 15.15269043 22.95064453 15.74678711 23.77441406 16.35888672 C27.7924137 19.32169865 31.87909767 22.18210792 36 25 C35.53111136 31.03518295 34.470077 36.42642074 32.49609375 42.140625 C32.2533522 42.87069763 32.01061066 43.60077026 31.76051331 44.35296631 C30.99460232 46.65490529 30.21735556 48.95275108 29.4375 51.25 C28.65463845 53.56169589 27.87461506 55.87414628 27.10377502 58.18988037 C26.62682242 59.62249634 26.14306214 61.05286967 25.651474 62.48052979 C24.44628681 66.09762948 23.72046056 69.18131628 24 73 C27.57816396 74.06766705 27.57816396 74.06766705 31.04199219 73.01879883 C31.70360352 72.50341553 32.36521484 71.98803223 33.046875 71.45703125 C33.80145996 70.88275391 34.55604492 70.30847656 35.33349609 69.71679688 C36.13094238 69.08837891 36.92838867 68.45996094 37.75 67.8125 C39.44456347 66.52635627 41.13989267 65.24122088 42.8359375 63.95703125 C44.12129395 62.97210693 44.12129395 62.97210693 45.43261719 61.96728516 C49.38531941 58.93848385 53.35959429 55.94513271 57.375 53 C58.06948242 52.46608643 58.76396484 51.93217285 59.47949219 51.38208008 C64.25086488 47.90349306 64.25086488 47.90349306 67.42578125 48.3125 C68.27527344 48.869375 69.12476563 49.42625 70 50 C70.65226563 50.42152344 71.30453125 50.84304687 71.9765625 51.27734375 C74.2907546 52.80527794 76.55229723 54.39341832 78.8125 56 C79.99489258 56.81984375 79.99489258 56.81984375 81.20117188 57.65625 C81.94560547 58.1821875 82.69003906 58.708125 83.45703125 59.25 C84.4776062 59.96929687 84.4776062 59.96929687 85.51879883 60.703125 C86.25199341 61.34507812 86.25199341 61.34507812 87 62 C87 64 87 64 85.43807888 65.58075809 C68.03372152 79.83314714 53.41866129 81.11299573 31.78243375 80.52090907 C27.69633469 80.42559564 23.60997317 80.4182103 19.52293396 80.40052795 C11.82269594 80.35434517 4.12574406 80.2318847 -3.573062 80.08028561 C-12.3540964 79.91121915 -21.135308 79.82980518 -29.91757095 79.75485408 C-47.94689395 79.59906756 -65.97318071 79.33612642 -84 79 C-84.24071877 75.32700049 -84.38529642 71.65604336 -84.51367188 67.97753906 C-84.61696808 66.4280809 -84.61696808 66.4280809 -84.72235107 64.84732056 C-84.92012431 57.2826821 -84.92012431 57.2826821 -82.32381821 53.66335011 C-78.72119305 50.23562053 -74.7486401 47.41186706 -70.37988281 45.03393555 C-68.94159119 44.22972672 -68.94159119 44.22972672 -67.47424316 43.40927124 C-66.49274292 42.86171173 -65.51124268 42.31415222 -64.5 41.75 C-62.51120864 40.55818843 -60.52784854 39.35727045 -58.54980469 38.14770508 C-54.45572135 35.65109105 -50.34209621 33.19241808 -46.21289062 30.75439453 C-37.19802869 25.37442677 -28.55927581 19.44234711 -19.9050293 13.50622559 C-16.45751037 11.1446355 -12.99632884 8.80354597 -9.53448486 6.46302795 C-6.35376966 4.31244163 -3.17687296 2.15625688 0 0 Z " fill="#EFEFEF" transform="translate(84,83)"/>
<path d="M0 0 C4.88810742 0.11433247 9.77652775 0.12323521 14.665766 0.14445734 C23.87845171 0.19988906 33.08718482 0.34685915 42.29814774 0.52874815 C52.80345188 0.73158832 63.30896858 0.82931493 73.81575072 0.91926599 C95.38638568 1.1062382 116.95325841 1.42551926 138.52091432 1.82509089 C138.52091432 9.08509089 138.52091432 16.34509089 138.52091432 23.82509089 C69.55091432 23.82509089 0.58091432 23.82509089 -70.47908568 23.82509089 C-68.82908568 22.50509089 -67.17908568 21.18509089 -65.47908568 19.82509089 C-64.69042963 19.13916927 -63.90177358 18.45324766 -63.08921885 17.74654055 C-43.14487802 0.64036804 -25.55594268 -0.70118036 0 0 Z " fill="#009B43" transform="translate(161.47908568382263,176.17490911483765)"/>
<path d="M0 0 C40.59 0 81.18 0 123 0 C121.35 1.32 119.7 2.64 118 4 C117.24188522 4.68923553 116.48377045 5.37847107 115.7026825 6.08859253 C94.82546955 24.92544479 73.93643839 24.28967075 46.96191406 23.23596191 C41.65237717 23.04889335 36.34120707 22.9690098 31.02929688 22.87890625 C20.68133327 22.68816862 10.34300552 22.37279555 0 22 C0 14.74 0 7.48 0 0 Z " fill="#EFEFEF" transform="translate(0,178)"/>
<path d="M0 0 C1 2 1 2 0.3190918 4.67382812 C-0.05046631 5.78177734 -0.42002441 6.88972656 -0.80078125 8.03125 C-1.40116211 9.83529297 -1.40116211 9.83529297 -2.01367188 11.67578125 C-2.22693115 12.30307129 -2.44019043 12.93036133 -2.65991211 13.57666016 C-3.30885785 15.48926567 -3.94333015 17.40623288 -4.57617188 19.32421875 C-7.73999319 28.73999319 -7.73999319 28.73999319 -10 31 C-12.65291757 31.17510386 -15.19986174 31.23155483 -17.8515625 31.1953125 C-18.62559418 31.1924826 -19.39962585 31.18965271 -20.19711304 31.18673706 C-22.67323157 31.17552754 -25.1489905 31.15042203 -27.625 31.125 C-29.30207812 31.11497118 -30.97916189 31.10584516 -32.65625 31.09765625 C-36.77097223 31.07558574 -40.88542511 31.04105102 -45 31 C-40.47919869 27.22261935 -35.6467073 23.98193476 -30.76171875 20.703125 C-29.88095169 20.10949158 -29.00018463 19.51585815 -28.09272766 18.90423584 C-25.29234459 17.0174625 -22.4899559 15.1336928 -19.6875 13.25 C-17.7830698 11.9676459 -15.87877143 10.68509598 -13.97460938 9.40234375 C-9.31793097 6.26595938 -4.65960434 3.13203555 0 0 Z " fill="#EEEEEA" transform="translate(141,45)"/>
<path d="M0 0 C0.33 0 0.66 0 1 0 C1 4.29 1 8.58 1 13 C-3.29 13 -7.58 13 -12 13 C-10.68 12.01 -9.36 11.02 -8 10 C-4.65130212 6.89632879 -2.25987319 3.95477808 0 0 Z " fill="#FFFFFF" transform="translate(299,187)"/>
<path d="M0 0 C1.62759408 2.17012544 3.2460364 4.34784456 4.8125 6.5625 C7.29033992 9.32352162 9.61884757 10.53995691 13 12 C13 12.33 13 12.66 13 13 C8.71 13 4.42 13 0 13 C0 8.71 0 4.42 0 0 Z " fill="#FFFFFF" transform="translate(0,187)"/>
<path d="M0 0 C4.29 0 8.58 0 13 0 C13 4.29 13 8.58 13 13 C11.37240592 10.82987456 9.7539636 8.65215544 8.1875 6.4375 C5.70966008 3.67647838 3.38115243 2.46004309 0 1 C0 0.67 0 0.34 0 0 Z " fill="#FFFFFF" transform="translate(287,0)"/>
<path d="M0 0 C4.29 0 8.58 0 13 0 C10.82987456 1.62759408 8.65215544 3.2460364 6.4375 4.8125 C3.67647838 7.29033992 2.46004309 9.61884757 1 13 C0.67 13 0.34 13 0 13 C0 8.71 0 4.42 0 0 Z " fill="#FFFFFF" transform="translate(0,0)"/>
</svg>
