<?xml version="1.0" encoding="UTF-8"?>
<svg version="1.1" xmlns="http://www.w3.org/2000/svg" width="300" height="200">
<path d="M0 0 C99 0 198 0 300 0 C300 66 300 132 300 200 C201 200 102 200 0 200 C0 134 0 68 0 0 Z " fill="#FECE43" transform="translate(0,0)"/>
<path d="M0 0 C36.4940213 -0.06610499 72.98798625 -0.1215095 109.48205025 -0.15319599 C113.78800106 -0.15694822 118.09395173 -0.16083118 122.39990234 -0.16479492 C123.68578814 -0.16597532 123.68578814 -0.16597532 124.99765143 -0.16717956 C138.88830099 -0.1802426 152.77891341 -0.20390138 166.66954091 -0.23145839 C180.91675425 -0.25948762 195.1639481 -0.276171 209.41118789 -0.28226548 C218.20641291 -0.28638709 227.00153294 -0.29941675 235.79672566 -0.3237494 C241.8234037 -0.33957598 247.85002725 -0.34440736 253.87672457 -0.34050413 C257.35670009 -0.33857776 260.83649181 -0.34158367 264.31643486 -0.35761642 C268.0855559 -0.37245961 271.85422129 -0.36898317 275.62335205 -0.36076355 C276.72840285 -0.36950207 277.83345364 -0.3782406 278.97199082 -0.38724393 C280.48353891 -0.37828421 280.48353891 -0.37828421 282.02562332 -0.36914349 C282.89594232 -0.37028265 283.76626132 -0.37142181 284.66295362 -0.37259549 C287.47889077 0.07634959 288.87726718 1.1439098 291 3 C268.49720078 10.74095062 245.96081476 18.37560789 223.37890625 25.8828125 C222.24577374 26.25962914 221.11264122 26.63644577 219.94517136 27.02468109 C209.41901274 30.52468523 198.89150734 34.02062789 188.36303711 37.51367188 C182.51830567 39.45297232 176.67456121 41.39522274 170.83140373 43.3392601 C168.63788702 44.06837994 166.44399288 44.7963654 164.24969673 45.52313614 C161.20663574 46.53105331 158.16484236 47.54271369 155.12329102 48.55517578 C154.24182907 48.8460759 153.36036713 49.13697601 152.45219421 49.43669128 C148.18664174 50.86075497 143.99571061 52.37980903 139.83128357 54.07865906 C135.80036652 55.71615557 131.77406299 57.02558834 127.57617188 58.1862793 C115.18037101 61.71895578 102.99964465 65.92441153 90.78125 70.01953125 C88.18500066 70.88745445 85.58841356 71.75436497 82.99182129 72.6212616 C76.90126002 74.65520797 70.81164444 76.69196852 64.72245455 78.73001641 C53.77595602 82.39376712 42.82825424 86.053917 31.87954855 89.71106642 C28.67068586 90.78303026 25.46208604 91.85576908 22.25404358 92.93018532 C18.6977726 94.12112559 15.14093336 95.31035414 11.58398438 96.49926758 C10.52025101 96.85609116 9.45651764 97.21291473 8.36054993 97.58055115 C7.39928696 97.90147736 6.43802399 98.22240356 5.44763184 98.55305481 C4.60783531 98.83416013 3.76803879 99.11526545 2.90279388 99.40488911 C1 100 1 100 0 100 C0 67 0 34 0 0 Z " fill="#009A42" transform="translate(0,0)"/>
<path d="M0 0 C4.29 0 8.58 0 13 0 C13 33 13 66 13 100 C1.74978781 104.50008487 1.74978781 104.50008487 -2.73129272 105.99284363 C-3.74895721 106.33346329 -4.7666217 106.67408295 -5.81512451 107.02502441 C-7.43490204 107.5621405 -7.43490204 107.5621405 -9.08740234 108.11010742 C-10.25286591 108.49922806 -11.41832947 108.88834869 -12.61911011 109.28926086 C-15.78324724 110.34498909 -18.94824424 111.39805773 -22.1137042 112.44980788 C-25.43833371 113.55506732 -28.76189483 114.66353084 -32.08560181 115.77156067 C-37.65778741 117.62864493 -43.23073844 119.48341645 -48.80419922 121.33666992 C-55.24336506 123.47780184 -61.68147112 125.62209515 -68.11898839 127.76817816 C-74.99005378 130.05875845 -81.86187818 132.3470548 -88.73392916 134.63467622 C-90.70913165 135.29236745 -92.68419213 135.95048361 -94.65922165 136.60869408 C-98.3352039 137.83362432 -102.01203382 139.05599669 -105.68896484 140.27807617 C-106.78096191 140.64222626 -107.87295898 141.00637634 -108.99804688 141.38156128 C-109.99879242 141.71372147 -110.99953796 142.04588165 -112.03060913 142.3881073 C-113.33297799 142.82139233 -113.33297799 142.82139233 -114.66165733 143.2634306 C-116.76222238 143.92510092 -118.8573859 144.49363891 -121 145 C-118.48917747 142.48917747 -115.97916578 139.97967393 -113.4375 137.5 C-103.57277378 127.38233208 -98.98308447 114.10563875 -98.625 100.0625 C-98.98583769 86.39577258 -102.90486657 72.63759698 -112.44140625 62.45703125 C-121.33936864 54.13888596 -130.02083434 52.52956677 -142 52 C-139.04092943 50.02728629 -136.64338544 49.09122325 -133.28633118 47.97518921 C-132.09581146 47.57697464 -130.90529175 47.17876007 -129.67869568 46.76847839 C-128.35784617 46.33173425 -127.03696813 45.89507638 -125.71606445 45.45849609 C-124.3263482 44.99553941 -122.93676394 44.53218634 -121.54730225 44.06846619 C-117.77413988 42.8104582 -113.99915176 41.55801312 -110.22381616 40.30654478 C-106.27893398 38.99783041 -102.33574754 37.68402693 -98.39237976 36.37075806 C-90.92444857 33.88455719 -83.45499959 31.40294916 -75.98499697 28.92297995 C-67.48088551 26.099449 -58.97847485 23.27081379 -50.47620451 20.44174457 C-32.98602524 14.62214063 -15.4937161 8.80896305 2 3 C1.01 1.515 1.01 1.515 0 0 Z " fill="#D8251D" transform="translate(287,0)"/>
<path d="M0 0 C-0.49628906 0.31710938 -0.99257812 0.63421875 -1.50390625 0.9609375 C-11.91739994 8.11403943 -17.38439632 18.65517618 -20.25 30.75 C-23.19381366 47.90440505 -19.28849662 63.3751376 -9.8203125 77.796875 C-2.59910395 87.45835402 7.87059787 89.67852962 19 92 C16.0832663 93.94448913 13.73644442 94.88439307 10.43386841 95.99357605 C9.27581696 96.38482162 8.1177655 96.7760672 6.92462158 97.1791687 C5.64004875 97.60807333 4.35544062 98.03687227 3.07080078 98.46557617 C1.71876407 98.92033871 0.36684843 99.37546136 -0.98495483 99.83091736 C-4.65703886 101.06663265 -8.33108802 102.29639865 -12.00573874 103.52445769 C-14.30113931 104.29178263 -16.59615857 105.06023718 -18.89105606 105.82906532 C-26.89626006 108.51071208 -34.90322252 111.18704031 -42.91162109 113.85913086 C-50.37844728 116.3506981 -57.84104243 118.85465077 -65.30183399 121.36422366 C-71.70673413 123.51794947 -78.11467436 125.66245253 -84.52502072 127.79991323 C-88.35396637 129.07684258 -92.18152854 130.35759775 -96.00600815 131.64784813 C-99.60252167 132.86088236 -103.20267143 134.0624226 -106.80594254 135.25522804 C-108.12754763 135.69489981 -109.44779476 136.13867796 -110.76654053 136.58685303 C-112.56726573 137.19812226 -114.37347436 137.79316645 -116.17990112 138.38737488 C-117.18905516 138.72491885 -118.19820919 139.06246283 -119.23794365 139.4102354 C-122.24411664 140.0521247 -124.07824598 139.89204819 -127 139 C-130.58476746 136.24838847 -132.59823649 132.4703888 -133.32311249 128.01322556 C-133.85035356 122.04860973 -133.68770626 116.06985824 -133.5859375 110.08984375 C-133.57473299 108.1521588 -133.56619874 106.21445675 -133.56021118 104.27674866 C-133.53741162 99.201388 -133.47856566 94.12707399 -133.4119873 89.05212402 C-133.3503725 83.86366938 -133.32315531 78.67504396 -133.29296875 73.48632812 C-133.22881319 63.32376142 -133.12654218 53.16196808 -133 43 C-125.72389955 39.98801416 -118.36447832 37.35255047 -110.89672852 34.8581543 C-109.72965866 34.46582108 -108.56258881 34.07348785 -107.3601532 33.66926575 C-104.19201823 32.60521601 -101.02301124 31.54386036 -97.85336423 30.48432899 C-95.87079866 29.82150818 -93.8884669 29.15799261 -91.90620232 28.49427223 C-85.6958642 26.41507819 -79.484746 24.3382399 -73.2724548 22.26488847 C-66.11316104 19.87545753 -58.95656689 17.47815468 -51.80216271 15.07412404 C-46.25672587 13.21125858 -40.70901665 11.35527447 -35.15951675 9.50454837 C-31.84988887 8.40064002 -28.5413002 7.29382891 -25.23504829 6.17984581 C-21.55915994 4.94157209 -17.8786129 3.71756294 -14.19750977 2.49487305 C-12.55412125 1.93786209 -12.55412125 1.93786209 -10.87753296 1.36959839 C-9.87816208 1.04018753 -8.8787912 0.71077667 -7.84913635 0.37138367 C-6.97996865 0.08068339 -6.11080095 -0.21001688 -5.21529484 -0.50952625 C-3 -1 -3 -1 0 0 Z " fill="#D8251D" transform="translate(133,57)"/>
<path d="M0 0 C0.67546875 0.43441406 1.3509375 0.86882813 2.046875 1.31640625 C2.80484375 1.80238281 3.5628125 2.28835937 4.34375 2.7890625 C15.33919451 10.59287631 21.44857808 22.44286181 23.73046875 35.55859375 C25.66763487 52.44302928 21.75783699 68.77342817 11.234375 82.31640625 C4.07895065 89.87360577 -5.12004045 93.33319117 -15.328125 93.62890625 C-26.2296131 93.39218822 -33.11656585 89.93899792 -40.953125 82.31640625 C-51.46472316 69.96872108 -55.02891223 54.12877095 -53.953125 38.31640625 C-52.09179278 24.83347872 -46.56300486 12.16760728 -35.75390625 3.56640625 C-25.68823692 -3.54279314 -11.25280684 -6.07059316 0 0 Z " fill="#EDEBEB" transform="translate(164.953125,54.68359375)"/>
<path d="M0 0 C5.1165788 0.65163975 9.53875174 4.06721145 13.90625 6.6015625 C17.18922076 8.08553161 17.79539607 8.20829328 21 7 C22.6647181 6.90929421 24.33282033 6.86991714 26 6.875 C27.2684375 6.87113281 27.2684375 6.87113281 28.5625 6.8671875 C31 7 31 7 32.875 7.7578125 C36.45575799 8.16591359 39.09003243 5.86286627 42 4 C48.35215947 -0.06644518 48.35215947 -0.06644518 51.4375 0.25 C51.953125 0.4975 52.46875 0.745 53 1 C54.22220123 15.44573953 54.22220123 15.44573953 51.2890625 19.17578125 C48.53021033 20.86395974 46.26380521 22 43 22 C43.08701172 23.34191406 43.08701172 23.34191406 43.17578125 24.7109375 C43.48526661 33.00514524 42.93072968 39.15325308 38 46 C33.22618136 50.55178056 29.97469885 51.37145207 23.53515625 51.26953125 C19.69716341 50.86148579 17.81120395 49.61507344 15 47 C10.51392136 40.94135576 8.86764098 36.42713331 8.9375 28.8125 C8.94652344 27.54019531 8.95554688 26.26789063 8.96484375 24.95703125 C8.97644531 23.98121094 8.98804688 23.00539063 9 22 C8.278125 21.731875 7.55625 21.46375 6.8125 21.1875 C5.884375 20.795625 4.95625 20.40375 4 20 C2.61941406 19.44699219 2.61941406 19.44699219 1.2109375 18.8828125 C-1 17 -1 17 -1.5234375 13.2421875 C-1.49956251 11.78581338 -1.44914019 10.32968169 -1.375 8.875 C-1.36082031 8.13378906 -1.34664063 7.39257812 -1.33203125 6.62890625 C-1.18268327 1.18268327 -1.18268327 1.18268327 0 0 Z " fill="#0DA3C8" transform="translate(124,71)"/>
<path d="M0 0 C3.52366821 1.4014182 6.84420295 2.88374372 10 5 C11.01953125 8.19921875 11.01953125 8.19921875 10.8125 11.6875 C10.827039 18.61533179 11.93241387 23.34074974 16 29 C19.50833899 32.42674971 22.22899118 33.25680015 27 33.5 C31.77100882 33.25680015 34.49166101 32.42674971 38 29 C42.83218043 22.27696637 43.46423268 16.35018452 42.98046875 8.19921875 C44 5 44 5 46.27978516 3.47119141 C48.8192425 2.19810662 51.3610507 1.04955159 54 0 C54.17439217 4.26820052 54.30067865 8.53446112 54.38452148 12.80517578 C54.41950365 14.25443684 54.46710991 15.70345481 54.52807617 17.15185547 C55.08428785 30.71594187 55.08428785 30.71594187 50.84765625 35.875 C45.13576329 41.57491164 38.03906391 41.27966994 30.45703125 41.32226562 C28.49830078 41.31743164 28.49830078 41.31743164 26.5 41.3125 C25.19417969 41.32861328 23.88835937 41.34472656 22.54296875 41.36132812 C21.28097656 41.36197266 20.01898438 41.36261719 18.71875 41.36328125 C17.57341797 41.36626221 16.42808594 41.36924316 15.24804688 41.37231445 C9.45179811 40.7079068 4.78541028 37.95785452 1.15136719 33.45263672 C-1.48789117 27.83050155 -0.59324371 21.14793087 -0.375 15.0625 C-0.34486529 13.60096634 -0.31749563 12.1393729 -0.29296875 10.67773438 C-0.22724219 7.11723626 -0.12391851 3.55900308 0 0 Z " fill="#FBCE49" transform="translate(123,88)"/>
<path d="M0 0 C4.60768451 2.78199819 6.89007173 5.55948361 8.53515625 10.6796875 C9.55857285 15.78817038 9.92281918 21.30536801 8.21875 26.28125 C7 28 7 28 3.1875 28.75 C-2.86297756 29.17511525 -8.93864837 29.08431556 -15 29 C-17.94288781 22.49281779 -18.05967695 15.43757249 -15.875 8.625 C-12.87497626 1.84355099 -7.45353461 -1.81503238 0 0 Z " fill="#354B7D" transform="translate(154,82)"/>
<path d="M0 0 C4.60768451 2.78199819 6.89007173 5.55948361 8.53515625 10.6796875 C9.72086069 16.5982458 10.1201403 22.6796014 7 28 C6.34 28 5.68 28 5 28 C5 21.73 5 15.46 5 9 C4.34 9 3.68 9 3 9 C2.67 10.98 2.34 12.96 2 15 C-0.0245738 13.06745228 -1.42105792 11.36841312 -3 9 C-6.75023911 10.2500797 -7.11848185 11.66458147 -9 15 C-9.33 15 -9.66 15 -10 15 C-10.33 13.02 -10.66 11.04 -11 9 C-11.66 9 -12.32 9 -13 9 C-13 15.27 -13 21.54 -13 28 C-13.66 28.33 -14.32 28.66 -15 29 C-17.94288781 22.49281779 -18.05967695 15.43757249 -15.875 8.625 C-12.87497626 1.84355099 -7.45353461 -1.81503238 0 0 Z " fill="#E9EDED" transform="translate(154,82)"/>
<path d="M0 0 C2.64760802 -0.41368875 4.42219934 -0.3803076 6.69140625 1.11328125 C7.30886719 1.57089844 7.92632812 2.02851563 8.5625 2.5 C13.76618787 5.94289367 18.94967247 6.05860374 25 5 C27.31964317 3.8917685 29.24709343 2.64111551 31.30859375 1.11328125 C33.57780066 -0.3803076 35.35239198 -0.41368875 38 0 C38.495 1.98 38.495 1.98 39 4 C31.1724515 11.06388523 25.28055898 12.62520358 14.6796875 12.42578125 C8.33879255 11.69206835 3.14635648 8.8872415 -1 4 C-0.6875 1.8125 -0.6875 1.8125 0 0 Z " fill="#C7C7C7" transform="translate(131,131)"/>
<path d="M0 0 C1.20563458 11.2793813 1.20563458 11.2793813 0 16 C-2.91248173 19.13730488 -5.98066839 20.62194345 -10 22 C-10.41572266 21.13568359 -10.41572266 21.13568359 -10.83984375 20.25390625 C-12.33747789 17.34436114 -14.1030142 14.64786232 -15.87890625 11.90234375 C-17 10 -17 10 -18 7 C-15.75820623 5.63034792 -13.50827662 4.27947192 -11.25 2.9375 C-10.61578125 2.54755859 -9.9815625 2.15761719 -9.328125 1.75585938 C-5.74435102 -0.35334093 -3.96345928 -1.34013518 0 0 Z " fill="#049B45" transform="translate(177,72)"/>
<path d="M0 0 C3.96928839 0.51978777 7.30512781 2.65078522 10.75 4.5625 C11.65298828 5.0565332 11.65298828 5.0565332 12.57421875 5.56054688 C14.05170503 6.3696465 15.52616036 7.18427662 17 8 C15.45201221 11.15126086 13.76480416 14.18549285 12 17.21875 C10.93463809 19.1164259 9.95940433 21.0469269 9 23 C4.98098426 21.62205175 1.91720646 20.13178207 -1 17 C-1.97126688 11.54679769 -1.72623901 6.47521066 -1 1 C-0.67 0.67 -0.34 0.34 0 0 Z " fill="#039B45" transform="translate(124,71)"/>
<path d="M0 0 C0 6.27 0 12.54 0 19 C-8.3984375 23.78515625 -8.3984375 23.78515625 -11 25 C-11.66 24.67 -12.32 24.34 -13 24 C-12.67128906 23.319375 -12.34257812 22.63875 -12.00390625 21.9375 C-10.81856845 18.46911859 -10.90204518 15.65578574 -10.9375 12 C-10.60919059 5.60801681 -10.60919059 5.60801681 -7.97265625 2.9765625 C-2.52709538 0 -2.52709538 0 0 0 Z " fill="#D5281F" transform="translate(177,88)"/>
<path d="M0 0 C6.91901065 2.27714275 6.91901065 2.27714275 10 5 C10.91303393 8.62155564 11.00239932 11.79968896 10.9375 15.52734375 C11.00177122 19.09841349 11.70731075 21.69253337 13 25 C7.99554115 23.53528034 4.74177759 21.70958719 0 19 C0 12.73 0 6.46 0 0 Z " fill="#D5281F" transform="translate(123,88)"/>
<path d="M0 0 C6.6 0 13.2 0 20 0 C17.5 6.25 17.5 6.25 14 8 C8.95953757 8.64005872 8.95953757 8.64005872 6 8 C2.78045355 5.46546343 1.29567565 3.88702695 0 0 Z " fill="#059C46" transform="translate(140,110)"/>
<path d="M0 0 C0.99 0.33 1.98 0.66 3 1 C3.02690104 3.79173055 3.04679053 6.58320348 3.0625 9.375 C3.07087891 10.1690625 3.07925781 10.963125 3.08789062 11.78125 C3.11328125 17.7734375 3.11328125 17.7734375 2 20 C-0.32156597 20.40729228 -2.6568787 20.74438677 -5 21 C-5.33 20.34 -5.66 19.68 -6 19 C-5.38125 17.845 -4.7625 16.69 -4.125 15.5 C-1.9032377 11.33896751 -1.42534539 7.67432082 -1.17578125 3.00390625 C-1 1 -1 1 0 0 Z " fill="#BAA472" transform="translate(157,90)"/>
<path d="M0 0 C0.99 0.33 1.98 0.66 3 1 C3.02578125 1.61746094 3.0515625 2.23492187 3.078125 2.87109375 C3.50948974 9.31215364 5.03067892 14.28233058 8 20 C4.71303767 20.79953138 3.28976808 21.09658936 0 20 C-1.64838944 16.70322112 -1.14272738 13.05683956 -1.125 9.4375 C-1.12886719 8.64408203 -1.13273438 7.85066406 -1.13671875 7.03320312 C-1.12663067 1.12663067 -1.12663067 1.12663067 0 0 Z " fill="#BAA472" transform="translate(141,90)"/>
<path d="M0 0 C1.32 1.65 2.64 3.3 4 5 C6.88859341 8.03302308 9.63112433 10.47334325 13 13 C8.71 13 4.42 13 0 13 C0 8.71 0 4.42 0 0 Z " fill="#FFFFFF" transform="translate(0,187)"/>
<path d="M0 0 C4.29 0 8.58 0 13 0 C13 4.29 13 8.58 13 13 C11.68 11.35 10.36 9.7 9 8 C6.11140659 4.96697692 3.36887567 2.52665675 0 0 Z " fill="#FFFFFF" transform="translate(287,0)"/>
<path d="M0 0 C0.33 0 0.66 0 1 0 C1 4.29 1 8.58 1 13 C-3.29 13 -7.58 13 -12 13 C-10.68 12.01 -9.36 11.02 -8 10 C-4.65130212 6.89632879 -2.25987319 3.95477808 0 0 Z " fill="#FFFFFF" transform="translate(299,187)"/>
<path d="M0 0 C4.29 0 8.58 0 13 0 C10.82987456 1.62759408 8.65215544 3.2460364 6.4375 4.8125 C3.67647838 7.29033992 2.46004309 9.61884757 1 13 C0.67 13 0.34 13 0 13 C0 8.71 0 4.42 0 0 Z " fill="#FFFFFF" transform="translate(0,0)"/>
<path d="M0 0 C1.98 0 3.96 0 6 0 C6 2.97 6 5.94 6 9 C4.34385343 9.38218767 2.67542976 9.71395102 1 10 C0 9 0 9 -0.09765625 6.93359375 C-0.08605469 6.10988281 -0.07445312 5.28617187 -0.0625 4.4375 C-0.05347656 3.61121094 -0.04445312 2.78492187 -0.03515625 1.93359375 C-0.02355469 1.29550781 -0.01195312 0.65742187 0 0 Z " fill="#DEE0E5" transform="translate(147,95)"/>
<path d="M0 0 C3.09246438 1.06636703 4.00415447 2.00644659 5.8125 4.8125 C7.07342077 8.19707681 7.2440394 9.65066315 6 13 C5.01 13.495 5.01 13.495 4 14 C4 11.03 4 8.06 4 5 C1.69 5 -0.62 5 -3 5 C-2.01 3.35 -1.02 1.7 0 0 Z " fill="#384980" transform="translate(149,90)"/>
<path d="M0 0 C0.33 0 0.66 0 1 0 C1.33 2.64 1.66 5.28 2 8 C0.35 8.33 -1.3 8.66 -3 9 C-3.33 8.34 -3.66 7.68 -4 7 C-3.22265625 5.2734375 -3.22265625 5.2734375 -2.0625 3.375 C-1.381875 2.26125 -0.70125 1.1475 0 0 Z " fill="#E3E7E7" transform="translate(155,102)"/>
<path d="M0 0 C2.72426311 2.35277269 3.8141763 4.62496331 5 8 C3.35 8.33 1.7 8.66 0 9 C-1.53445094 5.93109813 -0.54984289 3.29905734 0 0 Z " fill="#E3E7E7" transform="translate(144,102)"/>
<path d="M0 0 C0.33 0 0.66 0 1 0 C1 2.97 1 5.94 1 9 C0.01 8.01 -0.98 7.02 -2 6 C-1.57894737 1.57894737 -1.57894737 1.57894737 0 0 Z " fill="#263A75" transform="translate(146,95)"/>
</svg>
