<?xml version="1.0" encoding="UTF-8"?>
<svg version="1.1" xmlns="http://www.w3.org/2000/svg" width="300" height="200">
<path d="M0 0 C99 0 198 0 300 0 C300 66 300 132 300 200 C201 200 102 200 0 200 C0 134 0 68 0 0 Z " fill="#A5CD39" transform="translate(0,0)"/>
<path d="M0 0 C18.00439886 -0.60163214 18.00439886 -0.60163214 25.84375 -0.73242188 C31.13778883 -0.8211739 36.42784159 -0.92458544 41.71875 -1.1315918 C63.93686677 -1.9777708 79.45491686 -1.51114762 97.44410706 13.03430176 C101.92774486 16.48259914 106.81877954 19.26128375 111.6875 22.125 C113.5731691 23.26566329 115.45748592 24.4085681 117.33984375 25.5546875 C118.26651855 26.11768555 119.19319336 26.68068359 120.14794922 27.26074219 C125.02795015 30.23669893 129.89021244 33.24117956 134.75 36.25 C135.63776123 36.79930176 136.52552246 37.34860352 137.44018555 37.91455078 C140.65458127 39.90738127 143.85283455 41.9018897 147 44 C153.23053942 45.11925858 157.27017929 41.76707919 162.25 38.5 C164.13354008 37.29857801 166.01768235 36.09809972 167.90234375 34.8984375 C168.89476074 34.26131836 169.88717773 33.62419922 170.90966797 32.96777344 C176.16880979 29.61900719 181.49399694 26.37833106 186.8125 23.125 C188.77814183 21.92057235 190.74295926 20.71479842 192.70703125 19.5078125 C194.37403076 18.52615112 194.37403076 18.52615112 196.07470703 17.5246582 C199.17586887 15.62557653 201.94986669 13.46450183 204.78076172 11.18432617 C222.70920403 -2.52514531 239.24511537 -1.876379 260.87866211 -1.02996826 C266.0870756 -0.84624035 271.29827805 -0.78010355 276.5090332 -0.69316864 C284.34493482 -0.54980486 292.1631613 -0.26187456 300 0 C300 21.78 300 43.56 300 66 C201 66 102 66 0 66 C0 44.22 0 22.44 0 0 Z " fill="#D8251D" transform="translate(0,134)"/>
<path d="M0 0 C99 0 198 0 300 0 C300 21.78 300 43.56 300 66 C281.99560114 66.60163214 281.99560114 66.60163214 274.15625 66.73242188 C268.86221117 66.8211739 263.57215841 66.92458544 258.28125 67.1315918 C236.06313323 67.9777708 220.54508314 67.51114762 202.55589294 52.96569824 C198.07225514 49.51740086 193.18122046 46.73871625 188.3125 43.875 C186.4268309 42.73433671 184.54251408 41.5914319 182.66015625 40.4453125 C181.73348145 39.88231445 180.80680664 39.31931641 179.85205078 38.73925781 C174.97204985 35.76330107 170.10978756 32.75882044 165.25 29.75 C164.36223877 29.20069824 163.47447754 28.65139648 162.55981445 28.08544922 C159.34541873 26.09261873 156.14716545 24.0981103 153 22 C146.76946058 20.88074142 142.72982071 24.23292081 137.75 27.5 C135.86645992 28.70142199 133.98231765 29.90190028 132.09765625 31.1015625 C131.10523926 31.73868164 130.11282227 32.37580078 129.09033203 33.03222656 C123.83119021 36.38099281 118.50600306 39.62166894 113.1875 42.875 C111.22185817 44.07942765 109.25704074 45.28520158 107.29296875 46.4921875 C106.18163574 47.14662842 105.07030273 47.80106934 103.92529297 48.4753418 C100.82413113 50.37442347 98.05013331 52.53549817 95.21923828 54.81567383 C77.29079597 68.52514531 60.75488463 67.876379 39.12133789 67.02996826 C33.9129244 66.84624035 28.70172195 66.78010355 23.4909668 66.69316864 C15.65506518 66.54980486 7.8368387 66.26187456 0 66 C0 44.22 0 22.44 0 0 Z " fill="#D8251D" transform="translate(0,0)"/>
<path d="M0 0 C24.42 0 48.84 0 74 0 C74 22.44 74 44.88 74 68 C49.58 68 25.16 68 0 68 C2.55797343 65.44202657 4.54012679 63.92736116 7.5859375 62.1015625 C8.50729492 61.5456543 9.42865234 60.98974609 10.37792969 60.41699219 C11.36696289 59.82563477 12.35599609 59.23427734 13.375 58.625 C15.45094737 57.37310287 17.52645796 56.12048119 19.6015625 54.8671875 C20.66020508 54.2287793 21.71884766 53.59037109 22.80957031 52.93261719 C27.80960581 49.90382311 32.78145414 46.83009627 37.75 43.75 C38.63606934 43.20166504 39.52213867 42.65333008 40.43505859 42.08837891 C43.6512812 40.09473768 46.85118917 38.09920722 50 36 C49.6932416 32.97227549 49.52657528 31.45154076 47.16845703 29.42944336 C46.37294434 28.98737549 45.57743164 28.54530762 44.7578125 28.08984375 C43.86529785 27.58066406 42.9727832 27.07148437 42.05322266 26.546875 C41.08690918 26.01578125 40.1205957 25.4846875 39.125 24.9375 C37.11312181 23.79292977 35.1027317 22.64574038 33.09375 21.49609375 C32.07539063 20.91714355 31.05703125 20.33819336 30.0078125 19.74169922 C25.4700328 17.11405958 21.04357511 14.32221251 16.625 11.5 C15.87234863 11.02038818 15.11969727 10.54077637 14.34423828 10.04663086 C12.92401769 9.14090227 11.50485402 8.23351358 10.08691406 7.32421875 C7.22985138 5.51131421 4.34047262 3.75180159 1.44677734 1.99804688 C0.96934082 1.66869141 0.4919043 1.33933594 0 1 C0 0.67 0 0.34 0 0 Z " fill="#EFEBEA" transform="translate(226,66)"/>
<path d="M0 0 C24.42 0 48.84 0 74 0 C71.44202657 2.55797343 69.45987321 4.07263884 66.4140625 5.8984375 C65.03202637 6.7322998 65.03202637 6.7322998 63.62207031 7.58300781 C62.63303711 8.17436523 61.64400391 8.76572266 60.625 9.375 C58.54905263 10.62689713 56.47354204 11.87951881 54.3984375 13.1328125 C53.33979492 13.7712207 52.28115234 14.40962891 51.19042969 15.06738281 C46.19039419 18.09617689 41.21854586 21.16990373 36.25 24.25 C35.36393066 24.79833496 34.47786133 25.34666992 33.56494141 25.91162109 C30.3487188 27.90526232 27.14881083 29.90079278 24 32 C24.3067584 35.02772451 24.47342472 36.54845924 26.83154297 38.57055664 C27.62705566 39.01262451 28.42256836 39.45469238 29.2421875 39.91015625 C30.58095947 40.67392578 30.58095947 40.67392578 31.94677734 41.453125 C32.91309082 41.98421875 33.8794043 42.5153125 34.875 43.0625 C36.88687819 44.20707023 38.8972683 45.35425962 40.90625 46.50390625 C41.92460938 47.08285645 42.94296875 47.66180664 43.9921875 48.25830078 C48.5299672 50.88594042 52.95642489 53.67778749 57.375 56.5 C58.12765137 56.97961182 58.88030273 57.45922363 59.65576172 57.95336914 C61.07598231 58.85909773 62.49514598 59.76648642 63.91308594 60.67578125 C66.77014862 62.48868579 69.65952738 64.24819841 72.55322266 66.00195312 C73.03065918 66.33130859 73.5080957 66.66066406 74 67 C74 67.33 74 67.66 74 68 C49.58 68 25.16 68 0 68 C0 45.56 0 23.12 0 0 Z " fill="#EFEBEA" transform="translate(0,66)"/>
<path d="M0 0 C0.66 0.66 1.32 1.32 2 2 C1.625 4.125 1.625 4.125 1 6 C0.34 6 -0.32 6 -1 6 C-0.505 6.99 -0.505 6.99 0 8 C0.14640501 9.64142541 0.22096589 11.2898141 0.25 12.9375 C0.27578125 13.81277344 0.3015625 14.68804687 0.328125 15.58984375 C0 18 0 18 -1.328125 19.81640625 C-3 21 -3 21 -6 21 C-5.505 22.485 -5.505 22.485 -5 24 C-3.35 24.33 -1.7 24.66 0 25 C0.33 22.36 0.66 19.72 1 17 C1.67804688 16.92523438 2.35609375 16.85046875 3.0546875 16.7734375 C10.4541919 15.72807815 17.56278568 13.43721432 23 8 C25.67058851 7.85884839 28.32432238 7.95752893 31 8 C30.8136543 11.85114445 30.09904381 12.90910623 27.19921875 15.5703125 C26.03880178 16.43566335 24.86775281 17.28690517 23.6875 18.125 C23.10548828 18.55425781 22.52347656 18.98351562 21.92382812 19.42578125 C20.29052747 20.6280977 18.64557712 21.81454151 17 23 C16.24332031 23.59554687 15.48664063 24.19109375 14.70703125 24.8046875 C13 26 13 26 11 26 C11.68679307 32.59497444 13.73645214 38.38905019 16.00390625 44.59179688 C16.27332031 45.35943359 16.54273438 46.12707031 16.8203125 46.91796875 C17.07055176 47.60656982 17.32079102 48.2951709 17.57861328 49.00463867 C18.06850005 51.32436324 17.73338682 52.76956783 17 55 C13.09553817 54.45520129 10.82743242 53.42921231 7.75 50.98828125 C6.58984375 50.09979492 6.58984375 50.09979492 5.40625 49.19335938 C3.79638092 47.9349958 2.19222222 46.66929383 0.59375 45.39648438 C-0.56640625 44.51379883 -0.56640625 44.51379883 -1.75 43.61328125 C-2.44609375 43.06454346 -3.1421875 42.51580566 -3.859375 41.95043945 C-6.02006845 40.72498568 -6.02006845 40.72498568 -8.52734375 41.65820312 C-10.83578738 42.91088936 -12.77947694 44.19989247 -14.8125 45.85546875 C-15.83730469 46.66467773 -15.83730469 46.66467773 -16.8828125 47.49023438 C-18.30000784 48.62634393 -19.71145511 49.7696593 -21.1171875 50.91992188 C-26.35888809 55.02921734 -26.35888809 55.02921734 -30 54.86328125 C-30.99 54.43595703 -30.99 54.43595703 -32 54 C-30.7535039 47.54088384 -28.88406876 41.41912094 -26.67700195 35.23022461 C-25.51814543 31.90603364 -25 29.57735339 -25 26 C-25.51304687 25.773125 -26.02609375 25.54625 -26.5546875 25.3125 C-29.95241642 23.48879886 -33.00153541 21.25404661 -36.125 19 C-36.75792969 18.54882812 -37.39085938 18.09765625 -38.04296875 17.6328125 C-40.50942425 15.86282957 -42.84958086 14.15041914 -45 12 C-45 10.68 -45 9.36 -45 8 C-38.3750746 7.27728087 -35.4260308 8.65464368 -30.09375 12.53515625 C-25.48795795 15.7574921 -20.47648561 16.34282173 -15 17 C-14.67 19.64 -14.34 22.28 -14 25 C-12.35 24.67 -10.7 24.34 -9 24 C-8.505 22.515 -8.505 22.515 -8 21 C-8.61875 20.87625 -9.2375 20.7525 -9.875 20.625 C-12 20 -12 20 -14 18 C-14.23046875 15.6875 -14.23046875 15.6875 -14.1875 13 C-14.18105469 12.113125 -14.17460937 11.22625 -14.16796875 10.3125 C-14 8 -14 8 -13 6 C-13.99 5.67 -14.98 5.34 -16 5 C-16 4.01 -16 3.02 -16 2 C-14.35 2 -12.7 2 -11 2 C-11 3.65 -11 5.3 -11 7 C-8.36 7 -5.72 7 -3 7 C-3.061875 6.21625 -3.12375 5.4325 -3.1875 4.625 C-3.0946875 3.325625 -3.0946875 3.325625 -3 2 C-2.01 1.34 -1.02 0.68 0 0 Z " fill="#EDEDE8" transform="translate(157,78)"/>
<path d="M0 0 C0.99 0.99 0.99 0.99 2 2 C1.82808364 5.18045261 0.9463879 7.09485218 -0.625 9.875 C-3 12 -3 12 -6.3125 12 C-10.0753894 10.97955542 -13.44142653 9.58158821 -17 8 C-28.44787082 4.84861983 -42.37294995 5.99266234 -53.37890625 10.04296875 C-56.61208641 11.22348908 -59.58753722 11.6825616 -63 12 C-63.86949317 10.92892883 -64.72014205 9.84254056 -65.5625 8.75 C-66.03816406 8.14671875 -66.51382813 7.5434375 -67.00390625 6.921875 C-68 5 -68 5 -67.92578125 2.92578125 C-65.97353916 -1.13521179 -60.97211815 -2.39721548 -57 -4 C-37.580727 -10.43776717 -18.33669574 -9.18350216 0 0 Z " fill="#D72A1D" transform="translate(183,143)"/>
<path d="M0 0 C1.03165283 0.02094727 2.06330566 0.04189453 3.1262207 0.06347656 C4.24448242 0.07636719 5.36274414 0.08925781 6.51489258 0.10253906 C7.68213867 0.13605469 8.84938477 0.16957031 10.05200195 0.20410156 C11.23084961 0.22214844 12.40969727 0.24019531 13.62426758 0.25878906 C16.53849121 0.30598297 19.45109226 0.37181079 22.36450195 0.45410156 C22.85950195 2.43410156 22.85950195 2.43410156 23.36450195 4.45410156 C5.07848755 19.47270901 5.07848755 19.47270901 -6.63549805 18.45410156 C-6.96549805 21.09410156 -7.29549805 23.73410156 -7.63549805 26.45410156 C-9.28549805 26.45410156 -10.93549805 26.45410156 -12.63549805 26.45410156 C-12.96549805 25.13410156 -13.29549805 23.81410156 -13.63549805 22.45410156 C-12.81307617 22.08285156 -11.9906543 21.71160156 -11.14331055 21.32910156 C-10.31573242 20.71035156 -9.4881543 20.09160156 -8.63549805 19.45410156 C-8.14266454 16.58501854 -8.14266454 16.58501854 -8.51049805 13.45410156 C-8.93777467 7.83058982 -8.93777467 7.83058982 -7.33081055 5.82910156 C-6.77135742 5.37535156 -6.2119043 4.92160156 -5.63549805 4.45410156 C-5.22436768 3.77379883 -4.8132373 3.09349609 -4.38964844 2.39257812 C-2.63549805 0.45410156 -2.63549805 0.45410156 0 0 Z " fill="#7C614C" transform="translate(164.635498046875,76.5458984375)"/>
<path d="M0 0 C4.08279501 -0.17421117 8.16463681 -0.28082588 12.25 -0.375 C13.40886719 -0.42527344 14.56773438 -0.47554688 15.76171875 -0.52734375 C18.94817809 -0.58260027 21.86454279 -0.57770512 25 0 C27.671875 2.9609375 27.671875 2.9609375 29 6 C29.66 6.33 30.32 6.66 31 7 C30.94199219 7.83144531 30.88398438 8.66289063 30.82421875 9.51953125 C30.75654297 11.14955078 30.75654297 11.14955078 30.6875 12.8125 C30.62949219 13.89144531 30.57148438 14.97039062 30.51171875 16.08203125 C30.69189001 19.22185516 30.69189001 19.22185516 33.51953125 20.88671875 C34.33808594 21.25410156 35.15664062 21.62148437 36 22 C35.67 23.32 35.34 24.64 35 26 C33.35 26 31.7 26 30 26 C29.67 23.36 29.34 20.72 29 18 C27.576875 18.12375 27.576875 18.12375 26.125 18.25 C15.18259482 18.11869114 7.00730623 10.57653365 -1 4 C-0.67 2.68 -0.34 1.36 0 0 Z " fill="#7C604C" transform="translate(113,77)"/>
<path d="M0 0 C2.24834496 -0.13526139 4.49902514 -0.23210804 6.75 -0.3125 C8.00296875 -0.37050781 9.2559375 -0.42851563 10.546875 -0.48828125 C14 0 14 0 16.375 2.33203125 C19.25454026 7.05973798 20 10.436986 20 16 C14.06 16 8.12 16 2 16 C2.33 13.03 2.66 10.06 3 7 C1.68 6.34 0.36 5.68 -1 5 C-0.67 3.35 -0.34 1.7 0 0 Z " fill="#D72B1F" transform="translate(139,49)"/>
<path d="M0 0 C3.02452914 0.42202732 5.68007402 0.86403146 8.5 2.0625 C14.4466006 4.29247522 18.42823305 2.47634087 24 0 C25.32 0 26.64 0 28 0 C28 1.32 28 2.64 28 4 C25.69 4.66 23.38 5.32 21 6 C21 6.66 21 7.32 21 8 C23.31 8.66 25.62 9.32 28 10 C28 11.32 28 12.64 28 14 C24.97547086 13.57797268 22.31992598 13.13596854 19.5 11.9375 C13.5533994 9.70752478 9.57176695 11.52365913 4 14 C2.68 14 1.36 14 0 14 C0 12.68 0 11.36 0 10 C2.31 9.34 4.62 8.68 7 8 C7 7.34 7 6.68 7 6 C4.69 5.34 2.38 4.68 0 4 C0 2.68 0 1.36 0 0 Z " fill="#F7C50C" transform="translate(136,104)"/>
<path d="M0 0 C0.66 0.66 1.32 1.32 2 2 C1.625 4.125 1.625 4.125 1 6 C0.34 6 -0.32 6 -1 6 C-0.67 6.66 -0.34 7.32 0 8 C0.14640501 9.64142541 0.22096589 11.2898141 0.25 12.9375 C0.27578125 13.81277344 0.3015625 14.68804687 0.328125 15.58984375 C0 18 0 18 -1.265625 19.79296875 C-3.34408491 21.2394645 -4.48560672 21.40357265 -7 21.375 C-7.680625 21.38273437 -8.36125 21.39046875 -9.0625 21.3984375 C-11.62925172 20.87059743 -12.49230182 20.13590575 -14 18 C-14.328125 15.58984375 -14.328125 15.58984375 -14.25 12.9375 C-14.23453125 12.05964844 -14.2190625 11.18179688 -14.203125 10.27734375 C-14 8 -14 8 -13 6 C-13.99 5.67 -14.98 5.34 -16 5 C-16 4.01 -16 3.02 -16 2 C-14.35 2 -12.7 2 -11 2 C-11 3.65 -11 5.3 -11 7 C-8.36 7 -5.72 7 -3 7 C-3.061875 6.21625 -3.12375 5.4325 -3.1875 4.625 C-3.125625 3.75875 -3.06375 2.8925 -3 2 C-2.01 1.34 -1.02 0.68 0 0 Z " fill="#BAB5B2" transform="translate(157,78)"/>
<path d="M0 0 C2.375 0.4375 2.375 0.4375 4.375 2.4375 C4.8125 4.6875 4.8125 4.6875 4.375 7.4375 C2.8755271 9.65797381 1.21086909 11.46394073 -0.625 13.4375 C-5.375 12.6875 -5.375 12.6875 -7.625 10.4375 C-7.35747112 5.48821574 -5.18952129 0.86492022 0 0 Z " fill="#099D42" transform="translate(194.625,118.5625)"/>
<path d="M0 0 C2.6875 0.5 2.6875 0.5 5.5625 3.1875 C7.6875 6.5 7.6875 6.5 7.625 9.25 C6.6875 11.5 6.6875 11.5 4.6875 13.5 C1.17016672 13.4074386 -0.08449368 12.72184399 -2.625 10.25 C-4.45098873 7.27431467 -4.86613488 5.91408177 -4.3125 2.5 C-2.3125 0.5 -2.3125 0.5 0 0 Z " fill="#099D42" transform="translate(105.3125,118.5)"/>
<path d="M0 0 C2.8125 1.75 2.8125 1.75 5 4 C5.4375 6.625 5.4375 6.625 5 9 C3 11 3 11 0.75 11.4375 C-3.35449836 10.78451162 -5.23481579 9.02853508 -8 6 C-8 2.75 -8 2.75 -7 0 C-4.22339666 -1.38830167 -2.95033814 -0.89196269 0 0 Z " fill="#089D42" transform="translate(177,52)"/>
<path d="M0 0 C0.875 2.6875 0.875 2.6875 1 6 C-1.11816408 8.42813932 -2.21096858 9.67335895 -5 11 C-10.19607843 10.80392157 -10.19607843 10.80392157 -12 9 C-12.375 6.6875 -12.375 6.6875 -12 4 C-7.75859531 -0.01817287 -5.65195262 -1.33862036 0 0 Z " fill="#079D42" transform="translate(130,52)"/>
<path d="M0 0 C1.57922406 1.57922406 1.207659 3.19443874 1.25 5.375 C1.28867188 6.56222656 1.28867188 6.56222656 1.328125 7.7734375 C1 10 1 10 -0.35546875 11.7890625 C-2 13 -2 13 -4.5625 13 C-7 12 -7 12 -8.4375 9.875 C-9.18386157 6.06026308 -8.38172193 3.59247702 -7 0 C-4.31633121 -1.3418344 -2.84719317 -0.73004953 0 0 Z " fill="#079D42" transform="translate(203,101)"/>
<path d="M0 0 C3.125 0.375 3.125 0.375 6 1 C8.43326039 9.19256018 8.43326039 9.19256018 6.625 12.5625 C6.08875 13.036875 5.5525 13.51125 5 14 C0.25 13.25 0.25 13.25 -2 11 C-2.265625 8.90625 -2.265625 8.90625 -2.25 6.5 C-2.25515625 5.7059375 -2.2603125 4.911875 -2.265625 4.09375 C-2 2 -2 2 0 0 Z " fill="#079D42" transform="translate(98,100)"/>
<path d="M0 0 C3.5 0.3125 3.5 0.3125 7 1 C8.1898306 3.3796612 8.13349966 4.91485735 8.125 7.5625 C8.12757813 8.36816406 8.13015625 9.17382812 8.1328125 10.00390625 C8 12 8 12 7 13 C5.00041636 13.04080783 2.99954746 13.04254356 1 13 C-2.06499261 6.74741507 -2.06499261 6.74741507 -1.75 3.125 C-1 1 -1 1 0 0 Z " fill="#079D42" transform="translate(195,81)"/>
<path d="M0 0 C0.66 0.66 1.32 1.32 2 2 C1.54385965 9.18421053 1.54385965 9.18421053 -1 13 C-4.0625 13.25 -4.0625 13.25 -7 13 C-8.57922406 11.42077594 -8.207659 9.80556126 -8.25 7.625 C-8.27578125 6.83351563 -8.3015625 6.04203125 -8.328125 5.2265625 C-7.60841404 0.34280952 -4.51599659 -0.57897392 0 0 Z " fill="#079D42" transform="translate(105,81)"/>
<path d="M0 0 C2.6875 0.5 2.6875 0.5 5.5625 3.1875 C7.6875 6.5 7.6875 6.5 7.5625 9.3125 C6.6875 11.5 6.6875 11.5 5.6875 12.5 C2.875 12.875 2.875 12.875 -0.3125 12.5 C-3.01390941 10.01185975 -4.17745195 8.46784439 -4.6875 4.8125 C-4.16485479 1.58952121 -3.17287424 0.68602686 0 0 Z " fill="#059C42" transform="translate(188.3125,63.5)"/>
<path d="M0 0 C2 2 2 2 2.375 4.3125 C1.86495195 7.96784439 0.70140941 9.51185975 -2 12 C-5.125 12.4375 -5.125 12.4375 -8 12 C-8.66 11.34 -9.32 10.68 -10 10 C-9.84639615 6.46711146 -9.3583001 4.48626442 -7.25 1.625 C-4.55558272 -0.32096804 -3.25413393 -0.51381062 0 0 Z " fill="#059C42" transform="translate(114,64)"/>
<path d="M0 0 C2.64 0 5.28 0 8 0 C8.99 3.3 9.98 6.6 11 10 C10.15695313 10.06058594 9.31390625 10.12117188 8.4453125 10.18359375 C7.34960938 10.26738281 6.25390625 10.35117188 5.125 10.4375 C3.48917969 10.55931641 3.48917969 10.55931641 1.8203125 10.68359375 C-0.94728971 10.83001703 -0.94728971 10.83001703 -3 12 C-2.68950274 10.56206608 -2.3765224 9.1246682 -2.0625 7.6875 C-1.88847656 6.88699219 -1.71445313 6.08648437 -1.53515625 5.26171875 C-1 3 -1 3 0 0 Z " fill="#EDEEEB" transform="translate(146,65)"/>
<path d="M0 0 C1.65322266 0.01740234 1.65322266 0.01740234 3.33984375 0.03515625 C4.99693359 0.04869141 4.99693359 0.04869141 6.6875 0.0625 C7.54214844 0.07410156 8.39679688 0.08570312 9.27734375 0.09765625 C8.94734375 1.74765625 8.61734375 3.39765625 8.27734375 5.09765625 C7.61734375 5.09765625 6.95734375 5.09765625 6.27734375 5.09765625 C6.27734375 6.74765625 6.27734375 8.39765625 6.27734375 10.09765625 C3.63734375 10.09765625 0.99734375 10.09765625 -1.72265625 10.09765625 C-1.72265625 8.44765625 -1.72265625 6.79765625 -1.72265625 5.09765625 C-2.71265625 5.09765625 -3.70265625 5.09765625 -4.72265625 5.09765625 C-3.60073576 0.12915121 -3.60073576 0.12915121 0 0 Z " fill="#7E6250" transform="translate(147.72265625,74.90234375)"/>
<path d="M0 0 C3.3 0 6.6 0 10 0 C10.1953125 6.0546875 10.1953125 6.0546875 10 8 C8 10 8 10 5 10.25 C2 10 2 10 0 8 C-0.26991906 5.31160615 -0.08737357 2.70858064 0 0 Z " fill="#EEEEEE" transform="translate(145,87)"/>
<path d="M0 0 C0.33 0 0.66 0 1 0 C1 4.29 1 8.58 1 13 C-3.29 13 -7.58 13 -12 13 C-10.35 11.68 -8.7 10.36 -7 9 C-3.98531292 6.19563993 -1.56543178 3.84242345 0 0 Z " fill="#FFFFFF" transform="translate(299,187)"/>
<path d="M0 0 C4.29 0 8.58 0 13 0 C13 4.29 13 8.58 13 13 C11.68 11.35 10.36 9.7 9 8 C6.11140659 4.96697692 3.36887567 2.52665675 0 0 Z " fill="#FFFFFF" transform="translate(287,0)"/>
<path d="M0 0 C1.62759408 2.17012544 3.2460364 4.34784456 4.8125 6.5625 C7.29033992 9.32352162 9.61884757 10.53995691 13 12 C13 12.33 13 12.66 13 13 C8.71 13 4.42 13 0 13 C0 8.71 0 4.42 0 0 Z " fill="#FFFFFF" transform="translate(0,187)"/>
<path d="M0 0 C4.29 0 8.58 0 13 0 C10.82987456 1.62759408 8.65215544 3.2460364 6.4375 4.8125 C3.67647838 7.29033992 2.46004309 9.61884757 1 13 C0.67 13 0.34 13 0 13 C0 8.71 0 4.42 0 0 Z " fill="#FFFFFF" transform="translate(0,0)"/>
<path d="M0 0 C3.96 0 7.92 0 12 0 C12 0.33 12 0.66 12 1 C8.7 1 5.4 1 2 1 C2.144375 2.299375 2.28875 3.59875 2.4375 4.9375 C2.51871094 5.66839844 2.59992188 6.39929688 2.68359375 7.15234375 C2.81886614 9.01140229 2.81886614 9.01140229 4 10 C8.03160191 10.26293056 9.55892734 10.29404844 13 8 C12.125 11.875 12.125 11.875 11 13 C3.69108126 13.47154314 3.69108126 13.47154314 1.25390625 11.80859375 C-1.16399118 8.32109684 -0.1591927 4.08594586 0 0 Z " fill="#C5C4C4" transform="translate(143,86)"/>
<path d="M0 0 C0.98120464 3.05263664 0.98120464 4.94736336 0 8 C-1.65 8 -3.3 8 -5 8 C-5.33 6.68 -5.66 5.36 -6 4 C-5.195625 3.525625 -4.39125 3.05125 -3.5625 2.5625 C-1.15246512 1.23099846 -1.15246512 1.23099846 0 0 Z " fill="#816756" transform="translate(157,95)"/>
<path d="M0 0 C2.38564077 0.57584432 4.66682784 1.22227595 7 2 C6.67 3.32 6.34 4.64 6 6 C4.35 6 2.7 6 1 6 C0.67 4.02 0.34 2.04 0 0 Z " fill="#826756" transform="translate(142,97)"/>
<path d="M0 0 C0.66 0.66 1.32 1.32 2 2 C1.8125 4.0625 1.8125 4.0625 1 6 C0.01 6.33 -0.98 6.66 -2 7 C-2.33 5.35 -2.66 3.7 -3 2 C-2.01 1.34 -1.02 0.68 0 0 Z " fill="#E4E2DD" transform="translate(157,78)"/>
<path d="M0 0 C1.65 0 3.3 0 5 0 C4.67 1.65 4.34 3.3 4 5 C2.68 4.34 1.36 3.68 0 3 C0 2.01 0 1.02 0 0 Z " fill="#DCD9D3" transform="translate(141,80)"/>
</svg>
