<?xml version="1.0" encoding="UTF-8"?>
<svg version="1.1" xmlns="http://www.w3.org/2000/svg" width="300" height="200">
<path d="M0 0 C99 0 198 0 300 0 C300 66 300 132 300 200 C201 200 102 200 0 200 C0 134 0 68 0 0 Z " fill="#009B43" transform="translate(0,0)"/>
<path d="M0 0 C99 0 198 0 300 0 C300 16.5 300 33 300 50 C234 50 168 50 100 50 C100 66.5 100 83 100 100 C67 100 34 100 0 100 C0 67 0 34 0 0 Z " fill="#009B43" transform="translate(0,0)"/>
<path d="M0 0 C99 0 198 0 300 0 C300 16.5 300 33 300 50 C201 50 102 50 0 50 C0 33.5 0 17 0 0 Z " fill="#FFCF44" transform="translate(0,150)"/>
<path d="M0 0 C66 0 132 0 200 0 C200 16.5 200 33 200 50 C134 50 68 50 0 50 C0 33.5 0 17 0 0 Z " fill="#FDCE44" transform="translate(100,50)"/>
<path d="M0 0 C33 0 66 0 100 0 C100 33 100 66 100 100 C67 100 34 100 0 100 C0 67 0 34 0 0 Z " fill="#213572" transform="translate(0,0)"/>
<path d="M0 0 C0.99 0.33 1.98 0.66 3 1 C3.94921875 2.9609375 3.94921875 2.9609375 4.6875 5.375 C4.93886719 6.16648437 5.19023438 6.95796875 5.44921875 7.7734375 C6 10 6 10 6 13 C10.62 13 15.24 13 20 13 C18.12803847 16.74392306 17.59931881 17.60045413 14.375 19.75 C13.74335937 20.17796875 13.11171875 20.6059375 12.4609375 21.046875 C11.97882812 21.36140625 11.49671875 21.6759375 11 22 C11.144375 23.010625 11.28875 24.02125 11.4375 25.0625 C11.95833333 28.70833333 12.47916667 32.35416667 13 36 C9.80713489 35.40614106 8.02942253 34.39200745 5.5625 32.3125 C3.79672272 30.94929748 3.79672272 30.94929748 2 30 C-1.40313159 30.5671886 -2.94851278 31.95831987 -5.625 34.125 C-8 36 -8 36 -11 36 C-10.33333333 31.33333333 -9.66666667 26.66666667 -9 22 C-9.6496875 21.51789062 -10.299375 21.03578125 -10.96875 20.5390625 C-12.22171875 19.59160156 -12.22171875 19.59160156 -13.5 18.625 C-14.75296875 17.68527344 -14.75296875 17.68527344 -16.03125 16.7265625 C-16.6809375 16.15679687 -17.330625 15.58703125 -18 15 C-18 14.34 -18 13.68 -18 13 C-13.38 13 -8.76 13 -4 13 C-3.71125 11.5975 -3.4225 10.195 -3.125 8.75 C-2.46276373 5.53342384 -1.57554035 2.88628401 0 0 Z " fill="#E9EAEC" transform="translate(49,30)"/>
<path d="M0 0 C0.99 0.33 1.98 0.66 3 1 C3.33 2.65 3.66 4.3 4 6 C6.31 6 8.62 6 11 6 C11 6.66 11 7.32 11 8 C9.35 8.66 7.7 9.32 6 10 C6.33 12.64 6.66 15.28 7 18 C6.113125 17.46375 5.22625 16.9275 4.3125 16.375 C1.11533935 14.64653899 1.11533935 14.64653899 -1.875 15.8125 C-2.57625 16.204375 -3.2775 16.59625 -4 17 C-3.67 14.69 -3.34 12.38 -3 10 C-5.475 9.01 -5.475 9.01 -8 8 C-8 7.34 -8 6.68 -8 6 C-5.69 6 -3.38 6 -1 6 C-0.67 4.02 -0.34 2.04 0 0 Z " fill="#E5E6E9" transform="translate(76,68)"/>
<path d="M0 0 C0.99 0.33 1.98 0.66 3 1 C3.33 2.65 3.66 4.3 4 6 C6.31 6 8.62 6 11 6 C11 6.66 11 7.32 11 8 C9.35 8.66 7.7 9.32 6 10 C6.33 12.64 6.66 15.28 7 18 C6.113125 17.46375 5.22625 16.9275 4.3125 16.375 C1.11533935 14.64653899 1.11533935 14.64653899 -1.875 15.8125 C-2.57625 16.204375 -3.2775 16.59625 -4 17 C-3.67 14.69 -3.34 12.38 -3 10 C-5.475 9.01 -5.475 9.01 -8 8 C-8 7.34 -8 6.68 -8 6 C-5.69 6 -3.38 6 -1 6 C-0.67 4.02 -0.34 2.04 0 0 Z " fill="#E5E6E9" transform="translate(21,68)"/>
<path d="M0 0 C0.99 0.33 1.98 0.66 3 1 C3.33 2.65 3.66 4.3 4 6 C6.31 6 8.62 6 11 6 C11 6.66 11 7.32 11 8 C9.35 8.66 7.7 9.32 6 10 C6.33 12.64 6.66 15.28 7 18 C6.113125 17.46375 5.22625 16.9275 4.3125 16.375 C1.11533935 14.64653899 1.11533935 14.64653899 -1.875 15.8125 C-2.57625 16.204375 -3.2775 16.59625 -4 17 C-3.67 14.69 -3.34 12.38 -3 10 C-5.475 9.01 -5.475 9.01 -8 8 C-8 7.34 -8 6.68 -8 6 C-5.69 6 -3.38 6 -1 6 C-0.67 4.02 -0.34 2.04 0 0 Z " fill="#E5E6E9" transform="translate(76,13)"/>
<path d="M0 0 C0.99 0.33 1.98 0.66 3 1 C3.33 2.65 3.66 4.3 4 6 C6.31 6 8.62 6 11 6 C11 6.66 11 7.32 11 8 C9.35 8.66 7.7 9.32 6 10 C6.33 12.64 6.66 15.28 7 18 C6.113125 17.46375 5.22625 16.9275 4.3125 16.375 C1.11533935 14.64653899 1.11533935 14.64653899 -1.875 15.8125 C-2.57625 16.204375 -3.2775 16.59625 -4 17 C-3.67 14.69 -3.34 12.38 -3 10 C-5.475 9.01 -5.475 9.01 -8 8 C-8 7.34 -8 6.68 -8 6 C-5.69 6 -3.38 6 -1 6 C-0.67 4.02 -0.34 2.04 0 0 Z " fill="#E5E6E9" transform="translate(21,13)"/>
<path d="M0 0 C4.29 0 8.58 0 13 0 C13 4.29 13 8.58 13 13 C11.68 11.35 10.36 9.7 9 8 C6.11140659 4.96697692 3.36887567 2.52665675 0 0 Z " fill="#FFFFFF" transform="translate(287,0)"/>
<path d="M0 0 C0.33 0 0.66 0 1 0 C1 4.29 1 8.58 1 13 C-3.29 13 -7.58 13 -12 13 C-10.68 12.01 -9.36 11.02 -8 10 C-4.65130212 6.89632879 -2.25987319 3.95477808 0 0 Z " fill="#FFFFFF" transform="translate(299,187)"/>
<path d="M0 0 C1.62759408 2.17012544 3.2460364 4.34784456 4.8125 6.5625 C7.29033992 9.32352162 9.61884757 10.53995691 13 12 C13 12.33 13 12.66 13 13 C8.71 13 4.42 13 0 13 C0 8.71 0 4.42 0 0 Z " fill="#FFFFFF" transform="translate(0,187)"/>
<path d="M0 0 C4.29 0 8.58 0 13 0 C10.82987456 1.62759408 8.65215544 3.2460364 6.4375 4.8125 C3.67647838 7.29033992 2.46004309 9.61884757 1 13 C0.67 13 0.34 13 0 13 C0 8.71 0 4.42 0 0 Z " fill="#FFFFFF" transform="translate(0,0)"/>
</svg>
