<?xml version="1.0" encoding="UTF-8"?>
<svg version="1.1" xmlns="http://www.w3.org/2000/svg" width="300" height="200">
<path d="M0 0 C99 0 198 0 300 0 C300 66 300 132 300 200 C201 200 102 200 0 200 C0 134 0 68 0 0 Z " fill="#D9261D" transform="translate(0,0)"/>
<path d="M0 0 C99 0 198 0 300 0 C300 6.6 300 13.2 300 20 C201 20 102 20 0 20 C0 13.4 0 6.8 0 0 Z " fill="#F0F0F0" transform="translate(0,180)"/>
<path d="M0 0 C99 0 198 0 300 0 C300 6.6 300 13.2 300 20 C201 20 102 20 0 20 C0 13.4 0 6.8 0 0 Z " fill="#1D1D1B" transform="translate(0,160)"/>
<path d="M0 0 C99 0 198 0 300 0 C300 6.6 300 13.2 300 20 C201 20 102 20 0 20 C0 13.4 0 6.8 0 0 Z " fill="#F0F0F0" transform="translate(0,140)"/>
<path d="M0 0 C99 0 198 0 300 0 C300 6.6 300 13.2 300 20 C201 20 102 20 0 20 C0 13.4 0 6.8 0 0 Z " fill="#1D1D1B" transform="translate(0,120)"/>
<path d="M0 0 C99 0 198 0 300 0 C300 6.6 300 13.2 300 20 C201 20 102 20 0 20 C0 13.4 0 6.8 0 0 Z " fill="#F0F0F0" transform="translate(0,100)"/>
<path d="M0 0 C7.75774014 5.67357115 12.35050516 13.70776548 15.35546875 22.72265625 C16.14749861 36.27855186 14.57189048 46.48795715 6.35546875 57.72265625 C-0.70158745 65.5385357 -9.78766768 70.27338807 -20.28125 70.9609375 C-33.07970079 71.3121193 -42.08413452 68.7142002 -51.64453125 59.72265625 C-60.49681423 50.06203562 -63.16215669 39.55645962 -62.91796875 26.7734375 C-62.44177247 16.58236555 -56.80321912 8.57450766 -49.54296875 1.74609375 C-34.47367763 -10.7672752 -16.14660612 -10.18863363 0 0 Z " fill="#EEECEC" transform="translate(83.64453125,18.27734375)"/>
<path d="M0 0 C59.4 0 118.8 0 180 0 C180 6.6 180 13.2 180 20 C120.6 20 61.2 20 0 20 C0 13.4 0 6.8 0 0 Z " fill="#1D1D1B" transform="translate(120,80)"/>
<path d="M0 0 C59.4 0 118.8 0 180 0 C180 6.6 180 13.2 180 20 C120.6 20 61.2 20 0 20 C0 13.4 0 6.8 0 0 Z " fill="#F0F0F0" transform="translate(120,60)"/>
<path d="M0 0 C59.4 0 118.8 0 180 0 C180 6.6 180 13.2 180 20 C120.6 20 61.2 20 0 20 C0 13.4 0 6.8 0 0 Z " fill="#1D1D1B" transform="translate(120,40)"/>
<path d="M0 0 C59.4 0 118.8 0 180 0 C180 6.6 180 13.2 180 20 C120.6 20 61.2 20 0 20 C0 13.4 0 6.8 0 0 Z " fill="#F0F0F0" transform="translate(120,20)"/>
<path d="M0 0 C59.4 0 118.8 0 180 0 C180 6.6 180 13.2 180 20 C120.6 20 61.2 20 0 20 C0 13.4 0 6.8 0 0 Z " fill="#1D1D1B" transform="translate(120,0)"/>
<path d="M0 0 C1.65 0 3.3 0 5 0 C5.33 1.32 5.66 2.64 6 4 C6.60328125 3.9278125 7.2065625 3.855625 7.828125 3.78125 C9.02695312 3.64203125 9.02695312 3.64203125 10.25 3.5 C11.43335938 3.36078125 11.43335938 3.36078125 12.640625 3.21875 C15 3 15 3 19 3 C19.2475 4.175625 19.2475 4.175625 19.5 5.375 C20.84474339 8.40166373 20.84474339 8.40166373 24.6875 9.25 C27.3437203 9.77836209 29.92393732 10.09557972 32.625 10.375 C36.71407847 11.13223675 38.94469847 12.16825712 42 15 C42.6875 18.375 42.6875 18.375 42 22 C40.80360127 23.45507953 39.59731804 24.90647111 38.29296875 26.265625 C36.66746703 28.44605631 36.17231453 30.43542126 35.5 33.0625 C34.27696713 37.59933702 32.92510696 40.17027173 29 43 C25.6875 43.8125 25.6875 43.8125 23 44 C22.773125 44.86625 22.54625 45.7325 22.3125 46.625 C20.75974905 50.61778814 18.85680105 52.84248305 16 56 C13.13275314 55.42655063 12.1385485 55.1385485 10 53 C10.53571429 49.46428571 10.53571429 49.46428571 12 48 C12.41717279 45.58462162 12.41717279 45.58462162 12 43 C11.360625 42.566875 10.72125 42.13375 10.0625 41.6875 C9.381875 41.130625 8.70125 40.57375 8 40 C7.95875 38.7625 7.9175 37.525 7.875 36.25 C7.83993755 34.09060769 7.83993755 34.09060769 7 32 C4.5252327 29.81812969 1.97540659 28.14786092 -0.84765625 26.4453125 C-1.55792969 25.96835937 -2.26820312 25.49140625 -3 25 C-3 24.34 -3 23.68 -3 23 C-3.66 23.33 -4.32 23.66 -5 24 C-10.23298969 24.44536082 -10.23298969 24.44536082 -12.9375 22.875 C-14.52513015 20.07329973 -13.74070176 18.03014356 -13 15 C-11.68 14.67 -10.36 14.34 -9 14 C-9.020625 12.865625 -9.04125 11.73125 -9.0625 10.5625 C-9 7 -9 7 -8 6 C-5.66702567 5.95907063 -3.33294775 5.95758277 -1 6 C-0.67 4.02 -0.34 2.04 0 0 Z " fill="#233773" transform="translate(46,22)"/>
<path d="M0 0 C0.66 0 1.32 0 2 0 C2.33 1.98 2.66 3.96 3 6 C5.31 6 7.62 6 10 6 C9.690625 6.556875 9.38125 7.11375 9.0625 7.6875 C7.47860666 11.13479727 7 14.2207586 7 18 C5.948125 17.62875 4.89625 17.2575 3.8125 16.875 C-0.18632214 15.95723754 -1.49128216 16.08615391 -5 18 C-4.9071875 16.3603125 -4.9071875 16.3603125 -4.8125 14.6875 C-4.62756763 11.08247389 -4.62756763 11.08247389 -6.5 9.1875 C-6.995 8.795625 -7.49 8.40375 -8 8 C-8 7.34 -8 6.68 -8 6 C-5.69 6 -3.38 6 -1 6 C-0.67 4.02 -0.34 2.04 0 0 Z " fill="#FBBF40" transform="translate(103,74)"/>
<path d="M0 0 C0.66 0 1.32 0 2 0 C2.33 1.98 2.66 3.96 3 6 C5.31 6 7.62 6 10 6 C9.690625 6.556875 9.38125 7.11375 9.0625 7.6875 C7.47860666 11.13479727 7 14.2207586 7 18 C5.948125 17.62875 4.89625 17.2575 3.8125 16.875 C-0.18632214 15.95723754 -1.49128216 16.08615391 -5 18 C-4.9071875 16.3603125 -4.9071875 16.3603125 -4.8125 14.6875 C-4.62756763 11.08247389 -4.62756763 11.08247389 -6.5 9.1875 C-6.995 8.795625 -7.49 8.40375 -8 8 C-8 7.34 -8 6.68 -8 6 C-5.69 6 -3.38 6 -1 6 C-0.67 4.02 -0.34 2.04 0 0 Z " fill="#FBBF40" transform="translate(15,74)"/>
<path d="M0 0 C0.66 0 1.32 0 2 0 C2.33 1.98 2.66 3.96 3 6 C5.31 6 7.62 6 10 6 C9.690625 6.556875 9.38125 7.11375 9.0625 7.6875 C7.47860666 11.13479727 7 14.2207586 7 18 C5.948125 17.62875 4.89625 17.2575 3.8125 16.875 C-0.18632214 15.95723754 -1.49128216 16.08615391 -5 18 C-4.9071875 16.3603125 -4.9071875 16.3603125 -4.8125 14.6875 C-4.62756763 11.08247389 -4.62756763 11.08247389 -6.5 9.1875 C-6.995 8.795625 -7.49 8.40375 -8 8 C-8 7.34 -8 6.68 -8 6 C-5.69 6 -3.38 6 -1 6 C-0.67 4.02 -0.34 2.04 0 0 Z " fill="#FBBF40" transform="translate(103,6)"/>
<path d="M0 0 C0.66 0 1.32 0 2 0 C2.33 1.98 2.66 3.96 3 6 C5.31 6 7.62 6 10 6 C9.690625 6.556875 9.38125 7.11375 9.0625 7.6875 C7.47860666 11.13479727 7 14.2207586 7 18 C5.948125 17.62875 4.89625 17.2575 3.8125 16.875 C-0.18632214 15.95723754 -1.49128216 16.08615391 -5 18 C-4.9071875 16.3603125 -4.9071875 16.3603125 -4.8125 14.6875 C-4.62756763 11.08247389 -4.62756763 11.08247389 -6.5 9.1875 C-6.995 8.795625 -7.49 8.40375 -8 8 C-8 7.34 -8 6.68 -8 6 C-5.69 6 -3.38 6 -1 6 C-0.67 4.02 -0.34 2.04 0 0 Z " fill="#FBBF40" transform="translate(15,6)"/>
<path d="M0 0 C0.33 0 0.66 0 1 0 C1 4.29 1 8.58 1 13 C-3.29 13 -7.58 13 -12 13 C-9.82987456 11.37240592 -7.65215544 9.7539636 -5.4375 8.1875 C-2.67647838 5.70966008 -1.46004309 3.38115243 0 0 Z " fill="#FFFFFF" transform="translate(299,187)"/>
<path d="M0 0 C1.62759408 2.17012544 3.2460364 4.34784456 4.8125 6.5625 C7.29033992 9.32352162 9.61884757 10.53995691 13 12 C13 12.33 13 12.66 13 13 C8.71 13 4.42 13 0 13 C0 8.71 0 4.42 0 0 Z " fill="#FFFFFF" transform="translate(0,187)"/>
<path d="M0 0 C4.29 0 8.58 0 13 0 C13 4.29 13 8.58 13 13 C11.37240592 10.82987456 9.7539636 8.65215544 8.1875 6.4375 C5.70966008 3.67647838 3.38115243 2.46004309 0 1 C0 0.67 0 0.34 0 0 Z " fill="#FFFFFF" transform="translate(287,0)"/>
<path d="M0 0 C4.29 0 8.58 0 13 0 C10.82987456 1.62759408 8.65215544 3.2460364 6.4375 4.8125 C3.67647838 7.29033992 2.46004309 9.61884757 1 13 C0.67 13 0.34 13 0 13 C0 8.71 0 4.42 0 0 Z " fill="#FFFFFF" transform="translate(0,0)"/>
</svg>
