<?xml version="1.0" encoding="UTF-8"?>
<svg version="1.1" xmlns="http://www.w3.org/2000/svg" width="300" height="200">
<path d="M0 0 C99 0 198 0 300 0 C300 66 300 132 300 200 C201 200 102 200 0 200 C0 134 0 68 0 0 Z " fill="#EFEFEF" transform="translate(0,0)"/>
<path d="M0 0 C0 46.2 0 92.4 0 140 C-68.97 140 -137.94 140 -209 140 C-206.24857642 137.24857642 -204.30931991 135.3760937 -201.18920898 133.34399414 C-200.44565659 132.8561293 -199.70210419 132.36826447 -198.9360199 131.86561584 C-198.13084427 131.34406418 -197.32566864 130.82251251 -196.49609375 130.28515625 C-195.64269913 129.72642319 -194.7893045 129.16769012 -193.91004944 128.59202576 C-192.05995611 127.38102141 -190.20853934 126.17203704 -188.35595703 124.96484375 C-183.34324186 121.69739548 -178.34140123 118.41339953 -173.33984375 115.12890625 C-172.30914764 114.45231964 -171.27845154 113.77573303 -170.21652222 113.0786438 C-159.91754227 106.3076048 -149.70371982 99.41340057 -139.5 92.5 C-125.06824181 82.72759036 -110.56884516 73.06680294 -96 63.5 C-81.1420156 53.74256453 -66.35131536 43.89260986 -51.625 33.9375 C-50.73290833 33.3345108 -49.84081665 32.73152161 -48.92169189 32.11026001 C-45.43180424 29.75117639 -41.94199586 27.39197558 -38.45236206 25.03251648 C-30.76664856 19.83789874 -23.06802573 14.66280322 -15.35418701 9.51004028 C-14.04636307 8.63612092 -12.73910123 7.76135971 -11.43243408 6.88571167 C-9.67262319 5.70666656 -7.9108768 4.53057992 -6.1484375 3.35546875 C-5.17052246 2.70215576 -4.19260742 2.04884277 -3.18505859 1.37573242 C-1 0 -1 0 0 0 Z " fill="#EF9926" transform="translate(300,60)"/>
<path d="M0 0 C68.97 0 137.94 0 209 0 C206.24857642 2.75142358 204.30931991 4.6239063 201.18920898 6.65600586 C200.44565659 7.1438707 199.70210419 7.63173553 198.9360199 8.13438416 C197.72825645 8.91671165 197.72825645 8.91671165 196.49609375 9.71484375 C195.21600182 10.55294334 195.21600182 10.55294334 193.91004944 11.40797424 C192.05995611 12.61897859 190.20853934 13.82796296 188.35595703 15.03515625 C183.34324186 18.30260452 178.34140123 21.58660047 173.33984375 24.87109375 C172.30914764 25.54768036 171.27845154 26.22426697 170.21652222 26.9213562 C159.91754227 33.6923952 149.70371982 40.58659943 139.5 47.5 C125.06824181 57.27240964 110.56884516 66.93319706 96 76.5 C81.1420156 86.25743547 66.35131536 96.10739014 51.625 106.0625 C50.28686249 106.9669838 50.28686249 106.9669838 48.92169189 107.88973999 C45.43180424 110.24882361 41.94199586 112.60802442 38.45236206 114.96748352 C30.76664856 120.16210126 23.06802573 125.33719678 15.35418701 130.48995972 C14.04636307 131.36387908 12.73910123 132.23864029 11.43243408 133.11428833 C9.67262319 134.29333344 7.9108768 135.46942008 6.1484375 136.64453125 C4.68156494 137.62450073 4.68156494 137.62450073 3.18505859 138.62426758 C1 140 1 140 0 140 C0 93.8 0 47.6 0 0 Z " fill="#213572" transform="translate(0,0)"/>
<path d="M0 0 C2.475 0.495 2.475 0.495 5 1 C5.495 8.92 5.495 8.92 6 17 C7.876875 17.825 9.75375 18.65 11.6875 19.5 C12.74324219 19.9640625 13.79898438 20.428125 14.88671875 20.90625 C17.97445925 21.99102709 19.79076221 22.59352516 23 22 C25.49972983 19.80417568 27.54439768 17.38614564 29.71875 14.87109375 C32 13 32 13 34.78125 13.22265625 C35.5134375 13.47917969 36.245625 13.73570313 37 14 C36.39811941 19.50290823 33.72359343 21.44305388 29.71484375 24.9375 C27.80084599 26.87672452 27.80084599 26.87672452 27.6328125 29.4609375 C28.02447343 32.16923118 28.74998886 34.16545736 29.9375 36.625 C31.11266842 39.09327489 32.13294296 41.39882889 33 44 C38.28 44.33 43.56 44.66 49 45 C49.495 47.475 49.495 47.475 50 50 C47.94077598 52.05922402 43.78291876 51.41427579 40.9375 51.5625 C40.17888672 51.60568359 39.42027344 51.64886719 38.63867188 51.69335938 C36.75934562 51.79973633 34.87969756 51.90039934 33 52 C32.15557119 53.89091736 31.32488413 55.78797515 30.5 57.6875 C30.0359375 58.74324219 29.571875 59.79898438 29.09375 60.88671875 C28.00840901 63.97606436 27.40715604 65.78919906 28 69 C29.99151685 71.40876668 29.99151685 71.40876668 32.5625 73.5625 C35.12890625 75.81640625 35.12890625 75.81640625 37 78 C36.96484375 80.21484375 36.96484375 80.21484375 36 82 C34.515 82.495 34.515 82.495 33 83 C31.02734375 81.63671875 31.02734375 81.63671875 28.9375 79.6875 C28.24527344 79.05199219 27.55304688 78.41648437 26.83984375 77.76171875 C25.5456706 76.52249988 24.26699399 75.26699399 23 74 C16.79842433 74.25839899 11.67463427 76.5902238 6 79 C5.67 84.28 5.34 89.56 5 95 C2.525 95.495 2.525 95.495 0 96 C-2.05922402 93.94077598 -1.41427579 89.78291876 -1.5625 86.9375 C-1.62727539 85.79958008 -1.62727539 85.79958008 -1.69335938 84.63867188 C-1.79973633 82.75934562 -1.90039934 80.87969756 -2 79 C-2.78246094 78.72285156 -3.56492188 78.44570312 -4.37109375 78.16015625 C-5.88896484 77.61681641 -5.88896484 77.61681641 -7.4375 77.0625 C-8.95150391 76.52302734 -8.95150391 76.52302734 -10.49609375 75.97265625 C-13 75 -13 75 -14 74 C-16.34870293 73.53467591 -16.34870293 73.53467591 -19 74 C-21.40876668 75.99151685 -21.40876668 75.99151685 -23.5625 78.5625 C-25.81640625 81.12890625 -25.81640625 81.12890625 -28 83 C-30.27734375 82.77734375 -30.27734375 82.77734375 -32 82 C-32.78125 80.26953125 -32.78125 80.26953125 -33 78 C-31.09375 75.88671875 -31.09375 75.88671875 -28.5 73.6875 C-24.73897825 70.31861413 -24.73897825 70.31861413 -23.6875 65.5625 C-25.37069439 60.9938295 -27.09628441 56.48294317 -29 52 C-34.28 51.67 -39.56 51.34 -45 51 C-45.33 49.35 -45.66 47.7 -46 46 C-43.94077598 43.94077598 -39.78291876 44.58572421 -36.9375 44.4375 C-36.17888672 44.39431641 -35.42027344 44.35113281 -34.63867188 44.30664062 C-32.75934562 44.20026367 -30.87969756 44.09960066 -29 44 C-28.58427734 42.82630859 -28.58427734 42.82630859 -28.16015625 41.62890625 C-27.79792969 40.61699219 -27.43570313 39.60507813 -27.0625 38.5625 C-26.70285156 37.55316406 -26.34320313 36.54382813 -25.97265625 35.50390625 C-25 33 -25 33 -24 32 C-23.53473835 29.64864123 -23.53473835 29.64864123 -24 27 C-26.19582432 24.50027017 -28.61385436 22.45560232 -31.12890625 20.28125 C-33 18 -33 18 -32.77734375 15.21875 C-32.52082031 14.4865625 -32.26429687 13.754375 -32 13 C-26.49709177 13.60188059 -24.55694612 16.27640657 -21.0625 20.28515625 C-19.12327548 22.19915401 -19.12327548 22.19915401 -16.5390625 22.3671875 C-13.83076882 21.97552657 -11.83454264 21.25001114 -9.375 20.0625 C-6.90672511 18.88733158 -4.60117111 17.86705704 -2 17 C-1.93941406 15.85660156 -1.87882812 14.71320313 -1.81640625 13.53515625 C-1.73201572 12.04425695 -1.64736698 10.55337225 -1.5625 9.0625 C-1.52318359 8.30775391 -1.48386719 7.55300781 -1.44335938 6.77539062 C-1.11328125 1.11328125 -1.11328125 1.11328125 0 0 Z " fill="#EF9A28" transform="translate(148,52)"/>
<path d="M0 0 C0.33 0 0.66 0 1 0 C1 4.29 1 8.58 1 13 C-3.29 13 -7.58 13 -12 13 C-10.68 12.01 -9.36 11.02 -8 10 C-4.65130212 6.89632879 -2.25987319 3.95477808 0 0 Z " fill="#FFFFFF" transform="translate(299,187)"/>
<path d="M0 0 C1.62759408 2.17012544 3.2460364 4.34784456 4.8125 6.5625 C7.29033992 9.32352162 9.61884757 10.53995691 13 12 C13 12.33 13 12.66 13 13 C8.71 13 4.42 13 0 13 C0 8.71 0 4.42 0 0 Z " fill="#FFFFFF" transform="translate(0,187)"/>
<path d="M0 0 C4.29 0 8.58 0 13 0 C13 4.29 13 8.58 13 13 C11.37240592 10.82987456 9.7539636 8.65215544 8.1875 6.4375 C5.70966008 3.67647838 3.38115243 2.46004309 0 1 C0 0.67 0 0.34 0 0 Z " fill="#FFFFFF" transform="translate(287,0)"/>
<path d="M0 0 C4.29 0 8.58 0 13 0 C10.82987456 1.62759408 8.65215544 3.2460364 6.4375 4.8125 C3.67647838 7.29033992 2.46004309 9.61884757 1 13 C0.67 13 0.34 13 0 13 C0 8.71 0 4.42 0 0 Z " fill="#FFFFFF" transform="translate(0,0)"/>
</svg>
